<svg width="141" height="140" viewBox="0 0 141 140" fill="none" xmlns="http://www.w3.org/2000/svg">
<path d="M99.2218 71.5116H77.0273C75.7217 67.6227 72.0227 64.8141 67.4532 64.8141C67.0181 64.8141 66.8005 64.8141 66.3653 64.8141L56.1384 48.1783C54.8329 46.0178 51.7866 45.1536 49.6107 46.6659C47.4347 47.9622 46.5644 50.9869 48.0875 53.1474L58.5319 70.2153C57.8792 71.7277 57.444 73.24 57.444 74.9684C57.444 80.5857 62.0134 84.9067 67.4532 84.9067C71.5875 84.9067 75.2866 82.3141 76.8097 78.6412H99.0042C100.962 78.6412 102.486 77.1289 102.486 75.1845C102.703 73.24 101.18 71.5116 99.2218 71.5116Z" fill="#0E9F6E"/>
<path d="M141 70.216V70C141 31.3272 109.231 0 70.5 0C31.5509 0 0 31.5432 0 70C0 108.673 31.7685 140 70.5 140C92.6944 140 112.495 129.63 125.551 113.642L104.009 92.2531C96.8287 102.84 84.4259 109.969 70.5 109.969C48.3055 109.969 30.2454 92.037 30.2454 70C30.2454 47.963 48.3055 30.0309 70.5 30.0309C92.6944 30.0309 110.755 47.963 110.755 70V70.216H141Z" fill="#0E9F6E"/>
</svg>
