<svg width="160" height="58" viewBox="0 0 160 58" fill="none" xmlns="http://www.w3.org/2000/svg">
<g clip-path="url(#clip0_2983_946)">
<rect width="160" height="58" fill="#EFEFEF"/>
<path d="M59.9599 38.9966C59.9733 38.9966 59.9867 39 59.9993 39C65.5144 39 70 34.5144 70 29C70 23.4856 65.5144 19 59.9993 19C54.486 19 50 23.4856 50 29C50 32.149 51.4665 34.9606 53.7511 36.7949L56.8082 33.7371C55.2872 32.7102 54.2839 30.9699 54.2839 29C54.2839 25.8488 56.8491 23.285 59.9993 23.285C63.1511 23.285 65.7151 25.8488 65.7151 29C65.7151 32.149 63.1511 34.7138 59.9993 34.7138C59.9867 34.7138 59.9733 34.7125 59.9599 34.7125V38.9966Z" fill="#E9E9E9"/>
<path d="M63.1168 27.6902C63.3799 27.5383 63.47 27.2019 63.3181 26.9389C63.1662 26.6758 62.8299 26.5857 62.5668 26.7376L63.1168 27.6902ZM62.5668 26.7376L59.4122 28.5589L59.9622 29.5115L63.1168 27.6902L62.5668 26.7376Z" fill="#E9E9E9"/>
<path d="M59.5512 32.7354C59.5512 32.9563 59.7303 33.1354 59.9512 33.1354C60.1721 33.1354 60.3512 32.9563 60.3512 32.7354L59.5512 32.7354ZM60.3512 32.7354L60.3512 28.872L59.5512 28.872L59.5512 32.7354L60.3512 32.7354Z" fill="#E9E9E9"/>
<circle cx="59.983" cy="28.9746" r="1.29699" transform="rotate(53 59.983 28.9746)" fill="#E9E9E9"/>
<path d="M39.9599 67.9966C39.9733 67.9966 39.9867 68 39.9993 68C45.5144 68 50 63.5144 50 58C50 52.4856 45.5144 48 39.9993 48C34.486 48 30 52.4856 30 58C30 61.149 31.4665 63.9606 33.7511 65.7949L36.8082 62.7371C35.2872 61.7102 34.2839 59.9699 34.2839 58C34.2839 54.8488 36.8491 52.285 39.9993 52.285C43.1511 52.285 45.7151 54.8488 45.7151 58C45.7151 61.149 43.1511 63.7138 39.9993 63.7138C39.9867 63.7138 39.9733 63.7125 39.9599 63.7125V67.9966Z" fill="#E9E9E9"/>
<path d="M43.1168 56.6902C43.3799 56.5383 43.47 56.2019 43.3181 55.9389C43.1662 55.6758 42.8299 55.5857 42.5668 55.7376L43.1168 56.6902ZM42.5668 55.7376L39.4122 57.5589L39.9622 58.5115L43.1168 56.6902L42.5668 55.7376Z" fill="#E9E9E9"/>
<path d="M39.5512 61.7354C39.5512 61.9563 39.7303 62.1354 39.9512 62.1354C40.1721 62.1354 40.3512 61.9563 40.3512 61.7354L39.5512 61.7354ZM40.3512 61.7354L40.3512 57.872L39.5512 57.872L39.5512 61.7354L40.3512 61.7354Z" fill="#E9E9E9"/>
<circle cx="39.983" cy="57.9746" r="1.29699" transform="rotate(53 39.983 57.9746)" fill="#E9E9E9"/>
<path d="M70.0034 57.9599C70.0034 57.9733 70 57.9867 70 57.9993C70 63.5144 74.4856 68 80 68C85.5144 68 90 63.5144 90 57.9993C90 52.486 85.5144 48 80 48C76.851 48 74.0394 49.4665 72.2051 51.7511L75.2629 54.8082C76.2898 53.2872 78.0301 52.2839 80 52.2839C83.1512 52.2839 85.715 54.8491 85.715 57.9993C85.715 61.1511 83.1512 63.7151 80 63.7151C76.851 63.7151 74.2862 61.1511 74.2862 57.9993C74.2862 57.9867 74.2875 57.9733 74.2875 57.9599H70.0034Z" fill="#E9E9E9"/>
<path d="M81.3088 61.1178C81.4607 61.3808 81.7971 61.471 82.0602 61.3191C82.3232 61.1672 82.4133 60.8308 82.2615 60.5678L81.3088 61.1178ZM82.2615 60.5678L80.4402 57.4132L79.4875 57.9632L81.3088 61.1178L82.2615 60.5678Z" fill="#E9E9E9"/>
<path d="M76.2637 57.5521C76.0428 57.5521 75.8637 57.7312 75.8637 57.9521C75.8637 58.1731 76.0428 58.3521 76.2637 58.3521L76.2637 57.5521ZM76.2637 58.3521L80.127 58.3521L80.127 57.5521L76.2637 57.5521L76.2637 58.3521Z" fill="#E9E9E9"/>
<circle cx="80.0254" cy="57.983" r="1.29699" transform="rotate(143 80.0254 57.983)" fill="#E9E9E9"/>
<path d="M29.9966 29.0401C29.9966 29.0267 30 29.0133 30 29.0007C30 23.4856 25.5144 19 20 19C14.4856 19 10 23.4856 10 29.0007C10 34.514 14.4856 39 20 39C23.149 39 25.9606 37.5335 27.7949 35.2489L24.7371 32.1918C23.7102 33.7128 21.9699 34.7161 20 34.7161C16.8488 34.7161 14.285 32.1509 14.285 29.0007C14.285 25.8489 16.8488 23.2849 20 23.2849C23.149 23.2849 25.7138 25.8489 25.7138 29.0007C25.7138 29.0133 25.7125 29.0267 25.7125 29.0401H29.9966Z" fill="#E9E9E9"/>
<path d="M18.6912 25.8822C18.5393 25.6192 18.2029 25.529 17.9398 25.6809C17.6768 25.8328 17.5867 26.1692 17.7385 26.4322L18.6912 25.8822ZM17.7385 26.4322L19.5598 29.5868L20.5125 29.0368L18.6912 25.8822L17.7385 26.4322Z" fill="#E9E9E9"/>
<path d="M23.7363 29.4479C23.9572 29.4479 24.1363 29.2688 24.1363 29.0479C24.1363 28.8269 23.9572 28.6479 23.7363 28.6479L23.7363 29.4479ZM23.7363 28.6479L19.873 28.6479L19.873 29.4479L23.7363 29.4479L23.7363 28.6479Z" fill="#E9E9E9"/>
<circle cx="19.9746" cy="29.017" r="1.29699" transform="rotate(-37 19.9746 29.017)" fill="#E9E9E9"/>
<path d="M9.99661 0.0401472C9.99661 0.0266774 10 0.0133 10 0.000662517C10 -5.5144 5.51436 -10 6.56473e-08 -10C-5.51436 -10 -10 -5.5144 -10 0.000662517C-10 5.51403 -5.51436 10 6.56473e-08 10C3.14904 10 5.96062 8.5335 7.79494 6.24885L4.73712 3.19181C3.71025 4.71275 1.96992 5.71608 6.56473e-08 5.71608C-3.1512 5.71608 -5.71499 3.15088 -5.71499 0.000662517C-5.71499 -3.15113 -3.1512 -5.71509 6.56473e-08 -5.71509C3.14904 -5.71509 5.71376 -3.15113 5.71376 0.000662517C5.71376 0.0133 5.71252 0.0266774 5.71252 0.0401472H9.99661Z" fill="#E9E9E9"/>
<path d="M-1.30884 -3.11777C-1.46072 -3.38083 -1.7971 -3.47097 -2.06016 -3.31909C-2.32322 -3.16721 -2.41335 -2.83083 -2.26147 -2.56777L-1.30884 -3.11777ZM-2.26147 -2.56777L-0.440166 0.586817L0.512462 0.0368173L-1.30884 -3.11777L-2.26147 -2.56777Z" fill="#E9E9E9"/>
<path d="M3.73633 0.447852C3.95724 0.447852 4.13633 0.268765 4.13633 0.0478516C4.13633 -0.173062 3.95724 -0.352148 3.73633 -0.352148L3.73633 0.447852ZM3.73633 -0.352148L-0.127044 -0.352149L-0.127044 0.447851L3.73633 0.447852L3.73633 -0.352148Z" fill="#E9E9E9"/>
<circle cx="-0.0254278" cy="0.0169929" r="1.29699" transform="rotate(-37 -0.0254278 0.0169929)" fill="#E9E9E9"/>
<path d="M39.9599 9.99661C39.9733 9.99661 39.9867 10 39.9993 10C45.5144 10 50 5.51436 50 6.56473e-08C50 -5.51436 45.5144 -10 39.9993 -10C34.486 -10 30 -5.51436 30 6.56473e-08C30 3.14904 31.4665 5.96062 33.7511 7.79494L36.8082 4.73712C35.2872 3.71025 34.2839 1.96992 34.2839 6.56473e-08C34.2839 -3.1512 36.8491 -5.71499 39.9993 -5.71499C43.1511 -5.71499 45.7151 -3.1512 45.7151 6.56473e-08C45.7151 3.14904 43.1511 5.71376 39.9993 5.71376C39.9867 5.71376 39.9733 5.71252 39.9599 5.71252V9.99661Z" fill="#E9E9E9"/>
<path d="M43.1168 -1.30982C43.3799 -1.4617 43.47 -1.79807 43.3181 -2.06113C43.1662 -2.32419 42.8299 -2.41433 42.5668 -2.26245L43.1168 -1.30982ZM42.5668 -2.26245L39.4122 -0.441143L39.9622 0.511485L43.1168 -1.30982L42.5668 -2.26245Z" fill="#E9E9E9"/>
<path d="M39.5512 3.73535C39.5512 3.95627 39.7303 4.13535 39.9512 4.13535C40.1721 4.13535 40.3512 3.95627 40.3512 3.73535L39.5512 3.73535ZM40.3512 3.73535L40.3512 -0.128021L39.5512 -0.128021L39.5512 3.73535L40.3512 3.73535Z" fill="#E9E9E9"/>
<circle cx="39.983" cy="-0.0254278" r="1.29699" transform="rotate(53 39.983 -0.0254278)" fill="#E9E9E9"/>
<path d="M70.0034 -0.0401472C70.0034 -0.0266774 70 -0.0133 70 -0.000662517C70 5.5144 74.4856 10 80 10C85.5144 10 90 5.5144 90 -0.000662517C90 -5.51403 85.5144 -10 80 -10C76.851 -10 74.0394 -8.5335 72.2051 -6.24885L75.2629 -3.19181C76.2898 -4.71275 78.0301 -5.71608 80 -5.71608C83.1512 -5.71608 85.715 -3.15088 85.715 -0.000662517C85.715 3.15113 83.1512 5.71509 80 5.71509C76.851 5.71509 74.2862 3.15113 74.2862 -0.000662517C74.2862 -0.0133 74.2875 -0.0266774 74.2875 -0.0401472L70.0034 -0.0401472Z" fill="#E9E9E9"/>
<path d="M81.3088 3.11777C81.4607 3.38083 81.7971 3.47097 82.0602 3.31909C82.3232 3.16721 82.4133 2.83083 82.2615 2.56777L81.3088 3.11777ZM82.2615 2.56777L80.4402 -0.586817L79.4875 -0.0368173L81.3088 3.11777L82.2615 2.56777Z" fill="#E9E9E9"/>
<path d="M76.2637 -0.447852C76.0428 -0.447852 75.8637 -0.268765 75.8637 -0.0478516C75.8637 0.173062 76.0428 0.352148 76.2637 0.352148L76.2637 -0.447852ZM76.2637 0.352148L80.127 0.352149L80.127 -0.447851L76.2637 -0.447852L76.2637 0.352148Z" fill="#E9E9E9"/>
<circle cx="80.0254" cy="-0.0169929" r="1.29699" transform="rotate(143 80.0254 -0.0169929)" fill="#E9E9E9"/>
<path d="M120.04 -9.99661C120.027 -9.99661 120.013 -10 120.001 -10C114.486 -10 110 -5.51436 110 -6.56473e-08C110 5.51436 114.486 10 120.001 10C125.514 10 130 5.51436 130 -6.56473e-08C130 -3.14904 128.533 -5.96062 126.249 -7.79494L123.192 -4.73712C124.713 -3.71025 125.716 -1.96992 125.716 -6.56473e-08C125.716 3.1512 123.151 5.71499 120.001 5.71499C116.849 5.71499 114.285 3.1512 114.285 -6.56473e-08C114.285 -3.14904 116.849 -5.71376 120.001 -5.71376C120.013 -5.71376 120.027 -5.71252 120.04 -5.71252V-9.99661Z" fill="#E9E9E9"/>
<path d="M116.883 1.30982C116.62 1.4617 116.53 1.79807 116.682 2.06113C116.834 2.32419 117.17 2.41433 117.433 2.26245L116.883 1.30982ZM117.433 2.26245L120.588 0.441143L120.038 -0.511485L116.883 1.30982L117.433 2.26245Z" fill="#E9E9E9"/>
<path d="M120.449 -3.73535C120.449 -3.95627 120.27 -4.13535 120.049 -4.13535C119.828 -4.13535 119.649 -3.95627 119.649 -3.73535L120.449 -3.73535ZM119.649 -3.73535L119.649 0.128021L120.449 0.128021L120.449 -3.73535L119.649 -3.73535Z" fill="#E9E9E9"/>
<circle cx="120.017" cy="0.0254278" r="1.29699" transform="rotate(-127 120.017 0.0254278)" fill="#E9E9E9"/>
<path d="M90.0034 28.9599C90.0034 28.9733 90 28.9867 90 28.9993C90 34.5144 94.4856 39 100 39C105.514 39 110 34.5144 110 28.9993C110 23.486 105.514 19 100 19C96.851 19 94.0394 20.4665 92.2051 22.7511L95.2629 25.8082C96.2898 24.2872 98.0301 23.2839 100 23.2839C103.151 23.2839 105.715 25.8491 105.715 28.9993C105.715 32.1511 103.151 34.7151 100 34.7151C96.851 34.7151 94.2862 32.1511 94.2862 28.9993C94.2862 28.9867 94.2875 28.9733 94.2875 28.9599H90.0034Z" fill="#E9E9E9"/>
<path d="M101.309 32.1178C101.461 32.3808 101.797 32.471 102.06 32.3191C102.323 32.1672 102.413 31.8308 102.261 31.5678L101.309 32.1178ZM102.261 31.5678L100.44 28.4132L99.4875 28.9632L101.309 32.1178L102.261 31.5678Z" fill="#E9E9E9"/>
<path d="M96.2637 28.5521C96.0428 28.5521 95.8637 28.7312 95.8637 28.9521C95.8637 29.1731 96.0428 29.3521 96.2637 29.3521L96.2637 28.5521ZM96.2637 29.3521L100.127 29.3521L100.127 28.5521L96.2637 28.5521L96.2637 29.3521Z" fill="#E9E9E9"/>
<circle cx="100.025" cy="28.983" r="1.29699" transform="rotate(143 100.025 28.983)" fill="#E9E9E9"/>
<path d="M120.04 48.0034C120.027 48.0034 120.013 48 120.001 48C114.486 48 110 52.4856 110 58C110 63.5144 114.486 68 120.001 68C125.514 68 130 63.5144 130 58C130 54.851 128.533 52.0394 126.249 50.2051L123.192 53.2629C124.713 54.2898 125.716 56.0301 125.716 58C125.716 61.1512 123.151 63.715 120.001 63.715C116.849 63.715 114.285 61.1512 114.285 58C114.285 54.851 116.849 52.2862 120.001 52.2862C120.013 52.2862 120.027 52.2875 120.04 52.2875V48.0034Z" fill="#E9E9E9"/>
<path d="M116.883 59.3098C116.62 59.4617 116.53 59.7981 116.682 60.0611C116.834 60.3242 117.17 60.4143 117.433 60.2624L116.883 59.3098ZM117.433 60.2624L120.588 58.4411L120.038 57.4885L116.883 59.3098L117.433 60.2624Z" fill="#E9E9E9"/>
<path d="M120.449 54.2646C120.449 54.0437 120.27 53.8646 120.049 53.8646C119.828 53.8646 119.649 54.0437 119.649 54.2646L120.449 54.2646ZM119.649 54.2646L119.649 58.128L120.449 58.128L120.449 54.2646L119.649 54.2646Z" fill="#E9E9E9"/>
<circle cx="120.017" cy="58.0254" r="1.29699" transform="rotate(-127 120.017 58.0254)" fill="#E9E9E9"/>
<path d="M140.04 19.0034C140.027 19.0034 140.013 19 140.001 19C134.486 19 130 23.4856 130 29C130 34.5144 134.486 39 140.001 39C145.514 39 150 34.5144 150 29C150 25.851 148.533 23.0394 146.249 21.2051L143.192 24.2629C144.713 25.2898 145.716 27.0301 145.716 29C145.716 32.1512 143.151 34.715 140.001 34.715C136.849 34.715 134.285 32.1512 134.285 29C134.285 25.851 136.849 23.2862 140.001 23.2862C140.013 23.2862 140.027 23.2875 140.04 23.2875V19.0034Z" fill="#E9E9E9"/>
<path d="M136.883 30.3098C136.62 30.4617 136.53 30.7981 136.682 31.0611C136.834 31.3242 137.17 31.4143 137.433 31.2624L136.883 30.3098ZM137.433 31.2624L140.588 29.4411L140.038 28.4885L136.883 30.3098L137.433 31.2624Z" fill="#E9E9E9"/>
<path d="M140.449 25.2646C140.449 25.0437 140.27 24.8646 140.049 24.8646C139.828 24.8646 139.649 25.0437 139.649 25.2646L140.449 25.2646ZM139.649 25.2646L139.649 29.128L140.449 29.128L140.449 25.2646L139.649 25.2646Z" fill="#E9E9E9"/>
<circle cx="140.017" cy="29.0254" r="1.29699" transform="rotate(-127 140.017 29.0254)" fill="#E9E9E9"/>
<path d="M169.997 58.0401C169.997 58.0267 170 58.0133 170 58.0007C170 52.4856 165.514 48 160 48C154.486 48 150 52.4856 150 58.0007C150 63.514 154.486 68 160 68C163.149 68 165.961 66.5335 167.795 64.2489L164.737 61.1918C163.71 62.7128 161.97 63.7161 160 63.7161C156.849 63.7161 154.285 61.1509 154.285 58.0007C154.285 54.8489 156.849 52.2849 160 52.2849C163.149 52.2849 165.714 54.8489 165.714 58.0007C165.714 58.0133 165.713 58.0267 165.713 58.0401H169.997Z" fill="#E9E9E9"/>
<path d="M158.691 54.8822C158.539 54.6192 158.203 54.529 157.94 54.6809C157.677 54.8328 157.587 55.1692 157.739 55.4322L158.691 54.8822ZM157.739 55.4322L159.56 58.5868L160.512 58.0368L158.691 54.8822L157.739 55.4322Z" fill="#E9E9E9"/>
<path d="M163.736 58.4479C163.957 58.4479 164.136 58.2688 164.136 58.0479C164.136 57.8269 163.957 57.6479 163.736 57.6479L163.736 58.4479ZM163.736 57.6479L159.873 57.6479L159.873 58.4479L163.736 58.4479L163.736 57.6479Z" fill="#E9E9E9"/>
<circle cx="159.975" cy="58.017" r="1.29699" transform="rotate(-37 159.975 58.017)" fill="#E9E9E9"/>
<path d="M169.997 0.0401472C169.997 0.0266774 170 0.0133 170 0.000662517C170 -5.5144 165.514 -10 160 -10C154.486 -10 150 -5.5144 150 0.000662517C150 5.51403 154.486 10 160 10C163.149 10 165.961 8.5335 167.795 6.24885L164.737 3.19181C163.71 4.71275 161.97 5.71608 160 5.71608C156.849 5.71608 154.285 3.15088 154.285 0.000662517C154.285 -3.15113 156.849 -5.71509 160 -5.71509C163.149 -5.71509 165.714 -3.15113 165.714 0.000662517C165.714 0.0133 165.713 0.0266774 165.713 0.0401472H169.997Z" fill="#E9E9E9"/>
<path d="M158.691 -3.11777C158.539 -3.38083 158.203 -3.47097 157.94 -3.31909C157.677 -3.16721 157.587 -2.83083 157.739 -2.56777L158.691 -3.11777ZM157.739 -2.56777L159.56 0.586817L160.512 0.0368173L158.691 -3.11777L157.739 -2.56777Z" fill="#E9E9E9"/>
<path d="M163.736 0.447852C163.957 0.447852 164.136 0.268765 164.136 0.0478516C164.136 -0.173062 163.957 -0.352148 163.736 -0.352148L163.736 0.447852ZM163.736 -0.352148L159.873 -0.352149L159.873 0.447851L163.736 0.447852L163.736 -0.352148Z" fill="#E9E9E9"/>
<circle cx="159.975" cy="0.0169929" r="1.29699" transform="rotate(-37 159.975 0.0169929)" fill="#E9E9E9"/>
<path d="M9.99661 58.0401C9.99661 58.0267 10 58.0133 10 58.0007C10 52.4856 5.51436 48 6.56473e-08 48C-5.51436 48 -10 52.4856 -10 58.0007C-10 63.514 -5.51436 68 6.56473e-08 68C3.14904 68 5.96062 66.5335 7.79494 64.2489L4.73712 61.1918C3.71025 62.7128 1.96992 63.7161 6.56473e-08 63.7161C-3.1512 63.7161 -5.71499 61.1509 -5.71499 58.0007C-5.71499 54.8489 -3.1512 52.2849 6.56473e-08 52.2849C3.14904 52.2849 5.71376 54.8489 5.71376 58.0007C5.71376 58.0133 5.71252 58.0267 5.71252 58.0401H9.99661Z" fill="#E9E9E9"/>
<path d="M-1.30884 54.8822C-1.46072 54.6192 -1.7971 54.529 -2.06016 54.6809C-2.32322 54.8328 -2.41335 55.1692 -2.26147 55.4322L-1.30884 54.8822ZM-2.26147 55.4322L-0.440166 58.5868L0.512462 58.0368L-1.30884 54.8822L-2.26147 55.4322Z" fill="#E9E9E9"/>
<path d="M3.73633 58.4479C3.95724 58.4479 4.13633 58.2688 4.13633 58.0479C4.13633 57.8269 3.95724 57.6479 3.73633 57.6479L3.73633 58.4479ZM3.73633 57.6479L-0.127044 57.6479L-0.127044 58.4479L3.73633 58.4479L3.73633 57.6479Z" fill="#E9E9E9"/>
<circle cx="-0.0254278" cy="58.017" r="1.29699" transform="rotate(-37 -0.0254278 58.017)" fill="#E9E9E9"/>
</g>
<defs>
<clipPath id="clip0_2983_946">
<rect width="160" height="58" fill="white"/>
</clipPath>
</defs>
</svg>
