<svg width="113" height="162" viewBox="0 0 113 162" fill="none" xmlns="http://www.w3.org/2000/svg">
<rect width="112.636" height="161.294" rx="4" fill="#EDEDED"/>
<path d="M83.3661 23.5269C82.9282 23.1247 82.3294 22.9192 81.5518 22.9192C80.6671 22.9192 79.827 23.1247 79.0137 23.5269V26.1276C79.2103 26.0561 79.4337 26.0204 79.6572 26.0204C79.9074 26.0204 80.1308 26.0651 80.3453 26.1455V24.1972C80.7028 24.1346 81.0514 24.0989 81.3731 24.0989C81.6591 24.0989 81.9004 24.1257 82.0791 24.1793C82.2668 24.233 82.4009 24.3134 82.4813 24.4206C82.5617 24.5279 82.6154 24.6351 82.6422 24.7334C82.669 24.8318 82.6869 24.9569 82.6869 25.1088V28.5496H84.0185V25.2161C84.0185 24.4921 83.804 23.9291 83.3661 23.5269Z" fill="#D6D6D6"/>
<path d="M30.3783 23.062L31.5759 27.1821L32.8271 23.062H34.3285L32.416 28.5763H30.843L30.28 26.9497L29.7884 25.1176L29.2969 26.9497L28.7339 28.5763H27.152L25.2305 23.062H26.7409L27.9921 27.1821L29.1807 23.062H30.3783Z" fill="#D6D6D6"/>
<path d="M42.0481 23.071L42.1464 23.7055C42.5664 23.0263 43.1384 22.928 43.6925 22.928C44.2556 22.928 44.8007 23.1514 45.1046 23.4463L44.4969 24.626C44.2198 24.3937 43.9606 24.2686 43.5227 24.2686C42.8077 24.2686 42.1553 24.6439 42.1553 25.6538V28.5405H40.7969V23.071H42.0481Z" fill="#D6D6D6"/>
<path d="M57.4416 21.5251C57.4416 22.5797 55.8418 22.5797 55.8418 21.5251C55.8418 20.4705 57.4416 20.4705 57.4416 21.5251ZM55.9669 23.0444V28.5408H57.3254V23.0444H55.9669Z" fill="#D6D6D6"/>
<path d="M59.8696 23.0439V28.5493C59.8696 29.9077 59.2797 30.7836 58.0464 30.7836C57.6442 30.7836 57.2241 30.6763 56.8398 30.4171L57.3314 29.3625C57.5638 29.4698 57.7872 29.5323 57.9838 29.5145C58.4307 29.4966 58.529 29.148 58.529 28.5493V23.0439H59.8696ZM58.4039 21.5157C58.4039 22.5703 60.0036 22.5703 60.0036 21.5157C60.0036 20.4611 58.4039 20.4611 58.4039 21.5157Z" fill="#D6D6D6"/>
<path d="M72.8848 28.5496V23.5269C73.6981 23.1247 74.5471 22.9192 75.4229 22.9192C76.1915 22.9192 76.7993 23.1247 77.2372 23.5269C77.6751 23.9291 77.8896 24.4921 77.8896 25.225V28.5496H76.558V25.1088C76.558 24.9569 76.549 24.8407 76.5222 24.7334C76.4954 24.6351 76.4418 24.5279 76.3613 24.4206C76.2809 24.3134 76.1468 24.233 75.9592 24.1793C75.7715 24.1257 75.5391 24.0989 75.2531 24.0989C74.9314 24.0989 74.5828 24.1346 74.2253 24.1972V28.5496H72.8848Z" fill="#D6D6D6"/>
<path d="M45.7773 28.5495H47.1269V26.0739L49.2718 28.5495H50.9073V28.4512L48.3602 25.6539L50.6481 23.0978V23.0174H49.0305L47.1269 25.2696V21.078H45.7773V28.5495Z" fill="#D6D6D6"/>
<path d="M64.2494 22.9907C63.9366 22.9371 63.6327 22.9013 63.3378 22.9013C62.5156 22.9013 61.89 23.1426 61.461 23.6163C61.0231 24.09 60.8086 24.7692 60.8086 25.6629C60.8086 26.1545 60.8712 26.5834 60.9963 26.9588C61.1214 27.3342 61.2733 27.6202 61.4521 27.8078C61.6308 28.0045 61.8453 28.1564 62.0866 28.2815C62.3279 28.4066 62.5424 28.4781 62.7212 28.5049C62.8999 28.5318 63.0786 28.5496 63.2663 28.5496C64.0528 28.5496 64.6337 28.3709 65.0091 28.0045C65.3934 27.638 65.5811 27.209 65.5811 26.7086V21.0781H64.2673V22.9907H64.2494ZM64.2494 26.8247C64.2494 27.218 63.9187 27.4146 63.2484 27.4146C62.8284 27.4146 62.5335 27.2716 62.3726 26.9856C62.2028 26.6996 62.1224 26.2349 62.1224 25.5914C62.1224 24.9747 62.2296 24.5458 62.4441 24.2955C62.6586 24.0542 62.9714 23.9291 63.3825 23.9291C63.7042 23.9291 63.9902 23.9648 64.2494 24.0185V26.8247Z" fill="#D6D6D6"/>
<path d="M52.2037 23.0174H51.2832V24.1524H52.2037V26.7353C52.2037 27.2983 52.3557 27.7452 52.6685 28.0669C52.9813 28.3886 53.4103 28.5495 53.9465 28.5495C53.9554 28.5495 53.9644 28.5495 53.9733 28.5495C54.2772 28.5495 54.5542 28.4959 54.8134 28.3886V27.2983C54.6347 27.3787 54.4202 27.4145 54.1878 27.4145C53.9376 27.4145 53.7677 27.3698 53.6694 27.2894C53.5711 27.2089 53.5175 27.0481 53.5175 26.8157V24.1524H54.8134V23.0263H53.5175V21.078H52.2037V23.0174Z" fill="#D6D6D6"/>
<path d="M80.463 27.8437C80.463 28.8983 78.8633 28.8983 78.8633 27.8437C78.8633 26.7891 80.463 26.7891 80.463 27.8437Z" fill="#D6D6D6"/>
<path d="M70.3993 25.8683H69.4877C69.4341 25.7075 69.2822 25.5913 69.0945 25.5913C69.0766 25.5913 69.0677 25.5913 69.0498 25.5913L68.6297 24.9031C68.5761 24.8138 68.451 24.778 68.3616 24.8406C68.2722 24.8942 68.2365 25.0193 68.2991 25.1087L68.728 25.8147C68.7012 25.8683 68.6834 25.9398 68.6834 26.0113C68.6834 26.2437 68.871 26.4224 69.0945 26.4224C69.2732 26.4224 69.4162 26.3152 69.4788 26.1633H70.3904C70.4708 26.1633 70.5334 26.1007 70.5334 26.0203C70.5512 25.9398 70.4797 25.8683 70.3993 25.8683Z" fill="#D6D6D6"/>
<path d="M72.1147 25.815V25.8061C72.1147 24.2063 70.8099 22.9104 69.2101 22.9104C67.6103 22.9104 66.3145 24.2152 66.3145 25.8061C66.3145 27.4058 67.6193 28.7017 69.2101 28.7017C70.1217 28.7017 70.935 28.2727 71.4712 27.6114L70.5864 26.7266C70.2915 27.1645 69.7821 27.4594 69.2101 27.4594C68.2985 27.4594 67.5567 26.7176 67.5567 25.8061C67.5567 24.8945 68.2985 24.1527 69.2101 24.1527C70.1217 24.1527 70.8635 24.8945 70.8635 25.8061V25.815H72.1147Z" fill="#D6D6D6"/>
<path d="M38.5653 25.8683H37.6537C37.6001 25.7075 37.4482 25.5913 37.2605 25.5913C37.2426 25.5913 37.2337 25.5913 37.2158 25.5913L36.7958 24.9031C36.7421 24.8138 36.617 24.778 36.5276 24.8406C36.4383 24.8942 36.4025 25.0193 36.4651 25.1087L36.8941 25.8147C36.8672 25.8773 36.8494 25.9398 36.8494 26.0113C36.8494 26.2437 37.0371 26.4224 37.2605 26.4224C37.4303 26.4224 37.5822 26.3152 37.6448 26.1633H38.5564C38.6368 26.1633 38.6994 26.1007 38.6994 26.0203C38.7083 25.9398 38.6458 25.8683 38.5653 25.8683Z" fill="#D6D6D6"/>
<path d="M40.2796 25.815V25.8061C40.2796 24.2063 38.9748 22.9104 37.3839 22.9104C35.7842 22.9104 34.4883 24.2152 34.4883 25.8061C34.4883 27.4058 35.7931 28.7017 37.3839 28.7017C38.2955 28.7017 39.1088 28.2727 39.645 27.6114L38.7603 26.7266C38.4653 27.1645 37.9559 27.4594 37.3839 27.4594C36.4723 27.4594 35.7306 26.7176 35.7306 25.8061C35.7306 24.8945 36.4723 24.1527 37.3839 24.1527C38.2955 24.1527 39.0373 24.8945 39.0373 25.8061V25.815H40.2796Z" fill="#D6D6D6"/>
<path d="M86.5046 21.0781H85.1641V28.5496H86.5046V21.0781Z" fill="#D6D6D6"/>
<path d="M29.2706 140.618C29.7086 141.02 30.3073 141.226 31.0849 141.226C31.9697 141.226 32.8098 141.02 33.623 140.618V138.017C33.4264 138.089 33.203 138.124 32.9796 138.124C32.7293 138.124 32.5059 138.08 32.2914 137.999V139.948C31.9339 140.01 31.5854 140.046 31.2636 140.046C30.9776 140.046 30.7363 140.019 30.5576 139.965C30.3699 139.912 30.2358 139.831 30.1554 139.724C30.075 139.617 30.0214 139.51 29.9945 139.411C29.9677 139.313 29.9499 139.188 29.9499 139.036V135.595H28.6182V138.929C28.6182 139.653 28.8327 140.216 29.2706 140.618Z" fill="#D6D6D6"/>
<path d="M82.2565 141.082L81.0589 136.962L79.8077 141.082H78.3062L80.2188 135.568H81.7917L82.3548 137.195L82.8463 139.027L83.3379 137.195L83.9009 135.568H85.4828L87.4043 141.082H85.8939L84.6427 136.962L83.4541 141.082H82.2565Z" fill="#D6D6D6"/>
<path d="M70.5847 141.073L70.4864 140.439C70.0664 141.118 69.4944 141.216 68.9403 141.216C68.3772 141.216 67.8321 140.993 67.5282 140.698L68.1359 139.518C68.413 139.751 68.6722 139.876 69.1101 139.876C69.8251 139.876 70.4775 139.5 70.4775 138.49V135.604H71.8359V141.073H70.5847Z" fill="#D6D6D6"/>
<path d="M55.1952 142.619C55.1952 141.565 56.7949 141.565 56.7949 142.619C56.7949 143.674 55.1952 143.674 55.1952 142.619ZM56.6698 141.1V135.604H55.3113V141.1H56.6698Z" fill="#D6D6D6"/>
<path d="M52.7652 141.1V135.595C52.7652 134.236 53.3551 133.361 54.5884 133.361C54.9906 133.361 55.4106 133.468 55.7949 133.727L55.3034 134.782C55.071 134.674 54.8476 134.612 54.651 134.63C54.2041 134.648 54.1058 134.996 54.1058 135.595V141.1H52.7652ZM54.2309 142.628C54.2309 141.574 52.6312 141.574 52.6312 142.628C52.6312 143.683 54.2309 143.683 54.2309 142.628Z" fill="#D6D6D6"/>
<path d="M39.752 135.595V140.618C38.9387 141.02 38.0896 141.225 37.2138 141.225C36.4452 141.225 35.8375 141.02 35.3995 140.618C34.9616 140.216 34.7471 139.653 34.7471 138.92V135.595H36.0788V139.036C36.0788 139.188 36.0877 139.304 36.1145 139.411C36.1413 139.51 36.1949 139.617 36.2754 139.724C36.3558 139.831 36.4899 139.912 36.6776 139.965C36.8652 140.019 37.0976 140.046 37.3836 140.046C37.7053 140.046 38.0539 140.01 38.4114 139.947V135.595H39.752Z" fill="#D6D6D6"/>
<path d="M66.8574 135.595H65.5079V138.071L63.363 135.595H61.7275V135.693L64.2746 138.491L61.9866 141.047V141.127H63.6043L65.5079 138.875V143.066H66.8574V135.595Z" fill="#D6D6D6"/>
<path d="M48.3853 141.154C48.6981 141.208 49.002 141.243 49.2969 141.243C50.1192 141.243 50.7448 141.002 51.1738 140.528C51.6117 140.055 51.8262 139.375 51.8262 138.482C51.8262 137.99 51.7636 137.561 51.6385 137.186C51.5134 136.81 51.3614 136.524 51.1827 136.337C51.0039 136.14 50.7895 135.988 50.5482 135.863C50.3068 135.738 50.0924 135.667 49.9136 135.64C49.7349 135.613 49.5561 135.595 49.3684 135.595C48.582 135.595 48.001 135.774 47.6257 136.14C47.2414 136.507 47.0537 136.936 47.0537 137.436V143.067H48.3675V141.154H48.3853ZM48.3853 137.32C48.3853 136.927 48.716 136.73 49.3863 136.73C49.8064 136.73 50.1013 136.873 50.2622 137.159C50.432 137.445 50.5124 137.91 50.5124 138.553C50.5124 139.17 50.4052 139.599 50.1907 139.849C49.9762 140.09 49.6634 140.216 49.2523 140.216C48.9305 140.216 48.6445 140.18 48.3853 140.126V137.32Z" fill="#D6D6D6"/>
<path d="M60.433 141.127H61.3535V139.992H60.433V137.409C60.433 136.846 60.2811 136.399 59.9682 136.078C59.6554 135.756 59.2265 135.595 58.6902 135.595C58.6813 135.595 58.6724 135.595 58.6634 135.595C58.3596 135.595 58.0825 135.649 57.8233 135.756V136.846C58.0021 136.766 58.2166 136.73 58.4489 136.73C58.6992 136.73 58.869 136.775 58.9673 136.855C59.0656 136.935 59.1192 137.096 59.1192 137.329V139.992H57.8233V141.118H59.1192V143.066H60.433V141.127Z" fill="#D6D6D6"/>
<path d="M32.1737 136.301C32.1737 135.246 33.7734 135.246 33.7734 136.301C33.7734 137.356 32.1737 137.356 32.1737 136.301Z" fill="#D6D6D6"/>
<path d="M42.2355 138.276H43.1471C43.2007 138.437 43.3526 138.553 43.5403 138.553C43.5582 138.553 43.5671 138.553 43.585 138.553L44.005 139.241C44.0587 139.331 44.1838 139.367 44.2731 139.304C44.3625 139.25 44.3983 139.125 44.3357 139.036L43.9067 138.33C43.9335 138.276 43.9514 138.205 43.9514 138.133C43.9514 137.901 43.7637 137.722 43.5403 137.722C43.3615 137.722 43.2186 137.829 43.156 137.981H42.2444C42.164 137.981 42.1014 138.044 42.1014 138.124C42.0835 138.205 42.155 138.276 42.2355 138.276Z" fill="#D6D6D6"/>
<path d="M40.5201 138.33V138.339C40.5201 139.938 41.8249 141.234 43.4247 141.234C45.0244 141.234 46.3203 139.93 46.3203 138.339C46.3203 136.739 45.0155 135.443 43.4247 135.443C42.5131 135.443 41.6998 135.872 41.1635 136.533L42.0483 137.418C42.3433 136.98 42.8527 136.685 43.4247 136.685C44.3363 136.685 45.078 137.427 45.078 138.339C45.078 139.25 44.3363 139.992 43.4247 139.992C42.5131 139.992 41.7713 139.25 41.7713 138.339V138.33H40.5201Z" fill="#D6D6D6"/>
<path d="M74.0734 138.276H74.9849C75.0386 138.437 75.1905 138.553 75.3782 138.553C75.3961 138.553 75.405 138.553 75.4229 138.553L75.8429 139.241C75.8965 139.331 76.0217 139.367 76.111 139.304C76.2004 139.25 76.2362 139.125 76.1736 139.036L75.7446 138.33C75.7714 138.267 75.7893 138.205 75.7893 138.133C75.7893 137.901 75.6016 137.722 75.3782 137.722C75.2084 137.722 75.0564 137.829 74.9939 137.981H74.0823C74.0019 137.981 73.9393 138.044 73.9393 138.124C73.9304 138.205 73.9929 138.276 74.0734 138.276Z" fill="#D6D6D6"/>
<path d="M72.3552 138.33V138.339C72.3552 139.938 73.66 141.234 75.2508 141.234C76.8506 141.234 78.1465 139.93 78.1465 138.339C78.1465 136.739 76.8417 135.443 75.2508 135.443C74.3392 135.443 73.526 135.872 72.9897 136.533L73.8745 137.418C74.1694 136.98 74.6788 136.685 75.2508 136.685C76.1624 136.685 76.9042 137.427 76.9042 138.339C76.9042 139.25 76.1624 139.992 75.2508 139.992C74.3392 139.992 73.5974 139.25 73.5974 138.339V138.33H72.3552Z" fill="#D6D6D6"/>
<path d="M26.1301 143.066H27.4707V135.595H26.1301V143.066Z" fill="#D6D6D6"/>
<g clip-path="url(#clip0_1721_634)">
<path d="M88 114.1C88 116.253 86.2534 118 84.1 118H26.9C24.7465 118 23 116.253 23 114.1V63.4C23 61.2465 24.7465 59.5 26.9 59.5H84.1C86.2534 59.5 88 61.2465 88 63.4V114.1Z" fill="#27AE60"/>
<path fill-rule="evenodd" clip-rule="evenodd" d="M76.2992 109.55C76.2992 110.268 75.7168 110.85 74.9992 110.85H35.9992C35.2816 110.85 34.6992 110.268 34.6992 109.55V64.7C34.6992 63.9824 35.2816 63.4 35.9992 63.4H74.9992C75.7168 63.4 76.2992 63.9824 76.2992 64.7V109.55Z" fill="white"/>
<path fill-rule="evenodd" clip-rule="evenodd" d="M69.8 66H41.2C40.123 66 39.25 65.127 39.25 64.05V59.5C39.25 58.4229 40.123 57.55 41.2 57.55H50.95C50.95 55.0371 52.9871 53 55.5 53C58.0129 53 60.05 55.0371 60.05 57.55H69.8C70.877 57.55 71.75 58.4229 71.75 59.5V64.05C71.75 65.127 70.877 66 69.8 66ZM55.5 55.6C54.4229 55.6 53.55 56.4736 53.55 57.55C53.55 58.627 54.4229 59.5 55.5 59.5C56.577 59.5 57.45 58.627 57.45 57.55C57.45 56.4736 56.577 55.6 55.5 55.6Z" fill="#BDC3C7"/>
<path fill-rule="evenodd" clip-rule="evenodd" d="M69.8 66H41.2C40.1236 66 39.25 65.127 39.25 64.05V62.75C39.25 63.827 40.1236 64.7 41.2 64.7H69.8C70.8764 64.7 71.75 63.827 71.75 62.75V64.05C71.75 65.127 70.8764 66 69.8 66Z" fill="#A1A6A9"/>
<path opacity="0.15" fill-rule="evenodd" clip-rule="evenodd" d="M84.1 116.05H26.9C24.7465 116.05 23 114.303 23 112.15V114.1C23 116.253 24.7465 118 26.9 118H84.1C86.2534 118 88 116.253 88 114.1V112.15C88 114.303 86.2534 116.05 84.1 116.05Z" fill="black"/>
<path fill-rule="evenodd" clip-rule="evenodd" d="M49.6492 79.6494V81.5994H69.7992V79.6494H49.6492ZM49.6492 88.75H69.7992V86.7994H49.6492V88.75ZM49.6492 95.8987H69.7992V93.9494H49.6492V95.8987ZM49.6492 103.049H69.7992V101.099H49.6492V103.049ZM41.1992 82.8994H45.7492V78.3494H41.1992V82.8994ZM41.1992 90.0494H45.7492V85.4994H41.1992V90.0494ZM41.1992 97.1994H45.7492V92.6494H41.1992V97.1994ZM41.1992 104.35H45.7492V99.7994H41.1992V104.35Z" fill="#BDC3C7"/>
<path fill-rule="evenodd" clip-rule="evenodd" d="M49.6492 71.85V73.8007H69.7992V71.85H49.6492ZM46.3518 71.0609L45.8916 70.5975C45.8285 70.5338 45.7252 70.5338 45.6615 70.5975L43.2383 73.0044C43.1746 73.0688 43.0712 73.0688 43.0082 73.0044L41.9467 71.9254C41.9155 71.8936 41.8739 71.8786 41.833 71.878C41.7914 71.878 41.7485 71.8929 41.7166 71.9254L41.2473 72.3466C41.2161 72.3785 41.1992 72.4181 41.1992 72.4604L41.2064 72.4955H41.1992V73.1442H41.2064L41.2473 73.2267L42.3179 74.348L42.548 74.5787L43.0082 75.0422C43.0712 75.1059 43.1746 75.1059 43.2383 75.0422L46.3518 71.941L46.3953 71.8474H46.3992V71.1987H46.3953C46.4018 71.1493 46.3888 71.098 46.3518 71.0609Z" fill="#27AE60"/>
<path fill-rule="evenodd" clip-rule="evenodd" d="M55.4995 55.6C56.3477 55.6 57.0614 56.1441 57.3299 56.9C57.4027 56.6966 57.4495 56.4801 57.4495 56.2507C57.4495 55.1736 56.5759 54.3007 55.4995 54.3007C54.4224 54.3007 53.5488 55.1736 53.5488 56.2507C53.5488 56.4801 53.5956 56.6966 53.6684 56.9007C53.9369 56.1447 54.6512 55.6 55.4995 55.6Z" fill="#A1A6A9"/>
</g>
<defs>
<clipPath id="clip0_1721_634">
<rect width="65" height="65" fill="white" transform="translate(23 53)"/>
</clipPath>
</defs>
</svg>
