<svg width="113" height="162" viewBox="0 0 113 162" fill="none" xmlns="http://www.w3.org/2000/svg">
<rect x="0.144531" y="0.705811" width="112.636" height="161.294" rx="4" fill="#009F66"/>
<path d="M11.8965 9.72365L11.4011 11.0847C11.1187 11.0725 10.8532 11.2328 10.7512 11.513C10.7415 11.5397 10.7367 11.553 10.7269 11.5797L9.41518 11.8125C9.24533 11.8413 9.12105 12.0077 9.17098 12.177C9.20685 12.3411 9.38442 12.4662 9.55913 12.424L10.9039 12.1881C10.9738 12.2589 11.0766 12.3265 11.1892 12.3675C11.5551 12.5007 11.9385 12.3229 12.0599 11.9893C12.157 11.7225 12.0659 11.4475 11.8606 11.267L12.356 9.90601C12.3997 9.78592 12.3352 9.65667 12.2086 9.61057C12.0916 9.53779 11.9402 9.60356 11.8965 9.72365Z" fill="#007950"/>
<path d="M11.9044 7.2619L11.8926 7.25762C9.78754 6.49143 7.45832 7.58513 6.69331 9.68698C5.9283 11.7888 7.0256 14.1164 9.11894 14.8783C11.224 15.6445 13.5533 14.5508 14.314 12.4607C14.7499 11.263 14.5743 9.98898 13.9605 8.9677L12.3731 9.70641C12.8084 10.3036 12.9528 11.1142 12.6793 11.8657C12.2434 13.0634 10.9125 13.6827 9.713 13.2461C8.51344 12.8095 7.89206 11.4797 8.32799 10.282C8.76392 9.08426 10.0948 8.46493 11.2943 8.90153L11.3061 8.90581L11.9044 7.2619Z" fill="#007950"/>
<path d="M23.7812 12.5556L24.0327 11.1293C24.3129 11.0922 24.5466 10.8882 24.5983 10.5946C24.6033 10.5666 24.6057 10.5526 24.6107 10.5246L25.8621 10.0676C26.0244 10.0097 26.1179 9.82435 26.0393 9.66631C25.9755 9.51087 25.7789 9.41852 25.6141 9.49041L24.3308 9.95622C24.2497 9.89866 24.1366 9.84989 24.0187 9.82909C23.6352 9.76148 23.2885 10.0031 23.2269 10.3527C23.1775 10.6324 23.3151 10.8874 23.5485 11.0295L23.297 12.4558C23.2748 12.5817 23.3608 12.6978 23.4935 12.7212C23.6213 12.7725 23.759 12.6815 23.7812 12.5556Z" fill="#007950"/>
<path d="M23.3049 15.0591L23.3172 15.0612C25.5234 15.4503 27.6273 13.9687 28.0157 11.7659C28.4041 9.56317 26.9193 7.46152 24.7255 7.07469C22.5193 6.68568 20.4154 8.16723 20.0292 10.3577C19.8078 11.6129 20.202 12.8371 20.9838 13.7362L22.4188 12.7331C21.8865 12.2205 21.6034 11.4473 21.7423 10.6598C21.9636 9.40456 23.1667 8.56354 24.4239 8.78521C25.681 9.00688 26.5239 10.2087 26.3025 11.4639C26.0812 12.7191 24.8781 13.5601 23.621 13.3384L23.6087 13.3362L23.3049 15.0591Z" fill="#007950"/>
<path d="M39.1493 12.2266L37.895 11.5024C37.9559 11.2264 37.8442 10.9371 37.586 10.788C37.5614 10.7738 37.5491 10.7667 37.5245 10.7525L37.523 9.42026C37.5241 9.24797 37.3819 9.0967 37.2065 9.11648C37.0386 9.1233 36.8846 9.27645 36.8958 9.45584L36.8946 10.8211C36.8128 10.8776 36.7283 10.9672 36.6684 11.0709C36.4737 11.4081 36.5822 11.8166 36.8897 11.9941C37.1356 12.1361 37.4222 12.0941 37.6356 11.9233L38.8899 12.6475C39.0006 12.7114 39.1391 12.6703 39.2065 12.5536C39.2984 12.4511 39.26 12.2905 39.1493 12.2266Z" fill="#007950"/>
<path d="M41.0423 13.1066L41.0486 13.0958C42.1687 11.1557 41.496 8.67199 39.559 7.55361C37.6219 6.43524 35.1391 7.1117 34.0253 9.04093C32.9052 10.981 33.5778 13.4648 35.5041 14.5769C36.6079 15.2142 37.893 15.2625 39.0054 14.8353L38.5535 13.1438C37.8898 13.4687 37.0665 13.4702 36.3739 13.0703C35.2701 12.4331 34.8912 11.0149 35.5295 9.90939C36.1678 8.80387 37.5853 8.42286 38.6892 9.06015C39.793 9.69743 40.1718 11.1156 39.5335 12.2211L39.5273 12.2319L41.0423 13.1066Z" fill="#007950"/>
<path d="M53.5145 9.58199L54.4455 10.6915C54.2938 10.93 54.2999 11.2401 54.4915 11.4685C54.5098 11.4903 54.5189 11.5011 54.5372 11.5229L54.0829 12.7753C54.0229 12.9368 54.1048 13.1276 54.2764 13.169C54.4365 13.22 54.6336 13.1288 54.6844 12.9564L55.1525 11.6739C55.2487 11.6487 55.3588 11.5935 55.4505 11.5165C55.7488 11.2662 55.7865 10.8453 55.5584 10.5733C55.3758 10.3558 55.0921 10.2973 54.8332 10.3847L53.9022 9.27523C53.8201 9.17733 53.6759 9.16857 53.5726 9.25519C53.4511 9.32007 53.4324 9.48409 53.5145 9.58199Z" fill="#007950"/>
<path d="M71.3692 9.72365L70.8738 11.0847C70.5914 11.0725 70.3259 11.2328 70.2239 11.513C70.2142 11.5397 70.2093 11.553 70.1996 11.5797L68.8878 11.8125C68.718 11.8413 68.5937 12.0077 68.6436 12.177C68.6795 12.3411 68.8571 12.4662 69.0318 12.424L70.3766 12.1881C70.4464 12.2589 70.5493 12.3265 70.6618 12.3675C71.0277 12.5007 71.4111 12.3229 71.5325 11.9893C71.6297 11.7225 71.5385 11.4475 71.3333 11.267L71.8287 9.90601C71.8724 9.78592 71.8079 9.65667 71.6812 9.61057C71.5643 9.53779 71.4129 9.60356 71.3692 9.72365Z" fill="#007950"/>
<path d="M85.955 12.5554L86.2065 11.129C86.4868 11.0919 86.7204 10.888 86.7722 10.5943C86.7771 10.5664 86.7796 10.5524 86.7845 10.5244L88.0359 10.0674C88.1982 10.0095 88.2917 9.82411 88.2131 9.66606C88.1493 9.51062 87.9527 9.41828 87.788 9.49017L86.5046 9.95597C86.4235 9.89842 86.3105 9.84965 86.1925 9.82885C85.8091 9.76124 85.4623 10.0029 85.4007 10.3525C85.3514 10.6322 85.4889 10.8871 85.7223 11.0292L85.4708 12.4556C85.4486 12.5814 85.5346 12.6975 85.6673 12.7209C85.7951 12.7723 85.9328 12.6812 85.955 12.5554Z" fill="#007950"/>
<path d="M104.501 10.9235L103.14 11.4188C102.967 11.1947 102.674 11.0943 102.394 11.1963C102.367 11.206 102.354 11.2109 102.327 11.2206L101.306 10.3653C101.174 10.2538 100.967 10.2655 100.869 10.4125C100.767 10.5455 100.785 10.7619 100.93 10.8687L101.975 11.7472C101.965 11.8462 101.98 11.9685 102.021 12.0811C102.154 12.4469 102.536 12.6264 102.87 12.5049C103.137 12.4078 103.289 12.1613 103.295 11.888L104.656 11.3927C104.776 11.349 104.834 11.2165 104.788 11.0898C104.768 10.9535 104.621 10.8797 104.501 10.9235Z" fill="#007950"/>
<path d="M51.1608 7.9536L51.1512 7.96165C49.4351 9.40162 49.2176 11.9656 50.6554 13.6791C52.0932 15.3925 54.6575 15.606 56.364 14.1741C58.0801 12.7341 58.2976 10.1701 56.8678 8.46623C56.0486 7.48985 54.8575 7.00491 53.6661 7.02586L53.5121 8.76993C54.247 8.69163 55.0212 8.97179 55.5352 9.58442C56.3545 10.5608 56.2255 12.023 55.2476 12.8435C54.2697 13.6641 52.8073 13.5373 51.988 12.5609C51.1687 11.5845 51.2978 10.1223 52.2757 9.30177L52.2853 9.29373L51.1608 7.9536Z" fill="#007950"/>
<path d="M71.3751 7.2619L71.3633 7.25762C69.2582 6.49143 66.929 7.58513 66.164 9.68698C65.399 11.7888 66.4963 14.1164 68.5896 14.8783C70.6947 15.6445 73.024 14.5508 73.7847 12.4607C74.2206 11.263 74.045 9.98898 73.4312 8.9677L71.8438 9.70641C72.2791 10.3036 72.4235 11.1142 72.15 11.8657C71.7141 13.0634 70.3833 13.6827 69.1837 13.2461C67.9841 12.8095 67.3628 11.4797 67.7987 10.282C68.2346 9.08426 69.5655 8.46493 70.765 8.90153L70.7768 8.90581L71.3751 7.2619Z" fill="#007950"/>
<path d="M85.4787 15.0591L85.4911 15.0612C87.6972 15.4503 89.8011 13.9687 90.1895 11.7659C90.5779 9.56317 89.0931 7.46152 86.8993 7.07469C84.6931 6.68568 82.5892 8.16723 82.203 10.3577C81.9817 11.6129 82.3758 12.8371 83.1576 13.7362L84.5926 12.7331C84.0603 12.2205 83.7773 11.4473 83.9161 10.6598C84.1375 9.40456 85.3405 8.56354 86.5977 8.78521C87.8548 9.00688 88.6977 10.2087 88.4764 11.4639C88.255 12.7191 87.052 13.5601 85.7948 13.3384L85.7825 13.3362L85.4787 15.0591Z" fill="#007950"/>
<path d="M106.231 9.69318L106.226 9.68142C105.46 7.57632 103.125 6.49505 101.023 7.26006C98.9214 8.02507 97.8437 10.3618 98.6056 12.4551C99.3718 14.5602 101.707 15.6415 103.797 14.8807C104.995 14.4448 105.858 13.4914 106.245 12.3647L104.659 11.6235C104.482 12.3408 103.953 12.9725 103.202 13.2461C102.004 13.682 100.674 13.0606 100.238 11.8611C99.8012 10.6615 100.42 9.33067 101.618 8.89475C102.816 8.45882 104.146 9.0802 104.582 10.2797L104.587 10.2915L106.231 9.69318Z" fill="#007950"/>
<path d="M11.8965 23.9971L11.4011 25.3581C11.1187 25.346 10.8532 25.5062 10.7512 25.7864C10.7415 25.8131 10.7367 25.8265 10.7269 25.8532L9.41518 26.0859C9.24533 26.1148 9.12105 26.2811 9.17098 26.4504C9.20685 26.6146 9.38442 26.7396 9.55913 26.6974L10.9039 26.4616C10.9738 26.5323 11.0766 26.6 11.1892 26.641C11.5551 26.7741 11.9385 26.5963 12.0599 26.2628C12.157 25.9959 12.0659 25.7209 11.8606 25.5405L12.356 24.1794C12.3997 24.0594 12.3352 23.9301 12.2086 23.884C12.0916 23.8112 11.9402 23.877 11.8965 23.9971Z" fill="#007950"/>
<path d="M11.9044 21.5353L11.8926 21.5311C9.78754 20.7649 7.45832 21.8586 6.69331 23.9604C5.9283 26.0623 7.0256 28.3898 9.11894 29.1517C11.224 29.9179 13.5533 28.8242 14.314 26.7341C14.7499 25.5364 14.5743 24.2624 13.9605 23.2411L12.3731 23.9799C12.8084 24.5771 12.9528 25.3876 12.6793 26.1391C12.2434 27.3369 10.9125 27.9562 9.713 27.5196C8.51344 27.083 7.89206 25.7531 8.32799 24.5554C8.76392 23.3577 10.0948 22.7384 11.2943 23.175L11.3061 23.1792L11.9044 21.5353Z" fill="#007950"/>
<path d="M104.501 25.1969L103.14 25.6923C102.967 25.4681 102.674 25.3677 102.394 25.4697C102.367 25.4794 102.354 25.4843 102.327 25.494L101.306 24.6388C101.174 24.5272 100.967 24.5389 100.869 24.686C100.767 24.819 100.785 25.0354 100.93 25.1421L101.975 26.0206C101.965 26.1196 101.98 26.2419 102.021 26.3545C102.154 26.7204 102.536 26.8998 102.87 26.7784C103.137 26.6813 103.289 26.4347 103.295 26.1615L104.656 25.6661C104.776 25.6224 104.834 25.4899 104.788 25.3633C104.768 25.2269 104.621 25.1532 104.501 25.1969Z" fill="#007950"/>
<path d="M106.231 23.9659L106.226 23.9541C105.46 21.849 103.125 20.7678 101.023 21.5328C98.9214 22.2978 97.8437 24.6345 98.6056 26.7278C99.3718 28.8329 101.707 29.9142 103.797 29.1535C104.995 28.7175 105.858 27.7641 106.245 26.6374L104.659 25.8963C104.482 26.6135 103.953 27.2452 103.202 27.5188C102.004 27.9547 100.674 27.3333 100.238 26.1338C99.8012 24.9342 100.42 23.6034 101.618 23.1675C102.816 22.7315 104.146 23.3529 104.582 24.5525L104.587 24.5642L106.231 23.9659Z" fill="#007950"/>
<path d="M11.8965 38.27L11.4011 39.6311C11.1187 39.6189 10.8532 39.7792 10.7512 40.0594C10.7415 40.0861 10.7367 40.0994 10.7269 40.1261L9.41518 40.3589C9.24533 40.3877 9.12105 40.5541 9.17098 40.7233C9.20685 40.8875 9.38442 41.0126 9.55913 40.9704L10.9039 40.7345C10.9738 40.8053 11.0766 40.8729 11.1892 40.9139C11.5551 41.0471 11.9385 40.8693 12.0599 40.5357C12.157 40.2688 12.0659 39.9939 11.8606 39.8134L12.356 38.4524C12.3997 38.3323 12.3352 38.2031 12.2086 38.157C12.0916 38.0842 11.9402 38.15 11.8965 38.27Z" fill="#007950"/>
<path d="M11.9044 35.8083L11.8926 35.804C9.78754 35.0378 7.45832 36.1315 6.69331 38.2334C5.9283 40.3352 7.0256 42.6628 9.11894 43.4247C11.224 44.1909 13.5533 43.0972 14.314 41.0071C14.7499 39.8094 14.5743 38.5354 13.9605 37.5141L12.3731 38.2528C12.8084 38.85 12.9528 39.6606 12.6793 40.4121C12.2434 41.6098 10.9125 42.2291 9.713 41.7925C8.51344 41.3559 7.89206 40.0261 8.32799 38.8283C8.76392 37.6306 10.0948 37.0113 11.2943 37.4479L11.3061 37.4522L11.9044 35.8083Z" fill="#007950"/>
<path d="M23.7812 41.102L24.0327 39.6756C24.3129 39.6385 24.5466 39.4346 24.5983 39.141C24.6033 39.113 24.6057 39.099 24.6107 39.071L25.8621 38.614C26.0244 38.5561 26.1179 38.3707 26.0393 38.2127C25.9755 38.0573 25.7789 37.9649 25.6141 38.0368L24.3308 38.5026C24.2497 38.4451 24.1366 38.3963 24.0187 38.3755C23.6352 38.3079 23.2885 38.5495 23.2269 38.8991C23.1775 39.1788 23.3151 39.4338 23.5485 39.5758L23.297 41.0022C23.2748 41.1281 23.3608 41.2442 23.4935 41.2676C23.6213 41.3189 23.759 41.2279 23.7812 41.102Z" fill="#007950"/>
<path d="M23.3049 43.6055L23.3172 43.6076C25.5234 43.9966 27.6273 42.5151 28.0157 40.3123C28.4041 38.1096 26.9193 36.0079 24.7255 35.6211C22.5193 35.2321 20.4154 36.7136 20.0292 38.9041C19.8078 40.1593 20.202 41.3834 20.9838 42.2826L22.4188 41.2795C21.8865 40.7669 21.6034 39.9937 21.7423 39.2062C21.9636 37.9509 23.1667 37.1099 24.4239 37.3316C25.681 37.5533 26.5239 38.755 26.3025 40.0102C26.0812 41.2655 24.8781 42.1065 23.621 41.8848L23.6087 41.8826L23.3049 43.6055Z" fill="#007950"/>
<path d="M39.1493 40.773L37.895 40.0488C37.9559 39.7728 37.8442 39.4835 37.586 39.3344C37.5614 39.3202 37.5491 39.3131 37.5245 39.2989L37.523 37.9666C37.5241 37.7944 37.3819 37.6431 37.2065 37.6629C37.0386 37.6697 36.8846 37.8228 36.8958 38.0022L36.8946 39.3675C36.8128 39.424 36.7283 39.5136 36.6684 39.6173C36.4737 39.9545 36.5822 40.363 36.8897 40.5405C37.1356 40.6825 37.4222 40.6404 37.6356 40.4697L38.8899 41.1939C39.0006 41.2578 39.1391 41.2167 39.2065 41.1C39.2984 40.9974 39.26 40.8369 39.1493 40.773Z" fill="#007950"/>
<path d="M41.0423 41.653L41.0486 41.6422C42.1687 39.7021 41.496 37.2184 39.559 36.1C37.6219 34.9816 35.1391 35.6581 34.0253 37.5873C32.9052 39.5274 33.5778 42.0111 35.5041 43.1233C36.6079 43.7605 37.893 43.8089 39.0054 43.3817L38.5535 41.6902C37.8898 42.0151 37.0665 42.0166 36.3739 41.6167C35.2701 40.9794 34.8912 39.5613 35.5295 38.4558C36.1678 37.3503 37.5853 36.9692 38.6892 37.6065C39.793 38.2438 40.1718 39.662 39.5335 40.7675L39.5273 40.7783L41.0423 41.653Z" fill="#007950"/>
<path d="M53.5145 38.1284L54.4455 39.2379C54.2938 39.4764 54.2999 39.7865 54.4915 40.0149C54.5098 40.0367 54.5189 40.0475 54.5372 40.0693L54.0829 41.3217C54.0229 41.4832 54.1048 41.674 54.2764 41.7154C54.4365 41.7664 54.6336 41.6752 54.6844 41.5028L55.1525 40.2202C55.2487 40.1951 55.3588 40.1399 55.4505 40.0629C55.7488 39.8126 55.7865 39.3917 55.5584 39.1197C55.3758 38.9022 55.0921 38.8436 54.8332 38.9311L53.9022 37.8216C53.8201 37.7237 53.6759 37.715 53.5726 37.8016C53.4511 37.8665 53.4324 38.0305 53.5145 38.1284Z" fill="#007950"/>
<path d="M71.3692 38.27L70.8738 39.6311C70.5914 39.6189 70.3259 39.7792 70.2239 40.0594C70.2142 40.0861 70.2093 40.0994 70.1996 40.1261L68.8878 40.3589C68.718 40.3877 68.5937 40.5541 68.6436 40.7233C68.6795 40.8875 68.8571 41.0126 69.0318 40.9704L70.3766 40.7345C70.4464 40.8053 70.5493 40.8729 70.6618 40.9139C71.0277 41.0471 71.4111 40.8693 71.5325 40.5357C71.6297 40.2688 71.5385 39.9939 71.3333 39.8134L71.8287 38.4524C71.8724 38.3323 71.8079 38.2031 71.6812 38.157C71.5643 38.0842 71.4129 38.15 71.3692 38.27Z" fill="#007950"/>
<path d="M85.955 41.1018L86.2065 39.6754C86.4868 39.6383 86.7204 39.4344 86.7722 39.1407C86.7771 39.1127 86.7796 39.0988 86.7845 39.0708L88.0359 38.6138C88.1982 38.5559 88.2917 38.3705 88.2131 38.2125C88.1493 38.057 87.9527 37.9647 87.788 38.0366L86.5046 38.5024C86.4235 38.4448 86.3105 38.396 86.1925 38.3752C85.8091 38.3076 85.4623 38.5493 85.4007 38.8989C85.3514 39.1786 85.4889 39.4335 85.7223 39.5756L85.4708 41.002C85.4486 41.1278 85.5346 41.2439 85.6673 41.2673C85.7951 41.3187 85.9328 41.2276 85.955 41.1018Z" fill="#007950"/>
<path d="M104.501 39.4698L103.14 39.9652C102.967 39.7411 102.674 39.6407 102.394 39.7427C102.367 39.7524 102.354 39.7573 102.327 39.767L101.306 38.9117C101.174 38.8001 100.967 38.8118 100.869 38.9589C100.767 39.0919 100.785 39.3083 100.93 39.4151L101.975 40.2936C101.965 40.3926 101.98 40.5149 102.021 40.6274C102.154 40.9933 102.536 41.1727 102.87 41.0513C103.137 40.9542 103.289 40.7076 103.295 40.4344L104.656 39.9391C104.776 39.8953 104.834 39.7628 104.788 39.6362C104.768 39.4998 104.621 39.4261 104.501 39.4698Z" fill="#007950"/>
<path d="M51.1608 36.5L51.1512 36.508C49.4351 37.948 49.2176 40.512 50.6554 42.2255C52.0932 43.9389 54.6575 44.1524 56.364 42.7205C58.0801 41.2805 58.2976 38.7165 56.8678 37.0126C56.0486 36.0362 54.8575 35.5513 53.6661 35.5722L53.5121 37.3163C54.247 37.238 55.0212 37.5182 55.5352 38.1308C56.3545 39.1072 56.2255 40.5694 55.2476 41.3899C54.2697 42.2105 52.8073 42.0837 51.988 41.1073C51.1687 40.1309 51.2978 38.6687 52.2757 37.8482L52.2853 37.8401L51.1608 36.5Z" fill="#007950"/>
<path d="M71.3751 35.8083L71.3633 35.804C69.2582 35.0378 66.929 36.1315 66.164 38.2334C65.399 40.3352 66.4963 42.6628 68.5896 43.4247C70.6947 44.1909 73.024 43.0972 73.7847 41.0071C74.2206 39.8094 74.045 38.5354 73.4312 37.5141L71.8438 38.2528C72.2791 38.85 72.4235 39.6606 72.15 40.4121C71.7141 41.6098 70.3833 42.2291 69.1837 41.7925C67.9841 41.3559 67.3628 40.0261 67.7987 38.8283C68.2346 37.6306 69.5655 37.0113 70.765 37.4479L70.7768 37.4522L71.3751 35.8083Z" fill="#007950"/>
<path d="M85.4787 43.6055L85.4911 43.6076C87.6972 43.9966 89.8011 42.5151 90.1895 40.3123C90.5779 38.1096 89.0931 36.0079 86.8993 35.6211C84.6931 35.2321 82.5892 36.7136 82.203 38.9041C81.9817 40.1593 82.3758 41.3834 83.1576 42.2826L84.5926 41.2795C84.0603 40.7669 83.7773 39.9937 83.9161 39.2062C84.1375 37.9509 85.3405 37.1099 86.5977 37.3316C87.8548 37.5533 88.6977 38.755 88.4764 40.0102C88.255 41.2655 87.052 42.1065 85.7948 41.8848L85.7825 41.8826L85.4787 43.6055Z" fill="#007950"/>
<path d="M106.231 38.2396L106.226 38.2278C105.46 36.1227 103.125 35.0414 101.023 35.8064C98.9214 36.5715 97.8437 38.9082 98.6056 41.0015C99.3718 43.1066 101.707 44.1879 103.797 43.4271C104.995 42.9912 105.858 42.0378 106.245 40.9111L104.659 40.1699C104.482 40.8872 103.953 41.5189 103.202 41.7925C102.004 42.2284 100.674 41.607 100.238 40.4074C99.8012 39.2079 100.42 37.8771 101.618 37.4411C102.816 37.0052 104.146 37.6266 104.582 38.8261L104.587 38.8379L106.231 38.2396Z" fill="#007950"/>
<path d="M11.8965 52.543L11.4011 53.904C11.1187 53.8919 10.8532 54.0521 10.7512 54.3323C10.7415 54.359 10.7367 54.3724 10.7269 54.3991L9.41518 54.6318C9.24533 54.6607 9.12105 54.827 9.17098 54.9963C9.20685 55.1604 9.38442 55.2855 9.55913 55.2433L10.9039 55.0075C10.9738 55.0782 11.0766 55.1459 11.1892 55.1869C11.5551 55.32 11.9385 55.1422 12.0599 54.8087C12.157 54.5418 12.0659 54.2668 11.8606 54.0864L12.356 52.7253C12.3997 52.6053 12.3352 52.476 12.2086 52.4299C12.0916 52.3571 11.9402 52.4229 11.8965 52.543Z" fill="#007950"/>
<path d="M11.9044 50.0812L11.8926 50.077C9.78754 49.3108 7.45832 50.4045 6.69331 52.5063C5.9283 54.6082 7.0256 56.9357 9.11894 57.6976C11.224 58.4638 13.5533 57.3701 14.314 55.28C14.7499 54.0823 14.5743 52.8083 13.9605 51.787L12.3731 52.5258C12.8084 53.123 12.9528 53.9335 12.6793 54.685C12.2434 55.8828 10.9125 56.5021 9.713 56.0655C8.51344 55.6289 7.89206 54.299 8.32799 53.1013C8.76392 51.9036 10.0948 51.2843 11.2943 51.7209L11.3061 51.7251L11.9044 50.0812Z" fill="#007950"/>
<path d="M23.7812 55.375L24.0327 53.9486C24.3129 53.9115 24.5466 53.7076 24.5983 53.4139C24.6033 53.3859 24.6057 53.372 24.6107 53.344L25.8621 52.887C26.0244 52.8291 26.1179 52.6437 26.0393 52.4856C25.9755 52.3302 25.7789 52.2379 25.6141 52.3097L24.3308 52.7756C24.2497 52.718 24.1366 52.6692 24.0187 52.6484C23.6352 52.5808 23.2885 52.8225 23.2269 53.1721C23.1775 53.4518 23.3151 53.7067 23.5485 53.8488L23.297 55.2752C23.2748 55.401 23.3608 55.5171 23.4935 55.5405C23.6213 55.5919 23.759 55.5008 23.7812 55.375Z" fill="#007950"/>
<path d="M23.3049 57.8784L23.3172 57.8806C25.5234 58.2696 27.6273 56.788 28.0157 54.5853C28.4041 52.3825 26.9193 50.2809 24.7255 49.894C22.5193 49.505 20.4154 50.9866 20.0292 53.177C19.8078 54.4322 20.202 55.6564 20.9838 56.5556L22.4188 55.5524C21.8865 55.0398 21.6034 54.2667 21.7423 53.4791C21.9636 52.2239 23.1667 51.3829 24.4239 51.6045C25.681 51.8262 26.5239 53.028 26.3025 54.2832C26.0812 55.5384 24.8781 56.3794 23.621 56.1577L23.6087 56.1556L23.3049 57.8784Z" fill="#007950"/>
<path d="M39.1493 55.046L37.895 54.3218C37.9559 54.0457 37.8442 53.7565 37.586 53.6074C37.5614 53.5932 37.5491 53.5861 37.5245 53.5719L37.523 52.2396C37.5241 52.0673 37.3819 51.916 37.2065 51.9358C37.0386 51.9426 36.8846 52.0958 36.8958 52.2752L36.8946 53.6405C36.8128 53.697 36.7283 53.7865 36.6684 53.8903C36.4737 54.2275 36.5822 54.6359 36.8897 54.8134C37.1356 54.9554 37.4222 54.9134 37.6356 54.7426L38.8899 55.4668C39.0006 55.5307 39.1391 55.4896 39.2065 55.3729C39.2984 55.2704 39.26 55.1098 39.1493 55.046Z" fill="#007950"/>
<path d="M41.0423 55.926L41.0486 55.9151C42.1687 53.9751 41.496 51.4913 39.559 50.373C37.6219 49.2546 35.1391 49.931 34.0253 51.8603C32.9052 53.8003 33.5778 56.2841 35.5041 57.3962C36.6079 58.0335 37.893 58.0818 39.0054 57.6546L38.5535 55.9631C37.8898 56.288 37.0665 56.2895 36.3739 55.8897C35.2701 55.2524 34.8912 53.8342 35.5295 52.7287C36.1678 51.6232 37.5853 51.2422 38.6892 51.8795C39.793 52.5168 40.1718 53.9349 39.5335 55.0404L39.5273 55.0513L41.0423 55.926Z" fill="#007950"/>
<path d="M53.5145 52.4013L54.4455 53.5108C54.2938 53.7494 54.2999 54.0594 54.4915 54.2878C54.5098 54.3096 54.5189 54.3205 54.5372 54.3422L54.0829 55.5946C54.0229 55.7562 54.1048 55.947 54.2764 55.9884C54.4365 56.0394 54.6336 55.9481 54.6844 55.7757L55.1525 54.4932C55.2487 54.4681 55.3588 54.4128 55.4505 54.3358C55.7488 54.0856 55.7865 53.6646 55.5584 53.3927C55.3758 53.1751 55.0921 53.1166 54.8332 53.2041L53.9022 52.0946C53.8201 51.9967 53.6759 51.9879 53.5726 52.0745C53.4511 52.1394 53.4324 52.3034 53.5145 52.4013Z" fill="#007950"/>
<path d="M71.3692 52.543L70.8738 53.904C70.5914 53.8919 70.3259 54.0521 70.2239 54.3323C70.2142 54.359 70.2093 54.3724 70.1996 54.3991L68.8878 54.6318C68.718 54.6607 68.5937 54.827 68.6436 54.9963C68.6795 55.1604 68.8571 55.2855 69.0318 55.2433L70.3766 55.0075C70.4464 55.0782 70.5493 55.1459 70.6618 55.1869C71.0277 55.32 71.4111 55.1422 71.5325 54.8087C71.6297 54.5418 71.5385 54.2668 71.3333 54.0864L71.8287 52.7253C71.8724 52.6053 71.8079 52.476 71.6812 52.4299C71.5643 52.3571 71.4129 52.4229 71.3692 52.543Z" fill="#007950"/>
<path d="M85.955 55.3747L86.2065 53.9483C86.4868 53.9112 86.7204 53.7073 86.7722 53.4137C86.7771 53.3857 86.7796 53.3717 86.7845 53.3437L88.0359 52.8867C88.1982 52.8288 88.2917 52.6434 88.2131 52.4854C88.1493 52.33 87.9527 52.2376 87.788 52.3095L86.5046 52.7753C86.4235 52.7178 86.3105 52.669 86.1925 52.6482C85.8091 52.5806 85.4623 52.8222 85.4007 53.1718C85.3514 53.4515 85.4889 53.7065 85.7223 53.8486L85.4708 55.2749C85.4486 55.4008 85.5346 55.5169 85.6673 55.5403C85.7951 55.5916 85.9328 55.5006 85.955 55.3747Z" fill="#007950"/>
<path d="M104.501 53.7428L103.14 54.2382C102.967 54.014 102.674 53.9136 102.394 54.0156C102.367 54.0253 102.354 54.0302 102.327 54.0399L101.306 53.1847C101.174 53.0731 100.967 53.0848 100.869 53.2319C100.767 53.3649 100.785 53.5813 100.93 53.688L101.975 54.5665C101.965 54.6655 101.98 54.7878 102.021 54.9004C102.154 55.2663 102.536 55.4457 102.87 55.3243C103.137 55.2272 103.289 54.9806 103.295 54.7074L104.656 54.212C104.776 54.1683 104.834 54.0358 104.788 53.9092C104.768 53.7728 104.621 53.6991 104.501 53.7428Z" fill="#007950"/>
<path d="M51.1608 50.7729L51.1512 50.781C49.4351 52.221 49.2176 54.785 50.6554 56.4984C52.0932 58.2119 54.6575 58.4254 56.364 56.9934C58.0801 55.5535 58.2976 52.9894 56.8678 51.2856C56.0486 50.3092 54.8575 49.8242 53.6661 49.8452L53.5121 51.5893C54.247 51.511 55.0212 51.7911 55.5352 52.4038C56.3545 53.3801 56.2255 54.8423 55.2476 55.6629C54.2697 56.4834 52.8073 56.3566 51.988 55.3802C51.1687 54.4039 51.2978 52.9417 52.2757 52.1211L52.2853 52.1131L51.1608 50.7729Z" fill="#007950"/>
<path d="M71.3751 50.0812L71.3633 50.077C69.2582 49.3108 66.929 50.4045 66.164 52.5063C65.399 54.6082 66.4963 56.9357 68.5896 57.6976C70.6947 58.4638 73.024 57.3701 73.7847 55.28C74.2206 54.0823 74.045 52.8083 73.4312 51.787L71.8438 52.5258C72.2791 53.123 72.4235 53.9335 72.15 54.685C71.7141 55.8828 70.3833 56.5021 69.1837 56.0655C67.9841 55.6289 67.3628 54.299 67.7987 53.1013C68.2346 51.9036 69.5655 51.2843 70.765 51.7209L70.7768 51.7251L71.3751 50.0812Z" fill="#007950"/>
<path d="M85.4787 57.8784L85.4911 57.8806C87.6972 58.2696 89.8011 56.788 90.1895 54.5853C90.5779 52.3825 89.0931 50.2809 86.8993 49.894C84.6931 49.505 82.5892 50.9866 82.203 53.177C81.9817 54.4322 82.3758 55.6564 83.1576 56.5556L84.5926 55.5524C84.0603 55.0398 83.7773 54.2667 83.9161 53.4791C84.1375 52.2239 85.3405 51.3829 86.5977 51.6045C87.8548 51.8262 88.6977 53.028 88.4764 54.2832C88.255 55.5384 87.052 56.3794 85.7948 56.1577L85.7825 56.1556L85.4787 57.8784Z" fill="#007950"/>
<path d="M106.231 52.5125L106.226 52.5008C105.46 50.3957 103.125 49.3144 101.023 50.0794C98.9214 50.8444 97.8437 53.1811 98.6056 55.2745C99.3718 57.3796 101.707 58.4608 103.797 57.7001C104.995 57.2642 105.858 56.3107 106.245 55.1841L104.659 54.4429C104.482 55.1602 103.953 55.7919 103.202 56.0654C102.004 56.5013 100.674 55.8799 100.238 54.6804C99.8012 53.4808 100.42 52.15 101.618 51.7141C102.816 51.2782 104.146 51.8995 104.582 53.0991L104.587 53.1108L106.231 52.5125Z" fill="#007950"/>
<path d="M11.8965 66.8159L11.4011 68.177C11.1187 68.1648 10.8532 68.3251 10.7512 68.6053C10.7415 68.632 10.7367 68.6453 10.7269 68.672L9.41518 68.9048C9.24533 68.9336 9.12105 69.1 9.17098 69.2692C9.20685 69.4334 9.38442 69.5585 9.55913 69.5163L10.9039 69.2804C10.9738 69.3512 11.0766 69.4188 11.1892 69.4598C11.5551 69.593 11.9385 69.4152 12.0599 69.0816C12.157 68.8147 12.0659 68.5398 11.8606 68.3593L12.356 66.9983C12.3997 66.8782 12.3352 66.749 12.2086 66.7029C12.0916 66.6301 11.9402 66.6958 11.8965 66.8159Z" fill="#007950"/>
<path d="M11.9044 64.3542L11.8926 64.3499C9.78754 63.5837 7.45832 64.6774 6.69331 66.7793C5.9283 68.8811 7.0256 71.2087 9.11894 71.9706C11.224 72.7368 13.5533 71.6431 14.314 69.553C14.7499 68.3553 14.5743 67.0813 13.9605 66.06L12.3731 66.7987C12.8084 67.3959 12.9528 68.2065 12.6793 68.958C12.2434 70.1557 10.9125 70.775 9.713 70.3384C8.51344 69.9018 7.89206 68.5719 8.32799 67.3742C8.76392 66.1765 10.0948 65.5572 11.2943 65.9938L11.3061 65.9981L11.9044 64.3542Z" fill="#007950"/>
<path d="M23.7812 69.6479L24.0327 68.2215C24.3129 68.1844 24.5466 67.9805 24.5983 67.6869C24.6033 67.6589 24.6057 67.6449 24.6107 67.6169L25.8621 67.1599C26.0244 67.102 26.1179 66.9166 26.0393 66.7586C25.9755 66.6032 25.7789 66.5108 25.6141 66.5827L24.3308 67.0485C24.2497 66.9909 24.1366 66.9422 24.0187 66.9214C23.6352 66.8538 23.2885 67.0954 23.2269 67.445C23.1775 67.7247 23.3151 67.9797 23.5485 68.1217L23.297 69.5481C23.2748 69.674 23.3608 69.7901 23.4935 69.8135C23.6213 69.8648 23.759 69.7738 23.7812 69.6479Z" fill="#007950"/>
<path d="M23.3049 72.1514L23.3172 72.1535C25.5234 72.5425 27.6273 71.061 28.0157 68.8582C28.4041 66.6555 26.9193 64.5538 24.7255 64.167C22.5193 63.778 20.4154 65.2595 20.0292 67.45C19.8078 68.7052 20.202 69.9293 20.9838 70.8285L22.4188 69.8254C21.8865 69.3128 21.6034 68.5396 21.7423 67.7521C21.9636 66.4968 23.1667 65.6558 24.4239 65.8775C25.681 66.0992 26.5239 67.3009 26.3025 68.5561C26.0812 69.8113 24.8781 70.6524 23.621 70.4307L23.6087 70.4285L23.3049 72.1514Z" fill="#007950"/>
<path d="M39.1493 69.3189L37.895 68.5947C37.9559 68.3187 37.8442 68.0294 37.586 67.8803C37.5614 67.8661 37.5491 67.859 37.5245 67.8448L37.523 66.5125C37.5241 66.3403 37.3819 66.189 37.2065 66.2088C37.0386 66.2156 36.8846 66.3687 36.8958 66.5481L36.8946 67.9134C36.8128 67.9699 36.7283 68.0595 36.6684 68.1632C36.4737 68.5004 36.5822 68.9089 36.8897 69.0864C37.1356 69.2284 37.4222 69.1863 37.6356 69.0156L38.8899 69.7398C39.0006 69.8037 39.1391 69.7626 39.2065 69.6459C39.2984 69.5433 39.26 69.3828 39.1493 69.3189Z" fill="#007950"/>
<path d="M41.0423 70.1989L41.0486 70.1881C42.1687 68.248 41.496 65.7643 39.559 64.6459C37.6219 63.5275 35.1391 64.204 34.0253 66.1332C32.9052 68.0733 33.5778 70.557 35.5041 71.6692C36.6079 72.3064 37.893 72.3548 39.0054 71.9276L38.5535 70.2361C37.8898 70.561 37.0665 70.5625 36.3739 70.1626C35.2701 69.5253 34.8912 68.1072 35.5295 67.0017C36.1678 65.8962 37.5853 65.5151 38.6892 66.1524C39.793 66.7897 40.1718 68.2079 39.5335 69.3134L39.5273 69.3242L41.0423 70.1989Z" fill="#007950"/>
<path d="M53.5145 66.6743L54.4455 67.7838C54.2938 68.0223 54.2999 68.3324 54.4915 68.5608C54.5098 68.5826 54.5189 68.5934 54.5372 68.6152L54.0829 69.8676C54.0229 70.0291 54.1048 70.2199 54.2764 70.2613C54.4365 70.3123 54.6336 70.2211 54.6844 70.0487L55.1525 68.7661C55.2487 68.741 55.3588 68.6858 55.4505 68.6088C55.7488 68.3585 55.7865 67.9376 55.5584 67.6656C55.3758 67.4481 55.0921 67.3895 54.8332 67.477L53.9022 66.3675C53.8201 66.2696 53.6759 66.2609 53.5726 66.3475C53.4511 66.4124 53.4324 66.5764 53.5145 66.6743Z" fill="#007950"/>
<path d="M71.3692 66.8159L70.8738 68.177C70.5914 68.1648 70.3259 68.3251 70.2239 68.6053C70.2142 68.632 70.2093 68.6453 70.1996 68.672L68.8878 68.9048C68.718 68.9336 68.5937 69.1 68.6436 69.2692C68.6795 69.4334 68.8571 69.5585 69.0318 69.5163L70.3766 69.2804C70.4464 69.3512 70.5493 69.4188 70.6618 69.4598C71.0277 69.593 71.4111 69.4152 71.5325 69.0816C71.6297 68.8147 71.5385 68.5398 71.3333 68.3593L71.8287 66.9983C71.8724 66.8782 71.8079 66.749 71.6812 66.7029C71.5643 66.6301 71.4129 66.6958 71.3692 66.8159Z" fill="#007950"/>
<path d="M85.955 69.6477L86.2065 68.2213C86.4868 68.1842 86.7204 67.9803 86.7722 67.6866C86.7771 67.6586 86.7796 67.6447 86.7845 67.6167L88.0359 67.1597C88.1982 67.1018 88.2917 66.9164 88.2131 66.7583C88.1493 66.6029 87.9527 66.5106 87.788 66.5825L86.5046 67.0483C86.4235 66.9907 86.3105 66.9419 86.1925 66.9211C85.8091 66.8535 85.4623 67.0952 85.4007 67.4448C85.3514 67.7245 85.4889 67.9794 85.7223 68.1215L85.4708 69.5479C85.4486 69.6737 85.5346 69.7898 85.6673 69.8132C85.7951 69.8646 85.9328 69.7735 85.955 69.6477Z" fill="#007950"/>
<path d="M104.501 68.0157L103.14 68.5111C102.967 68.287 102.674 68.1866 102.394 68.2886C102.367 68.2983 102.354 68.3031 102.327 68.3129L101.306 67.4576C101.174 67.346 100.967 67.3577 100.869 67.5048C100.767 67.6378 100.785 67.8542 100.93 67.961L101.975 68.8395C101.965 68.9385 101.98 69.0608 102.021 69.1733C102.154 69.5392 102.536 69.7186 102.87 69.5972C103.137 69.5001 103.289 69.2535 103.295 68.9803L104.656 68.485C104.776 68.4412 104.834 68.3087 104.788 68.1821C104.768 68.0457 104.621 67.972 104.501 68.0157Z" fill="#007950"/>
<path d="M51.1608 65.0459L51.1512 65.0539C49.4351 66.4939 49.2176 69.0579 50.6554 70.7714C52.0932 72.4848 54.6575 72.6983 56.364 71.2664C58.0801 69.8264 58.2976 67.2624 56.8678 65.5585C56.0486 64.5821 54.8575 64.0972 53.6661 64.1181L53.5121 65.8622C54.247 65.7839 55.0212 66.0641 55.5352 66.6767C56.3545 67.6531 56.2255 69.1153 55.2476 69.9358C54.2697 70.7564 52.8073 70.6296 51.988 69.6532C51.1687 68.6768 51.2978 67.2146 52.2757 66.3941L52.2853 66.386L51.1608 65.0459Z" fill="#007950"/>
<path d="M71.3751 64.3542L71.3633 64.3499C69.2582 63.5837 66.929 64.6774 66.164 66.7793C65.399 68.8811 66.4963 71.2087 68.5896 71.9706C70.6947 72.7368 73.024 71.6431 73.7847 69.553C74.2206 68.3553 74.045 67.0813 73.4312 66.06L71.8438 66.7987C72.2791 67.3959 72.4235 68.2065 72.15 68.958C71.7141 70.1557 70.3833 70.775 69.1837 70.3384C67.9841 69.9018 67.3628 68.5719 67.7987 67.3742C68.2346 66.1765 69.5655 65.5572 70.765 65.9938L70.7768 65.9981L71.3751 64.3542Z" fill="#007950"/>
<path d="M85.4787 72.1514L85.4911 72.1535C87.6972 72.5425 89.8011 71.061 90.1895 68.8582C90.5779 66.6555 89.0931 64.5538 86.8993 64.167C84.6931 63.778 82.5892 65.2595 82.203 67.45C81.9817 68.7052 82.3758 69.9293 83.1576 70.8285L84.5926 69.8254C84.0603 69.3128 83.7773 68.5396 83.9161 67.7521C84.1375 66.4968 85.3405 65.6558 86.5977 65.8775C87.8548 66.0992 88.6977 67.3009 88.4764 68.5561C88.255 69.8113 87.052 70.6524 85.7948 70.4307L85.7825 70.4285L85.4787 72.1514Z" fill="#007950"/>
<path d="M106.231 66.7855L106.226 66.7737C105.46 64.6686 103.125 63.5873 101.023 64.3523C98.9214 65.1174 97.8437 67.4541 98.6056 69.5474C99.3718 71.6525 101.707 72.7338 103.797 71.973C104.995 71.5371 105.858 70.5837 106.245 69.457L104.659 68.7158C104.482 69.4331 103.953 70.0648 103.202 70.3383C102.004 70.7743 100.674 70.1529 100.238 68.9533C99.8012 67.7538 100.42 66.423 101.618 65.987C102.816 65.5511 104.146 66.1725 104.582 67.372L104.587 67.3838L106.231 66.7855Z" fill="#007950"/>
<path d="M11.8965 81.0889L11.4011 82.4499C11.1187 82.4378 10.8532 82.598 10.7512 82.8782C10.7415 82.9049 10.7367 82.9183 10.7269 82.945L9.41518 83.1777C9.24533 83.2066 9.12105 83.3729 9.17098 83.5422C9.20685 83.7063 9.38442 83.8314 9.55913 83.7892L10.9039 83.5534C10.9738 83.6241 11.0766 83.6918 11.1892 83.7328C11.5551 83.8659 11.9385 83.6881 12.0599 83.3546C12.157 83.0877 12.0659 82.8127 11.8606 82.6323L12.356 81.2712C12.3997 81.1512 12.3352 81.0219 12.2086 80.9758C12.0916 80.903 11.9402 80.9688 11.8965 81.0889Z" fill="#007950"/>
<path d="M11.9044 78.6271L11.8926 78.6229C9.78754 77.8567 7.45832 78.9504 6.69331 81.0522C5.9283 83.1541 7.0256 85.4816 9.11894 86.2435C11.224 87.0097 13.5533 85.916 14.314 83.8259C14.7499 82.6282 14.5743 81.3542 13.9605 80.3329L12.3731 81.0716C12.8084 81.6689 12.9528 82.4794 12.6793 83.2309C12.2434 84.4286 10.9125 85.048 9.713 84.6114C8.51344 84.1748 7.89206 82.8449 8.32799 81.6472C8.76392 80.4495 10.0948 79.8302 11.2943 80.2668L11.3061 80.271L11.9044 78.6271Z" fill="#007950"/>
<path d="M23.7812 83.9209L24.0327 82.4945C24.3129 82.4574 24.5466 82.2535 24.5983 81.9598C24.6033 81.9318 24.6057 81.9179 24.6107 81.8899L25.8621 81.4329C26.0244 81.375 26.1179 81.1896 26.0393 81.0315C25.9755 80.8761 25.7789 80.7838 25.6141 80.8556L24.3308 81.3215C24.2497 81.2639 24.1366 81.2151 24.0187 81.1943C23.6352 81.1267 23.2885 81.3684 23.2269 81.718C23.1775 81.9977 23.3151 82.2526 23.5485 82.3947L23.297 83.8211C23.2748 83.9469 23.3608 84.063 23.4935 84.0864C23.6213 84.1378 23.759 84.0467 23.7812 83.9209Z" fill="#007950"/>
<path d="M23.3049 86.4243L23.3172 86.4265C25.5234 86.8155 27.6273 85.3339 28.0157 83.1312C28.4041 80.9284 26.9193 78.8268 24.7255 78.4399C22.5193 78.0509 20.4154 79.5325 20.0292 81.7229C19.8078 82.9781 20.202 84.2023 20.9838 85.1015L22.4188 84.0983C21.8865 83.5857 21.6034 82.8126 21.7423 82.025C21.9636 80.7698 23.1667 79.9288 24.4239 80.1504C25.681 80.3721 26.5239 81.5739 26.3025 82.8291C26.0812 84.0843 24.8781 84.9253 23.621 84.7036L23.6087 84.7015L23.3049 86.4243Z" fill="#007950"/>
<path d="M39.1493 83.5918L37.895 82.8677C37.9559 82.5916 37.8442 82.3023 37.586 82.1533C37.5614 82.1391 37.5491 82.132 37.5245 82.1178L37.523 80.7855C37.5241 80.6132 37.3819 80.4619 37.2065 80.4817C37.0386 80.4885 36.8846 80.6417 36.8958 80.8211L36.8946 82.1864C36.8128 82.2429 36.7283 82.3324 36.6684 82.4362C36.4737 82.7734 36.5822 83.1818 36.8897 83.3593C37.1356 83.5013 37.4222 83.4593 37.6356 83.2885L38.8899 84.0127C39.0006 84.0766 39.1391 84.0355 39.2065 83.9188C39.2984 83.8163 39.26 83.6557 39.1493 83.5918Z" fill="#007950"/>
<path d="M41.0423 84.4719L41.0486 84.461C42.1687 82.521 41.496 80.0372 39.559 78.9188C37.6219 77.8005 35.1391 78.4769 34.0253 80.4062C32.9052 82.3462 33.5778 84.83 35.5041 85.9421C36.6079 86.5794 37.893 86.6277 39.0054 86.2005L38.5535 84.509C37.8898 84.8339 37.0665 84.8354 36.3739 84.4356C35.2701 83.7983 34.8912 82.3801 35.5295 81.2746C36.1678 80.1691 37.5853 79.7881 38.6892 80.4254C39.793 81.0627 40.1718 82.4808 39.5335 83.5863L39.5273 83.5972L41.0423 84.4719Z" fill="#007950"/>
<path d="M53.5145 80.9472L54.4455 82.0567C54.2938 82.2953 54.2999 82.6053 54.4915 82.8337C54.5098 82.8555 54.5189 82.8664 54.5372 82.8881L54.0829 84.1405C54.0229 84.3021 54.1048 84.4929 54.2764 84.5343C54.4365 84.5853 54.6336 84.494 54.6844 84.3216L55.1525 83.0391C55.2487 83.014 55.3588 82.9587 55.4505 82.8817C55.7488 82.6315 55.7865 82.2105 55.5584 81.9386C55.3758 81.721 55.0921 81.6625 54.8332 81.75L53.9022 80.6405C53.8201 80.5426 53.6759 80.5338 53.5726 80.6204C53.4511 80.6853 53.4324 80.8493 53.5145 80.9472Z" fill="#007950"/>
<path d="M71.3692 81.0889L70.8738 82.4499C70.5914 82.4378 70.3259 82.598 70.2239 82.8782C70.2142 82.9049 70.2093 82.9183 70.1996 82.945L68.8878 83.1777C68.718 83.2066 68.5937 83.3729 68.6436 83.5422C68.6795 83.7063 68.8571 83.8314 69.0318 83.7892L70.3766 83.5534C70.4464 83.6241 70.5493 83.6918 70.6618 83.7328C71.0277 83.8659 71.4111 83.6881 71.5325 83.3546C71.6297 83.0877 71.5385 82.8127 71.3333 82.6323L71.8287 81.2712C71.8724 81.1512 71.8079 81.0219 71.6812 80.9758C71.5643 80.903 71.4129 80.9688 71.3692 81.0889Z" fill="#007950"/>
<path d="M85.955 83.9206L86.2065 82.4942C86.4868 82.4571 86.7204 82.2532 86.7722 81.9596C86.7771 81.9316 86.7796 81.9176 86.7845 81.8896L88.0359 81.4326C88.1982 81.3747 88.2917 81.1893 88.2131 81.0313C88.1493 80.8759 87.9527 80.7835 87.788 80.8554L86.5046 81.3212C86.4235 81.2637 86.3105 81.2149 86.1925 81.1941C85.8091 81.1265 85.4623 81.3681 85.4007 81.7177C85.3514 81.9974 85.4889 82.2524 85.7223 82.3944L85.4708 83.8208C85.4486 83.9467 85.5346 84.0628 85.6673 84.0862C85.7951 84.1375 85.9328 84.0465 85.955 83.9206Z" fill="#007950"/>
<path d="M104.501 82.2887L103.14 82.7841C102.967 82.5599 102.674 82.4595 102.394 82.5615C102.367 82.5712 102.354 82.5761 102.327 82.5858L101.306 81.7306C101.174 81.619 100.967 81.6307 100.869 81.7778C100.767 81.9108 100.785 82.1272 100.93 82.2339L101.975 83.1124C101.965 83.2114 101.98 83.3337 102.021 83.4463C102.154 83.8122 102.536 83.9916 102.87 83.8702C103.137 83.7731 103.289 83.5265 103.295 83.2533L104.656 82.7579C104.776 82.7142 104.834 82.5817 104.788 82.4551C104.768 82.3187 104.621 82.245 104.501 82.2887Z" fill="#007950"/>
<path d="M51.1608 79.3188L51.1512 79.3269C49.4351 80.7669 49.2176 83.3309 50.6554 85.0443C52.0932 86.7578 54.6575 86.9713 56.364 85.5393C58.0801 84.0994 58.2976 81.5353 56.8678 79.8315C56.0486 78.8551 54.8575 78.3701 53.6661 78.3911L53.5121 80.1352C54.247 80.0569 55.0212 80.337 55.5352 80.9497C56.3545 81.926 56.2255 83.3882 55.2476 84.2088C54.2697 85.0293 52.8073 84.9025 51.988 83.9261C51.1687 82.9498 51.2978 81.4876 52.2757 80.667L52.2853 80.659L51.1608 79.3188Z" fill="#007950"/>
<path d="M71.3751 78.6271L71.3633 78.6229C69.2582 77.8567 66.929 78.9504 66.164 81.0522C65.399 83.1541 66.4963 85.4816 68.5896 86.2435C70.6947 87.0097 73.024 85.916 73.7847 83.8259C74.2206 82.6282 74.045 81.3542 73.4312 80.3329L71.8438 81.0716C72.2791 81.6689 72.4235 82.4794 72.15 83.2309C71.7141 84.4286 70.3833 85.048 69.1837 84.6114C67.9841 84.1748 67.3628 82.8449 67.7987 81.6472C68.2346 80.4495 69.5655 79.8302 70.765 80.2668L70.7768 80.271L71.3751 78.6271Z" fill="#007950"/>
<path d="M85.4787 86.4243L85.4911 86.4265C87.6972 86.8155 89.8011 85.3339 90.1895 83.1312C90.5779 80.9284 89.0931 78.8268 86.8993 78.4399C84.6931 78.0509 82.5892 79.5325 82.203 81.7229C81.9817 82.9781 82.3758 84.2023 83.1576 85.1015L84.5926 84.0983C84.0603 83.5857 83.7773 82.8126 83.9161 82.025C84.1375 80.7698 85.3405 79.9288 86.5977 80.1504C87.8548 80.3721 88.6977 81.5739 88.4764 82.8291C88.255 84.0843 87.052 84.9253 85.7948 84.7036L85.7825 84.7015L85.4787 86.4243Z" fill="#007950"/>
<path d="M106.231 81.0584L106.226 81.0466C105.46 78.9416 103.125 77.8603 101.023 78.6253C98.9214 79.3903 97.8437 81.727 98.6056 83.8204C99.3718 85.9255 101.707 87.0067 103.797 86.246C104.995 85.8101 105.858 84.8566 106.245 83.7299L104.659 82.9888C104.482 83.7061 103.953 84.3378 103.202 84.6113C102.004 85.0472 100.674 84.4258 100.238 83.2263C99.8012 82.0267 100.42 80.6959 101.618 80.26C102.816 79.8241 104.146 80.4454 104.582 81.645L104.587 81.6567L106.231 81.0584Z" fill="#007950"/>
<path d="M11.8965 95.3616L11.4011 96.7226C11.1187 96.7105 10.8532 96.8707 10.7512 97.1509C10.7415 97.1776 10.7367 97.191 10.7269 97.2177L9.41518 97.4504C9.24533 97.4793 9.12105 97.6456 9.17098 97.8149C9.20685 97.9791 9.38442 98.1041 9.55913 98.0619L10.9039 97.8261C10.9738 97.8968 11.0766 97.9645 11.1892 98.0055C11.5551 98.1386 11.9385 97.9608 12.0599 97.6273C12.157 97.3604 12.0659 97.0854 11.8606 96.905L12.356 95.5439C12.3997 95.4239 12.3352 95.2946 12.2086 95.2485C12.0916 95.1757 11.9402 95.2415 11.8965 95.3616Z" fill="#007950"/>
<path d="M11.9044 92.8998L11.8926 92.8956C9.78754 92.1294 7.45832 93.2231 6.69331 95.3249C5.9283 97.4268 7.0256 99.7543 9.11894 100.516C11.224 101.282 13.5533 100.189 14.314 98.0986C14.7499 96.9009 14.5743 95.6269 13.9605 94.6056L12.3731 95.3444C12.8084 95.9416 12.9528 96.7521 12.6793 97.5036C12.2434 98.7014 10.9125 99.3207 9.713 98.8841C8.51344 98.4475 7.89206 97.1176 8.32799 95.9199C8.76392 94.7222 10.0948 94.1029 11.2943 94.5395L11.3061 94.5437L11.9044 92.8998Z" fill="#007950"/>
<path d="M23.7812 98.1936L24.0327 96.7672C24.3129 96.7301 24.5466 96.5262 24.5983 96.2325C24.6033 96.2045 24.6057 96.1906 24.6107 96.1626L25.8621 95.7056C26.0244 95.6477 26.1179 95.4623 26.0393 95.3042C25.9755 95.1488 25.7789 95.0565 25.6141 95.1283L24.3308 95.5942C24.2497 95.5366 24.1366 95.4878 24.0187 95.467C23.6352 95.3994 23.2885 95.6411 23.2269 95.9907C23.1775 96.2704 23.3151 96.5253 23.5485 96.6674L23.297 98.0938C23.2748 98.2196 23.3608 98.3357 23.4935 98.3591C23.6213 98.4105 23.759 98.3194 23.7812 98.1936Z" fill="#007950"/>
<path d="M23.3049 100.697L23.3172 100.699C25.5234 101.088 27.6273 99.6066 28.0157 97.4039C28.4041 95.2011 26.9193 93.0995 24.7255 92.7126C22.5193 92.3236 20.4154 93.8052 20.0292 95.9956C19.8078 97.2508 20.202 98.475 20.9838 99.3742L22.4188 98.371C21.8865 97.8584 21.6034 97.0853 21.7423 96.2977C21.9636 95.0425 23.1667 94.2015 24.4239 94.4232C25.681 94.6448 26.5239 95.8466 26.3025 97.1018C26.0812 98.357 24.8781 99.198 23.621 98.9764L23.6087 98.9742L23.3049 100.697Z" fill="#007950"/>
<path d="M39.1493 97.8646L37.895 97.1404C37.9559 96.8643 37.8442 96.5751 37.586 96.426C37.5614 96.4118 37.5491 96.4047 37.5245 96.3905L37.523 95.0582C37.5241 94.8859 37.3819 94.7346 37.2065 94.7544C37.0386 94.7612 36.8846 94.9144 36.8958 95.0938L36.8946 96.4591C36.8128 96.5156 36.7283 96.6051 36.6684 96.7089C36.4737 97.0461 36.5822 97.4545 36.8897 97.632C37.1356 97.774 37.4222 97.732 37.6356 97.5612L38.8899 98.2854C39.0006 98.3493 39.1391 98.3082 39.2065 98.1915C39.2984 98.089 39.26 97.9285 39.1493 97.8646Z" fill="#007950"/>
<path d="M41.0423 98.7446L41.0486 98.7338C42.1687 96.7937 41.496 94.3099 39.559 93.1916C37.6219 92.0732 35.1391 92.7496 34.0253 94.6789C32.9052 96.6189 33.5778 99.1027 35.5041 100.215C36.6079 100.852 37.893 100.9 39.0054 100.473L38.5535 98.7817C37.8898 99.1066 37.0665 99.1081 36.3739 98.7083C35.2701 98.071 34.8912 96.6528 35.5295 95.5473C36.1678 94.4418 37.5853 94.0608 38.6892 94.6981C39.793 95.3354 40.1718 96.7535 39.5335 97.859L39.5273 97.8699L41.0423 98.7446Z" fill="#007950"/>
<path d="M53.5145 95.2199L54.4455 96.3294C54.2938 96.568 54.2999 96.878 54.4915 97.1064C54.5098 97.1282 54.5189 97.1391 54.5372 97.1608L54.0829 98.4132C54.0229 98.5748 54.1048 98.7656 54.2764 98.807C54.4365 98.858 54.6336 98.7667 54.6844 98.5943L55.1525 97.3118C55.2487 97.2867 55.3588 97.2314 55.4505 97.1544C55.7488 96.9042 55.7865 96.4832 55.5584 96.2113C55.3758 95.9937 55.0921 95.9352 54.8332 96.0227L53.9022 94.9132C53.8201 94.8153 53.6759 94.8065 53.5726 94.8931C53.4511 94.958 53.4324 95.122 53.5145 95.2199Z" fill="#007950"/>
<path d="M71.3692 95.3616L70.8738 96.7226C70.5914 96.7105 70.3259 96.8707 70.2239 97.1509C70.2142 97.1776 70.2093 97.191 70.1996 97.2177L68.8878 97.4504C68.718 97.4793 68.5937 97.6456 68.6436 97.8149C68.6795 97.9791 68.8571 98.1041 69.0318 98.0619L70.3766 97.8261C70.4464 97.8968 70.5493 97.9645 70.6618 98.0055C71.0277 98.1386 71.4111 97.9608 71.5325 97.6273C71.6297 97.3604 71.5385 97.0854 71.3333 96.905L71.8287 95.5439C71.8724 95.4239 71.8079 95.2946 71.6812 95.2485C71.5643 95.1757 71.4129 95.2415 71.3692 95.3616Z" fill="#007950"/>
<path d="M85.955 98.1933L86.2065 96.7669C86.4868 96.7299 86.7204 96.5259 86.7722 96.2323C86.7771 96.2043 86.7796 96.1903 86.7845 96.1623L88.0359 95.7053C88.1982 95.6474 88.2917 95.462 88.2131 95.304C88.1493 95.1486 87.9527 95.0562 87.788 95.1281L86.5046 95.5939C86.4235 95.5364 86.3105 95.4876 86.1925 95.4668C85.8091 95.3992 85.4623 95.6408 85.4007 95.9904C85.3514 96.2701 85.4889 96.5251 85.7223 96.6672L85.4708 98.0935C85.4486 98.2194 85.5346 98.3355 85.6673 98.3589C85.7951 98.4102 85.9328 98.3192 85.955 98.1933Z" fill="#007950"/>
<path d="M104.501 96.5614L103.14 97.0568C102.967 96.8326 102.674 96.7322 102.394 96.8342C102.367 96.8439 102.354 96.8488 102.327 96.8585L101.306 96.0033C101.174 95.8917 100.967 95.9034 100.869 96.0505C100.767 96.1835 100.785 96.3999 100.93 96.5066L101.975 97.3851C101.965 97.4841 101.98 97.6064 102.021 97.719C102.154 98.0849 102.536 98.2643 102.87 98.1429C103.137 98.0458 103.289 97.7992 103.295 97.526L104.656 97.0306C104.776 96.9869 104.834 96.8544 104.788 96.7278C104.768 96.5914 104.621 96.5177 104.501 96.5614Z" fill="#007950"/>
<path d="M51.1608 93.5915L51.1512 93.5996C49.4351 95.0396 49.2176 97.6036 50.6554 99.317C52.0932 101.03 54.6575 101.244 56.364 99.812C58.0801 98.3721 58.2976 95.808 56.8678 94.1042C56.0486 93.1278 54.8575 92.6428 53.6661 92.6638L53.5121 94.4079C54.247 94.3296 55.0212 94.6097 55.5352 95.2224C56.3545 96.1987 56.2255 97.6609 55.2476 98.4815C54.2697 99.302 52.8073 99.1752 51.988 98.1988C51.1687 97.2225 51.2978 95.7603 52.2757 94.9397L52.2853 94.9317L51.1608 93.5915Z" fill="#007950"/>
<path d="M71.3751 92.8998L71.3633 92.8956C69.2582 92.1294 66.929 93.2231 66.164 95.3249C65.399 97.4268 66.4963 99.7543 68.5896 100.516C70.6947 101.282 73.024 100.189 73.7847 98.0986C74.2206 96.9009 74.045 95.6269 73.4312 94.6056L71.8438 95.3444C72.2791 95.9416 72.4235 96.7521 72.15 97.5036C71.7141 98.7014 70.3833 99.3207 69.1837 98.8841C67.9841 98.4475 67.3628 97.1176 67.7987 95.9199C68.2346 94.7222 69.5655 94.1029 70.765 94.5395L70.7768 94.5437L71.3751 92.8998Z" fill="#007950"/>
<path d="M85.4787 100.697L85.4911 100.699C87.6972 101.088 89.8011 99.6066 90.1895 97.4039C90.5779 95.2011 89.0931 93.0995 86.8993 92.7126C84.6931 92.3236 82.5892 93.8052 82.203 95.9956C81.9817 97.2508 82.3758 98.475 83.1576 99.3742L84.5926 98.371C84.0603 97.8584 83.7773 97.0853 83.9161 96.2977C84.1375 95.0425 85.3405 94.2015 86.5977 94.4232C87.8548 94.6448 88.6977 95.8466 88.4764 97.1018C88.255 98.357 87.052 99.198 85.7948 98.9764L85.7825 98.9742L85.4787 100.697Z" fill="#007950"/>
<path d="M106.231 95.3311L106.226 95.3194C105.46 93.2143 103.125 92.133 101.023 92.898C98.9214 93.663 97.8437 95.9997 98.6056 98.0931C99.3718 100.198 101.707 101.279 103.797 100.519C104.995 100.083 105.858 99.1293 106.245 98.0027L104.659 97.2615C104.482 97.9788 103.953 98.6105 103.202 98.884C102.004 99.3199 100.674 98.6986 100.238 97.499C99.8012 96.2994 100.42 94.9686 101.618 94.5327C102.816 94.0968 104.146 94.7181 104.582 95.9177L104.587 95.9294L106.231 95.3311Z" fill="#007950"/>
<path d="M11.8965 109.635L11.4011 110.996C11.1187 110.984 10.8532 111.144 10.7512 111.424C10.7415 111.451 10.7367 111.464 10.7269 111.491L9.41518 111.724C9.24533 111.753 9.12105 111.919 9.17098 112.088C9.20685 112.252 9.38442 112.378 9.55913 112.335L10.9039 112.1C10.9738 112.17 11.0766 112.238 11.1892 112.279C11.5551 112.412 11.9385 112.234 12.0599 111.901C12.157 111.634 12.0659 111.359 11.8606 111.178L12.356 109.817C12.3997 109.697 12.3352 109.568 12.2086 109.522C12.0916 109.449 11.9402 109.515 11.8965 109.635Z" fill="#007950"/>
<path d="M11.9044 107.173L11.8926 107.169C9.78754 106.403 7.45832 107.497 6.69331 109.598C5.9283 111.7 7.0256 114.028 9.11894 114.79C11.224 115.556 13.5533 114.462 14.314 112.372C14.7499 111.174 14.5743 109.9 13.9605 108.879L12.3731 109.618C12.8084 110.215 12.9528 111.026 12.6793 111.777C12.2434 112.975 10.9125 113.594 9.713 113.158C8.51344 112.721 7.89206 111.391 8.32799 110.193C8.76392 108.996 10.0948 108.376 11.2943 108.813L11.3061 108.817L11.9044 107.173Z" fill="#007950"/>
<path d="M23.7812 112.467L24.0327 111.041C24.3129 111.004 24.5466 110.8 24.5983 110.506C24.6033 110.478 24.6057 110.464 24.6107 110.436L25.8621 109.979C26.0244 109.921 26.1179 109.736 26.0393 109.578C25.9755 109.422 25.7789 109.33 25.6141 109.402L24.3308 109.868C24.2497 109.81 24.1366 109.761 24.0187 109.74C23.6352 109.673 23.2885 109.915 23.2269 110.264C23.1775 110.544 23.3151 110.799 23.5485 110.941L23.297 112.367C23.2748 112.493 23.3608 112.609 23.4935 112.633C23.6213 112.684 23.759 112.593 23.7812 112.467Z" fill="#007950"/>
<path d="M23.3049 114.97L23.3172 114.973C25.5234 115.362 27.6273 113.88 28.0157 111.677C28.4041 109.475 26.9193 107.373 24.7255 106.986C22.5193 106.597 20.4154 108.079 20.0292 110.269C19.8078 111.524 20.202 112.748 20.9838 113.648L22.4188 112.644C21.8865 112.132 21.6034 111.359 21.7423 110.571C21.9636 109.316 23.1667 108.475 24.4239 108.697C25.681 108.918 26.5239 110.12 26.3025 111.375C26.0812 112.63 24.8781 113.471 23.621 113.25L23.6087 113.248L23.3049 114.97Z" fill="#007950"/>
<path d="M39.1493 112.138L37.895 111.414C37.9559 111.138 37.8442 110.848 37.586 110.699C37.5614 110.685 37.5491 110.678 37.5245 110.664L37.523 109.332C37.5241 109.159 37.3819 109.008 37.2065 109.028C37.0386 109.035 36.8846 109.188 36.8958 109.367L36.8946 110.733C36.8128 110.789 36.7283 110.879 36.6684 110.982C36.4737 111.319 36.5822 111.728 36.8897 111.905C37.1356 112.047 37.4222 112.005 37.6356 111.835L38.8899 112.559C39.0006 112.623 39.1391 112.582 39.2065 112.465C39.2984 112.362 39.26 112.202 39.1493 112.138Z" fill="#007950"/>
<path d="M41.0423 113.018L41.0486 113.007C42.1687 111.067 41.496 108.583 39.559 107.465C37.6219 106.347 35.1391 107.023 34.0253 108.952C32.9052 110.892 33.5778 113.376 35.5041 114.488C36.6079 115.126 37.893 115.174 39.0054 114.747L38.5535 113.055C37.8898 113.38 37.0665 113.382 36.3739 112.982C35.2701 112.344 34.8912 110.926 35.5295 109.821C36.1678 108.715 37.5853 108.334 38.6892 108.972C39.793 109.609 40.1718 111.027 39.5335 112.132L39.5273 112.143L41.0423 113.018Z" fill="#007950"/>
<path d="M53.5145 109.493L54.4455 110.603C54.2938 110.841 54.2999 111.151 54.4915 111.38C54.5098 111.402 54.5189 111.413 54.5372 111.434L54.0829 112.687C54.0229 112.848 54.1048 113.039 54.2764 113.08C54.4365 113.131 54.6336 113.04 54.6844 112.868L55.1525 111.585C55.2487 111.56 55.3588 111.505 55.4505 111.428C55.7488 111.178 55.7865 110.757 55.5584 110.485C55.3758 110.267 55.0921 110.209 54.8332 110.296L53.9022 109.187C53.8201 109.089 53.6759 109.08 53.5726 109.167C53.4511 109.231 53.4324 109.395 53.5145 109.493Z" fill="#007950"/>
<path d="M71.3692 109.635L70.8738 110.996C70.5914 110.984 70.3259 111.144 70.2239 111.424C70.2142 111.451 70.2093 111.464 70.1996 111.491L68.8878 111.724C68.718 111.753 68.5937 111.919 68.6436 112.088C68.6795 112.252 68.8571 112.378 69.0318 112.335L70.3766 112.1C70.4464 112.17 70.5493 112.238 70.6618 112.279C71.0277 112.412 71.4111 112.234 71.5325 111.901C71.6297 111.634 71.5385 111.359 71.3333 111.178L71.8287 109.817C71.8724 109.697 71.8079 109.568 71.6812 109.522C71.5643 109.449 71.4129 109.515 71.3692 109.635Z" fill="#007950"/>
<path d="M85.955 112.467L86.2065 111.04C86.4868 111.003 86.7204 110.799 86.7722 110.506C86.7771 110.478 86.7796 110.464 86.7845 110.436L88.0359 109.979C88.1982 109.921 88.2917 109.735 88.2131 109.577C88.1493 109.422 87.9527 109.33 87.788 109.402L86.5046 109.867C86.4235 109.81 86.3105 109.761 86.1925 109.74C85.8091 109.673 85.4623 109.914 85.4007 110.264C85.3514 110.544 85.4889 110.798 85.7223 110.941L85.4708 112.367C85.4486 112.493 85.5346 112.609 85.6673 112.632C85.7951 112.684 85.9328 112.593 85.955 112.467Z" fill="#007950"/>
<path d="M104.501 110.835L103.14 111.33C102.967 111.106 102.674 111.006 102.394 111.108C102.367 111.117 102.354 111.122 102.327 111.132L101.306 110.277C101.174 110.165 100.967 110.177 100.869 110.324C100.767 110.457 100.785 110.673 100.93 110.78L101.975 111.659C101.965 111.758 101.98 111.88 102.021 111.992C102.154 112.358 102.536 112.538 102.87 112.416C103.137 112.319 103.289 112.073 103.295 111.799L104.656 111.304C104.776 111.26 104.834 111.128 104.788 111.001C104.768 110.865 104.621 110.791 104.501 110.835Z" fill="#007950"/>
<path d="M51.1608 107.865L51.1512 107.873C49.4351 109.313 49.2176 111.877 50.6554 113.59C52.0932 115.304 54.6575 115.517 56.364 114.085C58.0801 112.645 58.2976 110.081 56.8678 108.378C56.0486 107.401 54.8575 106.916 53.6661 106.937L53.5121 108.681C54.247 108.603 55.0212 108.883 55.5352 109.496C56.3545 110.472 56.2255 111.934 55.2476 112.755C54.2697 113.575 52.8073 113.449 51.988 112.472C51.1687 111.496 51.2978 110.034 52.2757 109.213L52.2853 109.205L51.1608 107.865Z" fill="#007950"/>
<path d="M71.3751 107.173L71.3633 107.169C69.2582 106.403 66.929 107.497 66.164 109.598C65.399 111.7 66.4963 114.028 68.5896 114.79C70.6947 115.556 73.024 114.462 73.7847 112.372C74.2206 111.174 74.045 109.9 73.4312 108.879L71.8438 109.618C72.2791 110.215 72.4235 111.026 72.15 111.777C71.7141 112.975 70.3833 113.594 69.1837 113.158C67.9841 112.721 67.3628 111.391 67.7987 110.193C68.2346 108.996 69.5655 108.376 70.765 108.813L70.7768 108.817L71.3751 107.173Z" fill="#007950"/>
<path d="M85.4787 114.97L85.4911 114.973C87.6972 115.362 89.8011 113.88 90.1895 111.677C90.5779 109.475 89.0931 107.373 86.8993 106.986C84.6931 106.597 82.5892 108.079 82.203 110.269C81.9817 111.524 82.3758 112.748 83.1576 113.648L84.5926 112.644C84.0603 112.132 83.7773 111.359 83.9161 110.571C84.1375 109.316 85.3405 108.475 86.5977 108.697C87.8548 108.918 88.6977 110.12 88.4764 111.375C88.255 112.63 87.052 113.471 85.7948 113.25L85.7825 113.248L85.4787 114.97Z" fill="#007950"/>
<path d="M106.231 109.605L106.226 109.593C105.46 107.488 103.125 106.406 101.023 107.171C98.9214 107.936 97.8437 110.273 98.6056 112.366C99.3718 114.472 101.707 115.553 103.797 114.792C104.995 114.356 105.858 113.403 106.245 112.276L104.659 111.535C104.482 112.252 103.953 112.884 103.202 113.157C102.004 113.593 100.674 112.972 100.238 111.772C99.8012 110.573 100.42 109.242 101.618 108.806C102.816 108.37 104.146 108.992 104.582 110.191L104.587 110.203L106.231 109.605Z" fill="#007950"/>
<path d="M11.8965 123.908L11.4011 125.269C11.1187 125.257 10.8532 125.417 10.7512 125.698C10.7415 125.724 10.7367 125.738 10.7269 125.764L9.41518 125.997C9.24533 126.026 9.12105 126.192 9.17098 126.362C9.20685 126.526 9.38442 126.651 9.55913 126.609L10.9039 126.373C10.9738 126.443 11.0766 126.511 11.1892 126.552C11.5551 126.685 11.9385 126.507 12.0599 126.174C12.157 125.907 12.0659 125.632 11.8606 125.452L12.356 124.091C12.3997 123.97 12.3352 123.841 12.2086 123.795C12.0916 123.722 11.9402 123.788 11.8965 123.908Z" fill="#007950"/>
<path d="M11.9044 121.446L11.8926 121.442C9.78754 120.676 7.45832 121.77 6.69331 123.872C5.9283 125.973 7.0256 128.301 9.11894 129.063C11.224 129.829 13.5533 128.735 14.314 126.645C14.7499 125.448 14.5743 124.174 13.9605 123.152L12.3731 123.891C12.8084 124.488 12.9528 125.299 12.6793 126.05C12.2434 127.248 10.9125 127.867 9.713 127.431C8.51344 126.994 7.89206 125.664 8.32799 124.467C8.76392 123.269 10.0948 122.649 11.2943 123.086L11.3061 123.09L11.9044 121.446Z" fill="#007950"/>
<path d="M23.7812 126.74L24.0327 125.314C24.3129 125.277 24.5466 125.073 24.5983 124.779C24.6033 124.751 24.6057 124.737 24.6107 124.709L25.8621 124.252C26.0244 124.194 26.1179 124.009 26.0393 123.851C25.9755 123.695 25.7789 123.603 25.6141 123.675L24.3308 124.141C24.2497 124.083 24.1366 124.034 24.0187 124.014C23.6352 123.946 23.2885 124.188 23.2269 124.537C23.1775 124.817 23.3151 125.072 23.5485 125.214L23.297 126.64C23.2748 126.766 23.3608 126.882 23.4935 126.906C23.6213 126.957 23.759 126.866 23.7812 126.74Z" fill="#007950"/>
<path d="M23.3049 129.244L23.3172 129.246C25.5234 129.635 27.6273 128.153 28.0157 125.951C28.4041 123.748 26.9193 121.646 24.7255 121.259C22.5193 120.87 20.4154 122.352 20.0292 124.542C19.8078 125.797 20.202 127.022 20.9838 127.921L22.4188 126.918C21.8865 126.405 21.6034 125.632 21.7423 124.844C21.9636 123.589 23.1667 122.748 24.4239 122.97C25.681 123.191 26.5239 124.393 26.3025 125.648C26.0812 126.904 24.8781 127.745 23.621 127.523L23.6087 127.521L23.3049 129.244Z" fill="#007950"/>
<path d="M39.1493 126.411L37.895 125.687C37.9559 125.411 37.8442 125.122 37.586 124.973C37.5614 124.958 37.5491 124.951 37.5245 124.937L37.523 123.605C37.5241 123.433 37.3819 123.281 37.2065 123.301C37.0386 123.308 36.8846 123.461 36.8958 123.64L36.8946 125.006C36.8128 125.062 36.7283 125.152 36.6684 125.256C36.4737 125.593 36.5822 126.001 36.8897 126.179C37.1356 126.321 37.4222 126.279 37.6356 126.108L38.8899 126.832C39.0006 126.896 39.1391 126.855 39.2065 126.738C39.2984 126.636 39.26 126.475 39.1493 126.411Z" fill="#007950"/>
<path d="M41.0423 127.291L41.0486 127.28C42.1687 125.34 41.496 122.857 39.559 121.738C37.6219 120.62 35.1391 121.296 34.0253 123.225C32.9052 125.166 33.5778 127.649 35.5041 128.761C36.6079 129.399 37.893 129.447 39.0054 129.02L38.5535 127.328C37.8898 127.653 37.0665 127.655 36.3739 127.255C35.2701 126.618 34.8912 125.199 35.5295 124.094C36.1678 122.988 37.5853 122.607 38.6892 123.245C39.793 123.882 40.1718 125.3 39.5335 126.406L39.5273 126.417L41.0423 127.291Z" fill="#007950"/>
<path d="M53.5145 123.767L54.4455 124.876C54.2938 125.115 54.2999 125.425 54.4915 125.653C54.5098 125.675 54.5189 125.686 54.5372 125.707L54.0829 126.96C54.0229 127.121 54.1048 127.312 54.2764 127.354C54.4365 127.405 54.6336 127.313 54.6844 127.141L55.1525 125.858C55.2487 125.833 55.3588 125.778 55.4505 125.701C55.7488 125.451 55.7865 125.03 55.5584 124.758C55.3758 124.54 55.0921 124.482 54.8332 124.569L53.9022 123.46C53.8201 123.362 53.6759 123.353 53.5726 123.44C53.4511 123.505 53.4324 123.669 53.5145 123.767Z" fill="#007950"/>
<path d="M71.3692 123.908L70.8738 125.269C70.5914 125.257 70.3259 125.417 70.2239 125.698C70.2142 125.724 70.2093 125.738 70.1996 125.764L68.8878 125.997C68.718 126.026 68.5937 126.192 68.6436 126.362C68.6795 126.526 68.8571 126.651 69.0318 126.609L70.3766 126.373C70.4464 126.443 70.5493 126.511 70.6618 126.552C71.0277 126.685 71.4111 126.507 71.5325 126.174C71.6297 125.907 71.5385 125.632 71.3333 125.452L71.8287 124.091C71.8724 123.97 71.8079 123.841 71.6812 123.795C71.5643 123.722 71.4129 123.788 71.3692 123.908Z" fill="#007950"/>
<path d="M85.955 126.74L86.2065 125.314C86.4868 125.276 86.7204 125.073 86.7722 124.779C86.7771 124.751 86.7796 124.737 86.7845 124.709L88.0359 124.252C88.1982 124.194 88.2917 124.009 88.2131 123.851C88.1493 123.695 87.9527 123.603 87.788 123.675L86.5046 124.141C86.4235 124.083 86.3105 124.034 86.1925 124.013C85.8091 123.946 85.4623 124.187 85.4007 124.537C85.3514 124.817 85.4889 125.072 85.7223 125.214L85.4708 126.64C85.4486 126.766 85.5346 126.882 85.6673 126.905C85.7951 126.957 85.9328 126.866 85.955 126.74Z" fill="#007950"/>
<path d="M104.501 125.108L103.14 125.603C102.967 125.379 102.674 125.279 102.394 125.381C102.367 125.391 102.354 125.395 102.327 125.405L101.306 124.55C101.174 124.438 100.967 124.45 100.869 124.597C100.767 124.73 100.785 124.947 100.93 125.053L101.975 125.932C101.965 126.031 101.98 126.153 102.021 126.266C102.154 126.631 102.536 126.811 102.87 126.69C103.137 126.592 103.289 126.346 103.295 126.073L104.656 125.577C104.776 125.534 104.834 125.401 104.788 125.274C104.768 125.138 104.621 125.064 104.501 125.108Z" fill="#007950"/>
<path d="M51.1608 122.138L51.1512 122.146C49.4351 123.586 49.2176 126.15 50.6554 127.864C52.0932 129.577 54.6575 129.791 56.364 128.359C58.0801 126.919 58.2976 124.355 56.8678 122.651C56.0486 121.674 54.8575 121.189 53.6661 121.21L53.5121 122.954C54.247 122.876 55.0212 123.156 55.5352 123.769C56.3545 124.745 56.2255 126.208 55.2476 127.028C54.2697 127.849 52.8073 127.722 51.988 126.745C51.1687 125.769 51.2978 124.307 52.2757 123.486L52.2853 123.478L51.1608 122.138Z" fill="#007950"/>
<path d="M71.3751 121.446L71.3633 121.442C69.2582 120.676 66.929 121.77 66.164 123.872C65.399 125.973 66.4963 128.301 68.5896 129.063C70.6947 129.829 73.024 128.735 73.7847 126.645C74.2206 125.448 74.045 124.174 73.4312 123.152L71.8438 123.891C72.2791 124.488 72.4235 125.299 72.15 126.05C71.7141 127.248 70.3833 127.867 69.1837 127.431C67.9841 126.994 67.3628 125.664 67.7987 124.467C68.2346 123.269 69.5655 122.649 70.765 123.086L70.7768 123.09L71.3751 121.446Z" fill="#007950"/>
<path d="M85.4787 129.244L85.4911 129.246C87.6972 129.635 89.8011 128.153 90.1895 125.951C90.5779 123.748 89.0931 121.646 86.8993 121.259C84.6931 120.87 82.5892 122.352 82.203 124.542C81.9817 125.797 82.3758 127.022 83.1576 127.921L84.5926 126.918C84.0603 126.405 83.7773 125.632 83.9161 124.844C84.1375 123.589 85.3405 122.748 86.5977 122.97C87.8548 123.191 88.6977 124.393 88.4764 125.648C88.255 126.904 87.052 127.745 85.7948 127.523L85.7825 127.521L85.4787 129.244Z" fill="#007950"/>
<path d="M106.231 123.878L106.226 123.866C105.46 121.761 103.125 120.68 101.023 121.445C98.9214 122.21 97.8437 124.546 98.6056 126.64C99.3718 128.745 101.707 129.826 103.797 129.065C104.995 128.629 105.858 127.676 106.245 126.549L104.659 125.808C104.482 126.525 103.953 127.157 103.202 127.431C102.004 127.867 100.674 127.245 100.238 126.046C99.8012 124.846 100.42 123.515 101.618 123.079C102.816 122.643 104.146 123.265 104.582 124.464L104.587 124.476L106.231 123.878Z" fill="#007950"/>
<path d="M11.8965 138.181L11.4011 139.542C11.1187 139.53 10.8532 139.69 10.7512 139.971C10.7415 139.997 10.7367 140.011 10.7269 140.037L9.41518 140.27C9.24533 140.299 9.12105 140.465 9.17098 140.634C9.20685 140.799 9.38442 140.924 9.55913 140.882L10.9039 140.646C10.9738 140.716 11.0766 140.784 11.1892 140.825C11.5551 140.958 11.9385 140.78 12.0599 140.447C12.157 140.18 12.0659 139.905 11.8606 139.725L12.356 138.364C12.3997 138.243 12.3352 138.114 12.2086 138.068C12.0916 137.995 11.9402 138.061 11.8965 138.181Z" fill="#007950"/>
<path d="M11.9044 135.719L11.8926 135.715C9.78754 134.949 7.45832 136.043 6.69331 138.145C5.9283 140.246 7.0256 142.574 9.11894 143.336C11.224 144.102 13.5533 143.008 14.314 140.918C14.7499 139.721 14.5743 138.447 13.9605 137.425L12.3731 138.164C12.8084 138.761 12.9528 139.572 12.6793 140.323C12.2434 141.521 10.9125 142.14 9.713 141.704C8.51344 141.267 7.89206 139.937 8.32799 138.739C8.76392 137.542 10.0948 136.922 11.2943 137.359L11.3061 137.363L11.9044 135.719Z" fill="#007950"/>
<path d="M104.501 139.381L103.14 139.876C102.967 139.652 102.674 139.552 102.394 139.654C102.367 139.664 102.354 139.668 102.327 139.678L101.306 138.823C101.174 138.711 100.967 138.723 100.869 138.87C100.767 139.003 100.785 139.219 100.93 139.326L101.975 140.205C101.965 140.304 101.98 140.426 102.021 140.539C102.154 140.904 102.536 141.084 102.87 140.962C103.137 140.865 103.289 140.619 103.295 140.346L104.656 139.85C104.776 139.806 104.834 139.674 104.788 139.547C104.768 139.411 104.621 139.337 104.501 139.381Z" fill="#007950"/>
<path d="M106.231 138.15L106.226 138.138C105.46 136.033 103.125 134.952 101.023 135.717C98.9214 136.482 97.8437 138.819 98.6056 140.912C99.3718 143.017 101.707 144.098 103.797 143.338C104.995 142.902 105.858 141.948 106.245 140.822L104.659 140.08C104.482 140.798 103.953 141.429 103.202 141.703C102.004 142.139 100.674 141.517 100.238 140.318C99.8012 139.118 100.42 137.787 101.618 137.352C102.816 136.916 104.146 137.537 104.582 138.737L104.587 138.748L106.231 138.15Z" fill="#007950"/>
<path d="M11.8965 152.455L11.4011 153.816C11.1187 153.804 10.8532 153.964 10.7512 154.244C10.7415 154.271 10.7367 154.284 10.7269 154.311L9.41518 154.543C9.24533 154.572 9.12105 154.739 9.17098 154.908C9.20685 155.072 9.38442 155.197 9.55913 155.155L10.9039 154.919C10.9738 154.99 11.0766 155.058 11.1892 155.098C11.5551 155.232 11.9385 155.054 12.0599 154.72C12.157 154.453 12.0659 154.178 11.8606 153.998L12.356 152.637C12.3997 152.517 12.3352 152.388 12.2086 152.342C12.0916 152.269 11.9402 152.335 11.8965 152.455Z" fill="#007950"/>
<path d="M11.9044 149.993L11.8926 149.989C9.78754 149.222 7.45832 150.316 6.69331 152.418C5.9283 154.52 7.0256 156.847 9.11894 157.609C11.224 158.375 13.5533 157.282 14.314 155.192C14.7499 153.994 14.5743 152.72 13.9605 151.699L12.3731 152.437C12.8084 153.035 12.9528 153.845 12.6793 154.597C12.2434 155.794 10.9125 156.414 9.713 155.977C8.51344 155.54 7.89206 154.211 8.32799 153.013C8.76392 151.815 10.0948 151.196 11.2943 151.632L11.3061 151.637L11.9044 149.993Z" fill="#007950"/>
<path d="M23.7812 155.287L24.0327 153.86C24.3129 153.823 24.5466 153.619 24.5983 153.326C24.6033 153.298 24.6057 153.284 24.6107 153.256L25.8621 152.799C26.0244 152.741 26.1179 152.555 26.0393 152.397C25.9755 152.242 25.7789 152.149 25.6141 152.221L24.3308 152.687C24.2497 152.63 24.1366 152.581 24.0187 152.56C23.6352 152.492 23.2885 152.734 23.2269 153.084C23.1775 153.363 23.3151 153.618 23.5485 153.76L23.297 155.187C23.2748 155.313 23.3608 155.429 23.4935 155.452C23.6213 155.503 23.759 155.412 23.7812 155.287Z" fill="#007950"/>
<path d="M23.3049 157.79L23.3172 157.792C25.5234 158.181 27.6273 156.7 28.0157 154.497C28.4041 152.294 26.9193 150.192 24.7255 149.806C22.5193 149.417 20.4154 150.898 20.0292 153.089C19.8078 154.344 20.202 155.568 20.9838 156.467L22.4188 155.464C21.8865 154.951 21.6034 154.178 21.7423 153.391C21.9636 152.136 23.1667 151.295 24.4239 151.516C25.681 151.738 26.5239 152.94 26.3025 154.195C26.0812 155.45 24.8781 156.291 23.621 156.069L23.6087 156.067L23.3049 157.79Z" fill="#007950"/>
<path d="M39.1493 154.958L37.895 154.233C37.9559 153.957 37.8442 153.668 37.586 153.519C37.5614 153.505 37.5491 153.498 37.5245 153.483L37.523 152.151C37.5241 151.979 37.3819 151.828 37.2065 151.847C37.0386 151.854 36.8846 152.007 36.8958 152.187L36.8946 153.552C36.8128 153.609 36.7283 153.698 36.6684 153.802C36.4737 154.139 36.5822 154.548 36.8897 154.725C37.1356 154.867 37.4222 154.825 37.6356 154.654L38.8899 155.378C39.0006 155.442 39.1391 155.401 39.2065 155.285C39.2984 155.182 39.26 155.021 39.1493 154.958Z" fill="#007950"/>
<path d="M41.0423 155.838L41.0486 155.827C42.1687 153.887 41.496 151.403 39.559 150.285C37.6219 149.166 35.1391 149.843 34.0253 151.772C32.9052 153.712 33.5778 156.196 35.5041 157.308C36.6079 157.945 37.893 157.993 39.0054 157.566L38.5535 155.875C37.8898 156.2 37.0665 156.201 36.3739 155.801C35.2701 155.164 34.8912 153.746 35.5295 152.64C36.1678 151.535 37.5853 151.154 38.6892 151.791C39.793 152.428 40.1718 153.847 39.5335 154.952L39.5273 154.963L41.0423 155.838Z" fill="#007950"/>
<path d="M53.5145 152.313L54.4455 153.422C54.2938 153.661 54.2999 153.971 54.4915 154.199C54.5098 154.221 54.5189 154.232 54.5372 154.254L54.0829 155.506C54.0229 155.668 54.1048 155.859 54.2764 155.9C54.4365 155.951 54.6336 155.86 54.6844 155.687L55.1525 154.405C55.2487 154.38 55.3588 154.324 55.4505 154.247C55.7488 153.997 55.7865 153.576 55.5584 153.304C55.3758 153.087 55.0921 153.028 54.8332 153.116L53.9022 152.006C53.8201 151.908 53.6759 151.9 53.5726 151.986C53.4511 152.051 53.4324 152.215 53.5145 152.313Z" fill="#007950"/>
<path d="M71.3692 152.455L70.8738 153.816C70.5914 153.804 70.3259 153.964 70.2239 154.244C70.2142 154.271 70.2093 154.284 70.1996 154.311L68.8878 154.543C68.718 154.572 68.5937 154.739 68.6436 154.908C68.6795 155.072 68.8571 155.197 69.0318 155.155L70.3766 154.919C70.4464 154.99 70.5493 155.058 70.6618 155.098C71.0277 155.232 71.4111 155.054 71.5325 154.72C71.6297 154.453 71.5385 154.178 71.3333 153.998L71.8287 152.637C71.8724 152.517 71.8079 152.388 71.6812 152.342C71.5643 152.269 71.4129 152.335 71.3692 152.455Z" fill="#007950"/>
<path d="M85.955 155.286L86.2065 153.86C86.4868 153.823 86.7204 153.619 86.7722 153.325C86.7771 153.297 86.7796 153.283 86.7845 153.255L88.0359 152.798C88.1982 152.74 88.2917 152.555 88.2131 152.397C88.1493 152.242 87.9527 152.149 87.788 152.221L86.5046 152.687C86.4235 152.629 86.3105 152.581 86.1925 152.56C85.8091 152.492 85.4623 152.734 85.4007 153.083C85.3514 153.363 85.4889 153.618 85.7223 153.76L85.4708 155.187C85.4486 155.312 85.5346 155.428 85.6673 155.452C85.7951 155.503 85.9328 155.412 85.955 155.286Z" fill="#007950"/>
<path d="M104.501 153.654L103.14 154.15C102.967 153.926 102.674 153.825 102.394 153.927C102.367 153.937 102.354 153.942 102.327 153.952L101.306 153.096C101.174 152.985 100.967 152.996 100.869 153.143C100.767 153.276 100.785 153.493 100.93 153.6L101.975 154.478C101.965 154.577 101.98 154.699 102.021 154.812C102.154 155.178 102.536 155.357 102.87 155.236C103.137 155.139 103.289 154.892 103.295 154.619L104.656 154.124C104.776 154.08 104.834 153.947 104.788 153.821C104.768 153.684 104.621 153.611 104.501 153.654Z" fill="#007950"/>
<path d="M51.1608 150.685L51.1512 150.693C49.4351 152.133 49.2176 154.697 50.6554 156.41C52.0932 158.123 54.6575 158.337 56.364 156.905C58.0801 155.465 58.2976 152.901 56.8678 151.197C56.0486 150.221 54.8575 149.736 53.6661 149.757L53.5121 151.501C54.247 151.423 55.0212 151.703 55.5352 152.315C56.3545 153.292 56.2255 154.754 55.2476 155.574C54.2697 156.395 52.8073 156.268 51.988 155.292C51.1687 154.315 51.2978 152.853 52.2757 152.033L52.2853 152.025L51.1608 150.685Z" fill="#007950"/>
<path d="M71.3751 149.993L71.3633 149.989C69.2582 149.222 66.929 150.316 66.164 152.418C65.399 154.52 66.4963 156.847 68.5896 157.609C70.6947 158.375 73.024 157.282 73.7847 155.192C74.2206 153.994 74.045 152.72 73.4312 151.699L71.8438 152.437C72.2791 153.035 72.4235 153.845 72.15 154.597C71.7141 155.794 70.3833 156.414 69.1837 155.977C67.9841 155.54 67.3628 154.211 67.7987 153.013C68.2346 151.815 69.5655 151.196 70.765 151.632L70.7768 151.637L71.3751 149.993Z" fill="#007950"/>
<path d="M85.4787 157.79L85.4911 157.792C87.6972 158.181 89.8011 156.7 90.1895 154.497C90.5779 152.294 89.0931 150.192 86.8993 149.806C84.6931 149.417 82.5892 150.898 82.203 153.089C81.9817 154.344 82.3758 155.568 83.1576 156.467L84.5926 155.464C84.0603 154.951 83.7773 154.178 83.9161 153.391C84.1375 152.136 85.3405 151.295 86.5977 151.516C87.8548 151.738 88.6977 152.94 88.4764 154.195C88.255 155.45 87.052 156.291 85.7948 156.069L85.7825 156.067L85.4787 157.79Z" fill="#007950"/>
<path d="M106.231 152.424L106.226 152.412C105.46 150.307 103.125 149.226 101.023 149.991C98.9214 150.756 97.8437 153.093 98.6056 155.186C99.3718 157.291 101.707 158.372 103.797 157.612C104.995 157.176 105.858 156.222 106.245 155.096L104.659 154.355C104.482 155.072 103.953 155.703 103.202 155.977C102.004 156.413 100.674 155.792 100.238 154.592C99.8012 153.392 100.42 152.062 101.618 151.626C102.816 151.19 104.146 151.811 104.582 153.011L104.587 153.022L106.231 152.424Z" fill="#007950"/>
<path d="M83.5106 24.2327C83.0727 23.8306 82.4739 23.625 81.6964 23.625C80.8116 23.625 79.9715 23.8306 79.1582 24.2327V26.8335C79.3548 26.762 79.5783 26.7262 79.8017 26.7262C80.0519 26.7262 80.2754 26.7709 80.4898 26.8513V24.903C80.8473 24.8405 81.1959 24.8047 81.5176 24.8047C81.8036 24.8047 82.0449 24.8315 82.2237 24.8851C82.4113 24.9388 82.5454 25.0192 82.6258 25.1265C82.7063 25.2337 82.7599 25.3409 82.7867 25.4393C82.8135 25.5376 82.8314 25.6627 82.8314 25.8146V29.2554H84.163V25.9219C84.163 25.1979 83.9485 24.6349 83.5106 24.2327Z" fill="white"/>
<path d="M30.5228 23.7678L31.7204 27.8879L32.9716 23.7678H34.4731L32.5605 29.2821H30.9876L30.4245 27.6555L29.933 25.8234L29.4414 27.6555L28.8784 29.2821H27.2965L25.375 23.7678H26.8854L28.1366 27.8879L29.3252 23.7678H30.5228Z" fill="white"/>
<path d="M42.1926 23.7768L42.2909 24.4113C42.711 23.7321 43.283 23.6338 43.8371 23.6338C44.4001 23.6338 44.9453 23.8572 45.2491 24.1521L44.6414 25.3319C44.3644 25.0995 44.1052 24.9744 43.6673 24.9744C42.9523 24.9744 42.2999 25.3497 42.2999 26.3596V29.2464H40.9414V23.7768H42.1926Z" fill="white"/>
<path d="M57.5861 22.2309C57.5861 23.2855 55.9863 23.2855 55.9863 22.2309C55.9863 21.1763 57.5861 21.1763 57.5861 22.2309ZM56.1114 23.7502V29.2466H57.4699V23.7502H56.1114Z" fill="white"/>
<path d="M60.0141 23.7499V29.2552C60.0141 30.6136 59.4242 31.4895 58.1909 31.4895C57.7887 31.4895 57.3687 31.3822 56.9844 31.1231L57.4759 30.0685C57.7083 30.1757 57.9317 30.2383 58.1283 30.2204C58.5752 30.2025 58.6735 29.854 58.6735 29.2552V23.7499H60.0141ZM58.5484 22.2216C58.5484 23.2762 60.1481 23.2762 60.1481 22.2216C60.1481 21.167 58.5484 21.167 58.5484 22.2216Z" fill="white"/>
<path d="M73.0293 29.2554V24.2327C73.8426 23.8306 74.6916 23.625 75.5675 23.625C76.3361 23.625 76.9438 23.8306 77.3817 24.2327C77.8196 24.6349 78.0341 25.1979 78.0341 25.9308V29.2554H76.7025V25.8146C76.7025 25.6627 76.6936 25.5465 76.6667 25.4393C76.6399 25.3409 76.5863 25.2337 76.5059 25.1265C76.4254 25.0192 76.2914 24.9388 76.1037 24.8851C75.916 24.8315 75.6836 24.8047 75.3977 24.8047C75.0759 24.8047 74.7274 24.8405 74.3699 24.903V29.2554H73.0293Z" fill="white"/>
<path d="M45.9219 29.2554H47.2714V26.7798L49.4163 29.2554H51.0518V29.1571L48.5047 26.3598L50.7926 23.8037V23.7233H49.175L47.2714 25.9755V21.7839H45.9219V29.2554Z" fill="white"/>
<path d="M64.3939 23.6965C64.0811 23.6429 63.7773 23.6071 63.4824 23.6071C62.6601 23.6071 62.0345 23.8484 61.6055 24.3221C61.1676 24.7958 60.9531 25.475 60.9531 26.3687C60.9531 26.8603 61.0157 27.2893 61.1408 27.6646C61.2659 28.04 61.4179 28.326 61.5966 28.5137C61.7753 28.7103 61.9898 28.8622 62.2311 28.9873C62.4724 29.1124 62.6869 29.1839 62.8657 29.2108C63.0444 29.2376 63.2232 29.2554 63.4109 29.2554C64.1973 29.2554 64.7782 29.0767 65.1536 28.7103C65.5379 28.3438 65.7256 27.9149 65.7256 27.4144V21.7839H64.4118V23.6965H64.3939ZM64.3939 27.5306C64.3939 27.9238 64.0633 28.1204 63.393 28.1204C62.9729 28.1204 62.678 27.9774 62.5171 27.6914C62.3473 27.4054 62.2669 26.9407 62.2669 26.2972C62.2669 25.6806 62.3741 25.2516 62.5886 25.0013C62.8031 24.76 63.1159 24.6349 63.527 24.6349C63.8488 24.6349 64.1348 24.6707 64.3939 24.7243V27.5306Z" fill="white"/>
<path d="M52.3483 23.7233H51.4277V24.8583H52.3483V27.4412C52.3483 28.0042 52.5002 28.4511 52.813 28.7728C53.1258 29.0946 53.5548 29.2554 54.091 29.2554C54.1 29.2554 54.1089 29.2554 54.1178 29.2554C54.4217 29.2554 54.6988 29.2018 54.9579 29.0946V28.0042C54.7792 28.0847 54.5647 28.1204 54.3323 28.1204C54.0821 28.1204 53.9123 28.0757 53.814 27.9953C53.7157 27.9149 53.662 27.754 53.662 27.5216V24.8583H54.9579V23.7322H53.662V21.7839H52.3483V23.7233Z" fill="white"/>
<path d="M80.6076 28.5495C80.6076 29.6041 79.0078 29.6041 79.0078 28.5495C79.0078 27.4949 80.6076 27.4949 80.6076 28.5495Z" fill="white"/>
<path d="M70.5438 26.5742H69.6322C69.5786 26.4133 69.4267 26.2971 69.239 26.2971C69.2211 26.2971 69.2122 26.2971 69.1943 26.2971L68.7743 25.6089C68.7206 25.5196 68.5955 25.4838 68.5062 25.5464C68.4168 25.6 68.381 25.7251 68.4436 25.8145L68.8726 26.5205C68.8458 26.5742 68.8279 26.6457 68.8279 26.7171C68.8279 26.9495 69.0156 27.1283 69.239 27.1283C69.4177 27.1283 69.5607 27.021 69.6233 26.8691H70.5349C70.6153 26.8691 70.6779 26.8065 70.6779 26.7261C70.6958 26.6457 70.6243 26.5742 70.5438 26.5742Z" fill="white"/>
<path d="M72.2592 26.5208V26.5119C72.2592 24.9121 70.9544 23.6162 69.3546 23.6162C67.7549 23.6162 66.459 24.921 66.459 26.5119C66.459 28.1116 67.7638 29.4075 69.3546 29.4075C70.2662 29.4075 71.0795 28.9785 71.6157 28.3172L70.731 27.4324C70.436 27.8703 69.9266 28.1652 69.3546 28.1652C68.443 28.1652 67.7013 27.4235 67.7013 26.5119C67.7013 25.6003 68.443 24.8585 69.3546 24.8585C70.2662 24.8585 71.008 25.6003 71.008 26.5119V26.5208H72.2592Z" fill="white"/>
<path d="M38.7098 26.5742H37.7983C37.7446 26.4133 37.5927 26.2971 37.405 26.2971C37.3871 26.2971 37.3782 26.2971 37.3603 26.2971L36.9403 25.6089C36.8867 25.5196 36.7615 25.4838 36.6722 25.5464C36.5828 25.6 36.547 25.7251 36.6096 25.8145L37.0386 26.5205C37.0118 26.5831 36.9939 26.6457 36.9939 26.7171C36.9939 26.9495 37.1816 27.1283 37.405 27.1283C37.5748 27.1283 37.7268 27.021 37.7893 26.8691H38.7009C38.7813 26.8691 38.8439 26.8065 38.8439 26.7261C38.8528 26.6457 38.7903 26.5742 38.7098 26.5742Z" fill="white"/>
<path d="M40.4241 26.5208V26.5119C40.4241 24.9121 39.1193 23.6162 37.5285 23.6162C35.9287 23.6162 34.6328 24.921 34.6328 26.5119C34.6328 28.1116 35.9376 29.4075 37.5285 29.4075C38.4401 29.4075 39.2533 28.9785 39.7896 28.3172L38.9048 27.4324C38.6099 27.8703 38.1004 28.1652 37.5285 28.1652C36.6169 28.1652 35.8751 27.4235 35.8751 26.5119C35.8751 25.6003 36.6169 24.8585 37.5285 24.8585C38.4401 24.8585 39.1818 25.6003 39.1818 26.5119V26.5208H40.4241Z" fill="white"/>
<path d="M86.6492 21.7839H85.3086V29.2554H86.6492V21.7839Z" fill="white"/>
<path d="M29.4152 141.323C29.8531 141.726 30.4519 141.931 31.2294 141.931C32.1142 141.931 32.9543 141.726 33.7676 141.323V138.723C33.571 138.794 33.3475 138.83 33.1241 138.83C32.8739 138.83 32.6504 138.785 32.4359 138.705V140.653C32.0784 140.716 31.7299 140.751 31.4082 140.751C31.1222 140.751 30.8809 140.725 30.7021 140.671C30.5144 140.617 30.3804 140.537 30.2999 140.43C30.2195 140.322 30.1659 140.215 30.1391 140.117C30.1123 140.019 30.0944 139.893 30.0944 139.742V136.301H28.7627V139.634C28.7627 140.358 28.9772 140.921 29.4152 141.323Z" fill="white"/>
<path d="M82.401 141.788L81.2034 137.668L79.9522 141.788H78.4508L80.3633 136.274H81.9363L82.4993 137.9L82.9909 139.733L83.4824 137.9L84.0454 136.274H85.6273L87.5488 141.788H86.0384L84.7872 137.668L83.5986 141.788H82.401Z" fill="white"/>
<path d="M70.7293 141.779L70.631 141.145C70.2109 141.824 69.6389 141.922 69.0848 141.922C68.5218 141.922 67.9766 141.699 67.6727 141.404L68.2805 140.224C68.5575 140.456 68.8167 140.582 69.2546 140.582C69.9696 140.582 70.622 140.206 70.622 139.196V136.31H71.9805V141.779H70.7293Z" fill="white"/>
<path d="M55.3397 143.325C55.3397 142.271 56.9395 142.271 56.9395 143.325C56.9395 144.38 55.3397 144.38 55.3397 143.325ZM56.8143 141.806V136.31H55.4559V141.806H56.8143Z" fill="white"/>
<path d="M52.9097 141.806V136.301C52.9097 134.942 53.4996 134.066 54.7329 134.066C55.1351 134.066 55.5552 134.174 55.9395 134.433L55.4479 135.487C55.2155 135.38 54.9921 135.318 54.7955 135.336C54.3486 135.353 54.2503 135.702 54.2503 136.301V141.806H52.9097ZM54.3754 143.334C54.3754 142.28 52.7757 142.28 52.7757 143.334C52.7757 144.389 54.3754 144.389 54.3754 143.334Z" fill="white"/>
<path d="M39.8965 136.301V141.323C39.0832 141.726 38.2342 141.931 37.3583 141.931C36.5897 141.931 35.982 141.726 35.5441 141.323C35.1061 140.921 34.8917 140.358 34.8917 139.625V136.301H36.2233V139.742C36.2233 139.893 36.2322 140.01 36.259 140.117C36.2859 140.215 36.3395 140.322 36.4199 140.43C36.5003 140.537 36.6344 140.617 36.8221 140.671C37.0098 140.725 37.2421 140.751 37.5281 140.751C37.8499 140.751 38.1984 140.716 38.5559 140.653V136.301H39.8965Z" fill="white"/>
<path d="M67.002 136.3H65.6524V138.776L63.5075 136.3H61.872V136.399L64.4191 139.196L62.1312 141.752V141.833H63.7488L65.6524 139.58V143.772H67.002V136.3Z" fill="white"/>
<path d="M48.5299 141.859C48.8427 141.913 49.1465 141.949 49.4415 141.949C50.2637 141.949 50.8893 141.707 51.3183 141.234C51.7562 140.76 51.9707 140.081 51.9707 139.187C51.9707 138.696 51.9081 138.267 51.783 137.891C51.6579 137.516 51.506 137.23 51.3272 137.042C51.1485 136.846 50.934 136.694 50.6927 136.569C50.4514 136.443 50.2369 136.372 50.0581 136.345C49.8794 136.318 49.7007 136.3 49.513 136.3C48.7265 136.3 48.1456 136.479 47.7702 136.846C47.3859 137.212 47.1982 137.641 47.1982 138.142V143.772H48.512V141.859H48.5299ZM48.5299 138.025C48.5299 137.632 48.8606 137.435 49.5308 137.435C49.9509 137.435 50.2458 137.578 50.4067 137.864C50.5765 138.15 50.6569 138.615 50.6569 139.259C50.6569 139.875 50.5497 140.304 50.3352 140.555C50.1207 140.796 49.8079 140.921 49.3968 140.921C49.075 140.921 48.7891 140.885 48.5299 140.832V138.025Z" fill="white"/>
<path d="M60.5775 141.833H61.498V140.698H60.5775V138.115C60.5775 137.552 60.4256 137.105 60.1128 136.783C59.8 136.461 59.371 136.3 58.8348 136.3C58.8258 136.3 58.8169 136.3 58.8079 136.3C58.5041 136.3 58.227 136.354 57.9679 136.461V137.552C58.1466 137.471 58.3611 137.435 58.5935 137.435C58.8437 137.435 59.0135 137.48 59.1118 137.561C59.2101 137.641 59.2637 137.802 59.2637 138.034V140.698H57.9679V141.824H59.2637V143.772H60.5775V141.833Z" fill="white"/>
<path d="M32.3182 137.007C32.3182 135.952 33.918 135.952 33.918 137.007C33.918 138.061 32.3182 138.061 32.3182 137.007Z" fill="white"/>
<path d="M42.38 138.982H43.2916C43.3452 139.143 43.4971 139.259 43.6848 139.259C43.7027 139.259 43.7116 139.259 43.7295 139.259L44.1496 139.947C44.2032 140.036 44.3283 140.072 44.4177 140.01C44.507 139.956 44.5428 139.831 44.4802 139.741L44.0513 139.035C44.0781 138.982 44.0959 138.91 44.0959 138.839C44.0959 138.606 43.9083 138.428 43.6848 138.428C43.5061 138.428 43.3631 138.535 43.3005 138.687H42.3889C42.3085 138.687 42.2459 138.749 42.2459 138.83C42.2281 138.91 42.2996 138.982 42.38 138.982Z" fill="white"/>
<path d="M40.6646 139.035V139.044C40.6646 140.644 41.9694 141.94 43.5692 141.94C45.1689 141.94 46.4648 140.635 46.4648 139.044C46.4648 137.445 45.16 136.149 43.5692 136.149C42.6576 136.149 41.8443 136.578 41.3081 137.239L42.1929 138.124C42.4878 137.686 42.9972 137.391 43.5692 137.391C44.4808 137.391 45.2226 138.133 45.2226 139.044C45.2226 139.956 44.4808 140.698 43.5692 140.698C42.6576 140.698 41.9158 139.956 41.9158 139.044V139.035H40.6646Z" fill="white"/>
<path d="M74.2179 138.982H75.1295C75.1831 139.143 75.335 139.259 75.5227 139.259C75.5406 139.259 75.5495 139.259 75.5674 139.259L75.9875 139.947C76.0411 140.036 76.1662 140.072 76.2556 140.01C76.3449 139.956 76.3807 139.831 76.3181 139.741L75.8891 139.035C75.916 138.973 75.9338 138.91 75.9338 138.839C75.9338 138.606 75.7461 138.428 75.5227 138.428C75.3529 138.428 75.201 138.535 75.1384 138.687H74.2268C74.1464 138.687 74.0838 138.749 74.0838 138.83C74.0749 138.91 74.1375 138.982 74.2179 138.982Z" fill="white"/>
<path d="M72.4997 139.035V139.044C72.4997 140.644 73.8045 141.94 75.3954 141.94C76.9951 141.94 78.291 140.635 78.291 139.044C78.291 137.445 76.9862 136.149 75.3954 136.149C74.4838 136.149 73.6705 136.578 73.1342 137.239L74.019 138.124C74.314 137.686 74.8234 137.391 75.3954 137.391C76.307 137.391 77.0487 138.133 77.0487 139.044C77.0487 139.956 76.307 140.698 75.3954 140.698C74.4838 140.698 73.742 139.956 73.742 139.044V139.035H72.4997Z" fill="white"/>
<path d="M26.2747 143.772H27.6152V136.3H26.2747V143.772Z" fill="white"/>
</svg>
