<svg width="153" height="151" viewBox="0 0 153 151" fill="none" xmlns="http://www.w3.org/2000/svg">
<g filter="url(#filter0_d_1589_258)">
<path d="M40.762 114C39.9856 114 39.5054 113.154 39.9034 112.487L62.2248 75.112C62.7454 74.2403 64.0833 74.6094 64.0833 75.6247V99C64.0833 99.5523 64.531 100 65.0833 100H80.238C81.0144 100 81.4946 100.846 81.0966 101.513L58.7752 138.888C58.2546 139.76 56.9167 139.391 56.9167 138.375V115C56.9167 114.448 56.469 114 55.9167 114H40.762Z" fill="url(#paint0_linear_1589_258)"/>
</g>
<g filter="url(#filter1_d_1589_258)">
<path d="M76.741 89C75.9692 89 75.4884 88.1628 75.8773 87.4961L97.6362 50.1951C98.1505 49.3134 99.5 49.6782 99.5 50.6989V74C99.5 74.5523 99.9477 75 100.5 75H115.259C116.031 75 116.512 75.8372 116.123 76.5039L94.3638 113.805C93.8495 114.687 92.5 114.322 92.5 113.301V90C92.5 89.4477 92.0523 89 91.5 89H76.741Z" fill="url(#paint1_linear_1589_258)"/>
</g>
<g filter="url(#filter2_d_1589_258)">
<path fill-rule="evenodd" clip-rule="evenodd" d="M143 50.9118C143 74.059 124.235 92.8235 101.088 92.8235C100.902 92.8235 100.715 92.8223 100.529 92.8199V92.8235H42.4118H39.0588V92.6522C22.7337 90.9744 10 77.1801 10 60.4118C10 42.5112 24.5112 28 42.4118 28C49.9346 28 56.8588 30.5629 62.3589 34.8632C68.6578 19.6794 83.6259 9 101.088 9C124.235 9 143 27.7645 143 50.9118Z" fill="url(#paint2_linear_1589_258)"/>
</g>
<defs>
<filter id="filter0_d_1589_258" x="29.7603" y="65.623" width="61.4795" height="84.7539" filterUnits="userSpaceOnUse" color-interpolation-filters="sRGB">
<feFlood flood-opacity="0" result="BackgroundImageFix"/>
<feColorMatrix in="SourceAlpha" type="matrix" values="0 0 0 0 0 0 0 0 0 0 0 0 0 0 0 0 0 0 127 0" result="hardAlpha"/>
<feOffset dy="1"/>
<feGaussianBlur stdDeviation="5"/>
<feComposite in2="hardAlpha" operator="out"/>
<feColorMatrix type="matrix" values="0 0 0 0 0 0 0 0 0 0 0 0 0 0 0 0 0 0 0.05 0"/>
<feBlend mode="normal" in2="BackgroundImageFix" result="effect1_dropShadow_1589_258"/>
<feBlend mode="normal" in="SourceGraphic" in2="effect1_dropShadow_1589_258" result="shape"/>
</filter>
<filter id="filter1_d_1589_258" x="65.7397" y="40.6973" width="60.5205" height="84.6055" filterUnits="userSpaceOnUse" color-interpolation-filters="sRGB">
<feFlood flood-opacity="0" result="BackgroundImageFix"/>
<feColorMatrix in="SourceAlpha" type="matrix" values="0 0 0 0 0 0 0 0 0 0 0 0 0 0 0 0 0 0 127 0" result="hardAlpha"/>
<feOffset dy="1"/>
<feGaussianBlur stdDeviation="5"/>
<feComposite in2="hardAlpha" operator="out"/>
<feColorMatrix type="matrix" values="0 0 0 0 0 0 0 0 0 0 0 0 0 0 0 0 0 0 0.05 0"/>
<feBlend mode="normal" in2="BackgroundImageFix" result="effect1_dropShadow_1589_258"/>
<feBlend mode="normal" in="SourceGraphic" in2="effect1_dropShadow_1589_258" result="shape"/>
</filter>
<filter id="filter2_d_1589_258" x="0" y="0" width="153" height="103.824" filterUnits="userSpaceOnUse" color-interpolation-filters="sRGB">
<feFlood flood-opacity="0" result="BackgroundImageFix"/>
<feColorMatrix in="SourceAlpha" type="matrix" values="0 0 0 0 0 0 0 0 0 0 0 0 0 0 0 0 0 0 127 0" result="hardAlpha"/>
<feOffset dy="1"/>
<feGaussianBlur stdDeviation="5"/>
<feComposite in2="hardAlpha" operator="out"/>
<feColorMatrix type="matrix" values="0 0 0 0 0 0 0 0 0 0 0 0 0 0 0 0 0 0 0.05 0"/>
<feBlend mode="normal" in2="BackgroundImageFix" result="effect1_dropShadow_1589_258"/>
<feBlend mode="normal" in="SourceGraphic" in2="effect1_dropShadow_1589_258" result="shape"/>
</filter>
<linearGradient id="paint0_linear_1589_258" x1="60.5" y1="72" x2="60.5" y2="142" gradientUnits="userSpaceOnUse">
<stop stop-color="#F6C000"/>
<stop offset="1" stop-color="#FFCD4D"/>
</linearGradient>
<linearGradient id="paint1_linear_1589_258" x1="96" y1="47" x2="96" y2="117" gradientUnits="userSpaceOnUse">
<stop stop-color="#F6C000"/>
<stop offset="1" stop-color="#FFCD4D"/>
</linearGradient>
<linearGradient id="paint2_linear_1589_258" x1="75.3824" y1="7.88235" x2="104.441" y2="92.8235" gradientUnits="userSpaceOnUse">
<stop stop-color="#E3E3E3"/>
<stop offset="1" stop-color="#767676"/>
</linearGradient>
</defs>
</svg>
