<svg width="153" height="124" viewBox="0 0 153 124" fill="none" xmlns="http://www.w3.org/2000/svg">
<g filter="url(#filter0_d_1589_265)">
<ellipse cx="45" cy="37.5" rx="29" ry="28.5" fill="url(#paint0_linear_1589_265)"/>
</g>
<g filter="url(#filter1_d_1589_265)">
<path fill-rule="evenodd" clip-rule="evenodd" d="M143 70.9118C143 94.059 124.235 112.824 101.088 112.824C100.902 112.824 100.715 112.822 100.529 112.82V112.824H42.4118H39.0588V112.652C22.7337 110.974 10 97.1801 10 80.4118C10 62.5112 24.5112 48 42.4118 48C49.9346 48 56.8588 50.5629 62.3589 54.8632C68.6578 39.6794 83.6259 29 101.088 29C124.235 29 143 47.7645 143 70.9118Z" fill="url(#paint1_linear_1589_265)"/>
</g>
<defs>
<filter id="filter0_d_1589_265" x="6" y="0" width="78" height="77" filterUnits="userSpaceOnUse" color-interpolation-filters="sRGB">
<feFlood flood-opacity="0" result="BackgroundImageFix"/>
<feColorMatrix in="SourceAlpha" type="matrix" values="0 0 0 0 0 0 0 0 0 0 0 0 0 0 0 0 0 0 127 0" result="hardAlpha"/>
<feOffset dy="1"/>
<feGaussianBlur stdDeviation="5"/>
<feComposite in2="hardAlpha" operator="out"/>
<feColorMatrix type="matrix" values="0 0 0 0 0 0 0 0 0 0 0 0 0 0 0 0 0 0 0.05 0"/>
<feBlend mode="normal" in2="BackgroundImageFix" result="effect1_dropShadow_1589_265"/>
<feBlend mode="normal" in="SourceGraphic" in2="effect1_dropShadow_1589_265" result="shape"/>
</filter>
<filter id="filter1_d_1589_265" x="0" y="20" width="153" height="103.823" filterUnits="userSpaceOnUse" color-interpolation-filters="sRGB">
<feFlood flood-opacity="0" result="BackgroundImageFix"/>
<feColorMatrix in="SourceAlpha" type="matrix" values="0 0 0 0 0 0 0 0 0 0 0 0 0 0 0 0 0 0 127 0" result="hardAlpha"/>
<feOffset dy="1"/>
<feGaussianBlur stdDeviation="5"/>
<feComposite in2="hardAlpha" operator="out"/>
<feColorMatrix type="matrix" values="0 0 0 0 0 0 0 0 0 0 0 0 0 0 0 0 0 0 0.05 0"/>
<feBlend mode="normal" in2="BackgroundImageFix" result="effect1_dropShadow_1589_265"/>
<feBlend mode="normal" in="SourceGraphic" in2="effect1_dropShadow_1589_265" result="shape"/>
</filter>
<linearGradient id="paint0_linear_1589_265" x1="45" y1="9" x2="45" y2="66" gradientUnits="userSpaceOnUse">
<stop stop-color="#FFC700"/>
<stop offset="1" stop-color="#FFA800"/>
</linearGradient>
<linearGradient id="paint1_linear_1589_265" x1="75.3824" y1="27.8824" x2="104.441" y2="112.824" gradientUnits="userSpaceOnUse">
<stop stop-color="#F8F8F8"/>
<stop offset="1" stop-color="#F0F0F0"/>
</linearGradient>
</defs>
</svg>
