<svg width="153" height="126" viewBox="0 0 153 126" fill="none" xmlns="http://www.w3.org/2000/svg">
<g filter="url(#filter0_d_1589_263)">
<path d="M119.901 107.215L119.247 106.943C119.351 106.828 119.473 106.727 119.609 106.644C119.698 106.588 119.76 106.504 119.781 106.409C119.802 106.313 119.78 106.215 119.721 106.135C119.662 106.056 119.57 106.001 119.465 105.983C119.361 105.964 119.251 105.985 119.162 106.039C118.902 106.198 118.677 106.4 118.499 106.634L116.804 105.93L118.351 104.943C118.567 105.143 118.823 105.302 119.107 105.414C119.155 105.434 119.208 105.445 119.261 105.446C119.315 105.447 119.368 105.438 119.419 105.42C119.469 105.403 119.515 105.376 119.554 105.343C119.593 105.309 119.625 105.269 119.647 105.224C119.669 105.18 119.682 105.132 119.683 105.084C119.685 105.035 119.676 104.987 119.657 104.942C119.638 104.897 119.609 104.856 119.572 104.822C119.535 104.787 119.491 104.759 119.442 104.741C119.294 104.682 119.156 104.604 119.034 104.509L119.631 104.128C119.676 104.101 119.716 104.065 119.747 104.024C119.777 103.983 119.799 103.937 119.81 103.889C119.82 103.84 119.82 103.791 119.809 103.743C119.799 103.695 119.777 103.649 119.746 103.609C119.715 103.569 119.676 103.535 119.63 103.51C119.584 103.484 119.533 103.467 119.479 103.46C119.425 103.452 119.371 103.455 119.318 103.467C119.265 103.479 119.215 103.501 119.171 103.531L118.574 103.911C118.517 103.774 118.483 103.63 118.473 103.483C118.47 103.435 118.456 103.388 118.433 103.345C118.41 103.301 118.377 103.263 118.337 103.232C118.298 103.2 118.251 103.176 118.201 103.161C118.15 103.146 118.097 103.141 118.043 103.144L118.036 103.145C117.93 103.154 117.831 103.201 117.761 103.274C117.691 103.348 117.656 103.443 117.662 103.539C117.681 103.819 117.759 104.093 117.89 104.346L116.344 105.332L116.196 103.644C116.498 103.571 116.783 103.448 117.037 103.28C117.124 103.222 117.183 103.135 117.201 103.039C117.219 102.943 117.193 102.845 117.131 102.767C117.068 102.688 116.973 102.637 116.867 102.622C116.761 102.608 116.652 102.633 116.564 102.691C116.431 102.779 116.285 102.848 116.131 102.898L116.082 102.346C116.074 102.249 116.023 102.159 115.941 102.098C115.859 102.036 115.753 102.006 115.646 102.016C115.538 102.025 115.439 102.073 115.369 102.148C115.299 102.223 115.264 102.319 115.273 102.416L115.321 102.969C115.16 102.947 115.004 102.903 114.858 102.84C114.762 102.798 114.65 102.793 114.548 102.825C114.446 102.858 114.362 102.925 114.313 103.013C114.265 103.101 114.257 103.202 114.291 103.294C114.326 103.385 114.399 103.46 114.495 103.502C114.774 103.624 115.076 103.695 115.386 103.714L115.534 105.403L113.839 104.7C113.926 104.428 113.955 104.145 113.924 103.866C113.914 103.77 113.863 103.683 113.781 103.622C113.699 103.562 113.594 103.533 113.488 103.542L113.48 103.543C113.427 103.549 113.376 103.564 113.329 103.587C113.282 103.611 113.24 103.642 113.206 103.68C113.172 103.718 113.147 103.761 113.131 103.807C113.116 103.854 113.11 103.902 113.116 103.95C113.131 104.097 113.123 104.245 113.091 104.39L112.437 104.12C112.389 104.099 112.336 104.087 112.283 104.085C112.229 104.083 112.175 104.091 112.124 104.107C112.073 104.124 112.026 104.15 111.986 104.183C111.946 104.216 111.914 104.256 111.891 104.3C111.867 104.344 111.854 104.392 111.852 104.441C111.849 104.489 111.857 104.538 111.875 104.583C111.894 104.628 111.922 104.67 111.958 104.705C111.995 104.74 112.039 104.768 112.088 104.788L112.742 105.059C112.638 105.174 112.516 105.275 112.38 105.359C112.335 105.386 112.296 105.421 112.266 105.461C112.235 105.501 112.214 105.547 112.203 105.594C112.192 105.642 112.192 105.691 112.202 105.738C112.212 105.786 112.232 105.831 112.262 105.871C112.291 105.911 112.329 105.945 112.374 105.971C112.418 105.997 112.468 106.015 112.521 106.024C112.573 106.033 112.627 106.032 112.68 106.022C112.733 106.011 112.783 105.992 112.827 105.964C113.087 105.804 113.312 105.603 113.49 105.369L115.185 106.071L113.638 107.057C113.422 106.858 113.165 106.698 112.882 106.587C112.833 106.567 112.781 106.556 112.727 106.555C112.674 106.554 112.62 106.563 112.57 106.58C112.52 106.598 112.473 106.624 112.434 106.658C112.395 106.692 112.363 106.732 112.341 106.776C112.319 106.821 112.307 106.869 112.305 106.917C112.303 106.966 112.312 107.014 112.331 107.059C112.351 107.104 112.379 107.145 112.416 107.179C112.453 107.214 112.497 107.241 112.546 107.26C112.695 107.319 112.832 107.397 112.955 107.492L112.358 107.875C112.313 107.902 112.274 107.938 112.245 107.979C112.215 108.02 112.194 108.065 112.184 108.113C112.174 108.161 112.174 108.21 112.185 108.258C112.196 108.305 112.218 108.35 112.248 108.389C112.279 108.429 112.318 108.463 112.363 108.488C112.408 108.514 112.459 108.531 112.512 108.539C112.565 108.546 112.619 108.544 112.672 108.533C112.724 108.521 112.774 108.501 112.818 108.472L113.415 108.091C113.472 108.228 113.506 108.373 113.516 108.52C113.522 108.617 113.571 108.707 113.652 108.77C113.732 108.833 113.838 108.864 113.945 108.857L113.953 108.856C114.059 108.847 114.157 108.8 114.227 108.727C114.297 108.653 114.333 108.558 114.326 108.462C114.307 108.182 114.23 107.908 114.098 107.655L115.645 106.669L115.793 108.357C115.49 108.43 115.205 108.553 114.952 108.721C114.864 108.779 114.805 108.866 114.787 108.962C114.77 109.058 114.795 109.156 114.858 109.234C114.92 109.312 115.015 109.364 115.122 109.378C115.228 109.393 115.337 109.368 115.424 109.31C115.557 109.222 115.703 109.152 115.858 109.103L115.906 109.655C115.915 109.752 115.965 109.841 116.047 109.903C116.129 109.965 116.236 109.995 116.343 109.985C116.45 109.976 116.55 109.928 116.62 109.853C116.69 109.778 116.724 109.681 116.716 109.585L116.667 109.032C116.828 109.054 116.984 109.097 117.13 109.161C117.227 109.203 117.338 109.208 117.44 109.176C117.542 109.143 117.627 109.076 117.675 108.988C117.723 108.9 117.731 108.799 117.697 108.707C117.663 108.616 117.59 108.54 117.493 108.498C117.215 108.377 116.912 108.305 116.602 108.286L116.454 106.598L118.149 107.301C118.063 107.573 118.034 107.856 118.064 108.135C118.074 108.231 118.126 108.318 118.207 108.379C118.289 108.439 118.394 108.468 118.5 108.458L118.508 108.458C118.561 108.452 118.613 108.437 118.66 108.414C118.707 108.39 118.749 108.359 118.782 108.321C118.816 108.283 118.842 108.24 118.857 108.194C118.873 108.147 118.878 108.099 118.873 108.051C118.857 107.904 118.865 107.756 118.897 107.611L119.552 107.882C119.6 107.904 119.653 107.918 119.708 107.921C119.763 107.925 119.818 107.918 119.87 107.902C119.922 107.886 119.97 107.86 120.011 107.826C120.053 107.793 120.086 107.753 120.11 107.707C120.133 107.662 120.147 107.613 120.149 107.564C120.151 107.514 120.142 107.465 120.123 107.419C120.103 107.373 120.074 107.331 120.036 107.296C119.997 107.261 119.952 107.233 119.901 107.215Z" fill="#C4EDFF"/>
</g>
<g filter="url(#filter1_d_1589_263)">
<path d="M100.631 101.873L100.034 101.493C100.156 101.397 100.294 101.319 100.442 101.261C100.54 101.222 100.615 101.149 100.652 101.059C100.689 100.969 100.685 100.868 100.641 100.779C100.597 100.691 100.516 100.621 100.416 100.585C100.316 100.549 100.205 100.549 100.107 100.587C99.8233 100.699 99.5669 100.859 99.3509 101.058L97.8038 100.07L99.4984 99.3676C99.6765 99.6013 99.9013 99.8032 100.161 99.9626C100.206 99.9904 100.256 100.01 100.308 100.02C100.361 100.031 100.415 100.032 100.467 100.023C100.52 100.014 100.57 99.9962 100.614 99.9699C100.659 99.9436 100.697 99.9094 100.727 99.8695C100.756 99.8295 100.776 99.7845 100.787 99.7371C100.797 99.6897 100.796 99.6408 100.785 99.5932C100.774 99.5456 100.753 99.5002 100.723 99.4598C100.692 99.4193 100.654 99.3845 100.609 99.3575C100.473 99.2741 100.351 99.1732 100.247 99.0581L100.901 98.7868C100.95 98.7679 100.995 98.74 101.033 98.7049C101.07 98.6698 101.099 98.6281 101.118 98.5823C101.137 98.5365 101.146 98.4876 101.144 98.4384C101.141 98.3892 101.128 98.3408 101.104 98.296C101.081 98.2513 101.048 98.211 101.007 98.1777C100.967 98.1445 100.919 98.1188 100.867 98.1023C100.816 98.0857 100.761 98.0787 100.707 98.0816C100.653 98.0844 100.6 98.0972 100.552 98.119L99.8974 98.3901C99.8652 98.2451 99.8568 98.097 99.8725 97.9505C99.8779 97.9025 99.8727 97.8539 99.8573 97.8074C99.8419 97.761 99.8165 97.7175 99.7827 97.6796C99.7488 97.6417 99.7071 97.6101 99.66 97.5866C99.6129 97.563 99.5613 97.5481 99.5081 97.5425L99.5006 97.5418C99.3945 97.5325 99.2894 97.5612 99.2078 97.6216C99.1263 97.682 99.0748 97.7694 99.0644 97.8649C99.0342 98.1443 99.063 98.4273 99.1491 98.6989L97.4544 99.4021L97.6021 97.7134C97.9124 97.6945 98.2148 97.6226 98.4933 97.5014C98.5897 97.4594 98.6629 97.3843 98.697 97.2925C98.7311 97.2008 98.7232 97.0999 98.675 97.012C98.6269 96.9242 98.5424 96.8566 98.4403 96.8242C98.3381 96.7918 98.2266 96.7971 98.1302 96.8391C97.9842 96.9025 97.8282 96.9458 97.6674 96.9677L97.7157 96.4153C97.7242 96.3184 97.6897 96.2218 97.6197 96.1467C97.5498 96.0715 97.4502 96.024 97.3429 96.0146C97.2355 96.0052 97.1292 96.0347 97.0473 96.0966C96.9654 96.1584 96.9146 96.2476 96.9061 96.3445L96.8578 96.8969C96.7032 96.8474 96.5571 96.7776 96.4243 96.6898C96.3367 96.6318 96.2278 96.6071 96.1216 96.6213C96.0154 96.6355 95.9205 96.6874 95.8578 96.7656C95.7951 96.8437 95.7698 96.9417 95.7874 97.038C95.805 97.1343 95.8641 97.221 95.9517 97.279C96.205 97.4467 96.4903 97.5701 96.7926 97.6425L96.6448 99.3312L95.098 98.3445C95.2302 98.0919 95.3077 97.8181 95.3266 97.5375C95.333 97.4417 95.2974 97.3467 95.2276 97.273C95.1578 97.1994 95.0592 97.1529 94.9532 97.1436L94.9453 97.143C94.892 97.1392 94.8387 97.1449 94.7883 97.1598C94.7378 97.1748 94.6914 97.1986 94.6514 97.2299C94.6115 97.2612 94.579 97.2995 94.5557 97.3424C94.5323 97.3854 94.5187 97.4322 94.5155 97.4803C94.5056 97.6275 94.4716 97.7722 94.4147 97.9096L93.8176 97.5298C93.7737 97.501 93.724 97.4802 93.6715 97.4688C93.619 97.4573 93.5647 97.4553 93.5117 97.463C93.4588 97.4706 93.4082 97.4877 93.3629 97.5133C93.3177 97.5389 93.2787 97.5725 93.2482 97.612C93.2177 97.6516 93.1963 97.6964 93.1853 97.7438C93.1743 97.7912 93.1739 97.8403 93.184 97.8882C93.1942 97.9362 93.2148 97.9819 93.2445 98.0229C93.2743 98.0639 93.3127 98.0993 93.3575 98.127L93.9545 98.5078C93.832 98.6031 93.6944 98.6812 93.546 98.7397C93.497 98.7586 93.4527 98.7861 93.4159 98.8207C93.379 98.8553 93.3502 98.8962 93.3311 98.9412C93.3121 98.9862 93.3031 99.0343 93.3048 99.0827C93.3064 99.1312 93.3187 99.179 93.3409 99.2235C93.363 99.268 93.3946 99.3082 93.4339 99.3418C93.4731 99.3755 93.5192 99.4019 93.5694 99.4196C93.6197 99.4372 93.6732 99.4458 93.7267 99.4447C93.7803 99.4436 93.8329 99.433 93.8816 99.4134C94.165 99.3015 94.4215 99.1417 94.6375 98.9425L96.1847 99.9286L94.4901 100.631C94.312 100.398 94.0872 100.196 93.8274 100.036C93.783 100.008 93.733 99.9888 93.6804 99.9785C93.6278 99.9681 93.5737 99.9673 93.5211 99.9759C93.4686 99.9846 93.4186 100.003 93.3741 100.029C93.3296 100.055 93.2915 100.089 93.262 100.129C93.2324 100.169 93.2121 100.214 93.202 100.262C93.1919 100.309 93.1924 100.358 93.2034 100.406C93.2143 100.453 93.2356 100.499 93.2659 100.539C93.2962 100.58 93.335 100.614 93.38 100.641C93.516 100.725 93.638 100.826 93.742 100.941L93.0874 101.214C93.0385 101.233 92.9946 101.261 92.9581 101.296C92.9217 101.332 92.8935 101.373 92.8752 101.419C92.8569 101.464 92.8488 101.512 92.8514 101.561C92.854 101.61 92.8673 101.657 92.8904 101.702C92.9136 101.746 92.9461 101.786 92.9863 101.819C93.0264 101.852 93.0732 101.878 93.124 101.894C93.1749 101.911 93.2287 101.918 93.2824 101.916C93.3361 101.914 93.3886 101.902 93.4368 101.882L94.0909 101.61C94.1231 101.755 94.1315 101.904 94.1159 102.05C94.1055 102.147 94.1381 102.244 94.2064 102.32C94.2748 102.396 94.3733 102.445 94.4804 102.456L94.4879 102.457C94.594 102.466 94.6991 102.438 94.7807 102.377C94.8622 102.317 94.9137 102.229 94.9241 102.134C94.9543 101.855 94.9255 101.572 94.8395 101.3L96.5341 100.597L96.3864 102.285C96.0762 102.304 95.7737 102.376 95.4952 102.497C95.3988 102.539 95.3256 102.615 95.2915 102.706C95.2574 102.798 95.2654 102.899 95.3135 102.987C95.3616 103.075 95.4461 103.142 95.5483 103.175C95.6504 103.207 95.7619 103.202 95.8583 103.16C96.0043 103.096 96.1603 103.053 96.3211 103.031L96.2728 103.584C96.2643 103.68 96.2989 103.777 96.3688 103.852C96.4387 103.927 96.5383 103.975 96.6456 103.984C96.753 103.994 96.8593 103.964 96.9412 103.902C97.0231 103.84 97.0739 103.751 97.0824 103.654L97.1307 103.102C97.2853 103.151 97.4314 103.221 97.5642 103.309C97.6518 103.367 97.7607 103.392 97.8669 103.377C97.9732 103.363 98.0681 103.311 98.1307 103.233C98.1934 103.155 98.2187 103.057 98.2011 102.961C98.1835 102.865 98.1244 102.778 98.0368 102.72C97.7835 102.552 97.4982 102.429 97.1959 102.356L97.3437 100.668L98.8905 101.654C98.7584 101.907 98.6808 102.181 98.6619 102.461C98.6555 102.557 98.6911 102.652 98.7609 102.726C98.8307 102.799 98.9293 102.846 99.0353 102.855L99.0433 102.856C99.0965 102.86 99.1498 102.854 99.2003 102.839C99.2507 102.824 99.2972 102.8 99.3371 102.769C99.377 102.738 99.4095 102.699 99.4329 102.656C99.4562 102.613 99.4698 102.567 99.473 102.519C99.4829 102.371 99.5169 102.227 99.5738 102.089L100.171 102.47C100.215 102.501 100.265 102.523 100.318 102.536C100.371 102.549 100.427 102.552 100.481 102.545C100.535 102.538 100.587 102.521 100.633 102.495C100.68 102.47 100.72 102.435 100.751 102.395C100.782 102.355 100.804 102.309 100.815 102.26C100.825 102.212 100.825 102.162 100.814 102.113C100.803 102.064 100.781 102.018 100.749 101.977C100.718 101.936 100.678 101.9 100.631 101.873Z" fill="#C4EDFF"/>
</g>
<g filter="url(#filter2_d_1589_263)">
<path d="M79.8562 114.35L79.2119 114.056C79.3199 113.945 79.4453 113.848 79.5842 113.769C79.6749 113.717 79.7395 113.635 79.7638 113.54C79.7881 113.446 79.7703 113.347 79.7141 113.265C79.6579 113.183 79.5679 113.125 79.4638 113.104C79.3597 113.082 79.2498 113.098 79.1581 113.149C78.893 113.299 78.6612 113.493 78.4751 113.721L76.8056 112.958L78.3859 112.026C78.5948 112.233 78.8455 112.401 79.125 112.523C79.1729 112.544 79.2251 112.557 79.2786 112.56C79.3321 112.563 79.3858 112.556 79.4367 112.54C79.4875 112.524 79.5345 112.5 79.5749 112.467C79.6153 112.435 79.6482 112.396 79.6719 112.352C79.6956 112.309 79.7096 112.261 79.7129 112.213C79.7163 112.164 79.709 112.116 79.6915 112.07C79.674 112.025 79.6467 111.983 79.611 111.947C79.5754 111.911 79.5322 111.882 79.4838 111.862C79.3376 111.798 79.2027 111.715 79.0837 111.616L79.6936 111.256C79.7404 111.23 79.781 111.196 79.8132 111.156C79.8454 111.116 79.8684 111.071 79.8808 111.023C79.8933 110.975 79.895 110.925 79.8858 110.877C79.8766 110.829 79.8567 110.783 79.8272 110.741C79.7978 110.7 79.7595 110.665 79.7145 110.638C79.6696 110.611 79.6189 110.592 79.5655 110.583C79.5121 110.573 79.4571 110.574 79.4038 110.584C79.3505 110.595 79.2999 110.615 79.255 110.643L78.645 111.003C78.593 110.864 78.564 110.718 78.5592 110.571C78.5578 110.523 78.5459 110.475 78.5242 110.431C78.5025 110.387 78.4713 110.348 78.4325 110.315C78.3937 110.282 78.348 110.257 78.2981 110.24C78.2482 110.223 78.195 110.216 78.1415 110.217L78.134 110.218C78.0277 110.223 77.9276 110.266 77.8552 110.338C77.7828 110.409 77.744 110.502 77.747 110.598C77.756 110.879 77.8239 111.156 77.9469 111.413L76.3666 112.345L76.2779 110.652C76.5825 110.59 76.8719 110.477 77.1309 110.318C77.2205 110.263 77.2826 110.178 77.3035 110.083C77.3245 109.987 77.3026 109.888 77.2427 109.808C77.1828 109.728 77.0898 109.673 76.9841 109.655C76.8784 109.637 76.7687 109.658 76.6792 109.713C76.5434 109.796 76.395 109.86 76.2387 109.904L76.2097 109.351C76.2046 109.254 76.157 109.163 76.0773 109.098C75.9976 109.033 75.8923 109 75.7847 109.006C75.6771 109.011 75.5759 109.055 75.5034 109.128C75.4309 109.201 75.3931 109.296 75.3982 109.393L75.4272 109.947C75.2672 109.919 75.1128 109.871 74.9691 109.802C74.8743 109.757 74.763 109.748 74.6598 109.777C74.5565 109.805 74.4698 109.87 74.4186 109.956C74.3674 110.042 74.356 110.143 74.3868 110.236C74.4177 110.329 74.4883 110.406 74.5831 110.452C74.8573 110.582 75.157 110.665 75.4664 110.694L75.5551 112.387L73.886 111.625C73.9817 111.357 74.0204 111.075 74 110.794C73.993 110.699 73.9446 110.61 73.8652 110.546C73.7858 110.483 73.6817 110.451 73.5754 110.456L73.5675 110.457C73.5142 110.461 73.4622 110.474 73.4144 110.495C73.3665 110.517 73.3238 110.547 73.2886 110.584C73.2535 110.62 73.2265 110.663 73.2094 110.709C73.1923 110.754 73.1853 110.803 73.1888 110.851C73.1995 110.998 73.186 111.146 73.1488 111.29L72.5046 110.997C72.4571 110.974 72.4051 110.961 72.3515 110.957C72.2979 110.953 72.2438 110.958 72.1924 110.973C72.141 110.988 72.0933 111.012 72.0521 111.044C72.0109 111.075 71.9769 111.114 71.9522 111.158C71.9275 111.201 71.9126 111.248 71.9083 111.297C71.904 111.345 71.9104 111.394 71.9271 111.44C71.9439 111.486 71.9706 111.528 72.0058 111.565C72.041 111.601 72.0839 111.631 72.1321 111.652L72.7763 111.946C72.6683 112.058 72.5429 112.154 72.404 112.233C72.3581 112.258 72.3182 112.292 72.2865 112.331C72.2548 112.37 72.2319 112.415 72.2193 112.462C72.2067 112.509 72.2045 112.558 72.2129 112.606C72.2213 112.654 72.2401 112.699 72.2683 112.74C72.2964 112.781 72.3333 112.817 72.3768 112.845C72.4203 112.873 72.4697 112.892 72.5219 112.903C72.5741 112.913 72.6283 112.914 72.6812 112.906C72.7341 112.897 72.7847 112.879 72.8301 112.853C73.0952 112.703 73.327 112.509 73.5131 112.282L75.1826 113.043L73.6022 113.974C73.3933 113.768 73.1426 113.599 72.8632 113.477C72.8153 113.456 72.7631 113.444 72.7096 113.441C72.6561 113.438 72.6023 113.445 72.5515 113.46C72.5006 113.476 72.4537 113.501 72.4133 113.533C72.3729 113.566 72.3399 113.605 72.3162 113.648C72.2925 113.692 72.2786 113.739 72.2752 113.788C72.2719 113.836 72.2791 113.885 72.2966 113.93C72.3141 113.976 72.3415 114.018 72.3771 114.054C72.4128 114.089 72.456 114.118 72.5043 114.139C72.6506 114.203 72.7854 114.286 72.9045 114.385L72.2942 114.746C72.2485 114.772 72.2089 114.806 72.1778 114.846C72.1466 114.886 72.1244 114.931 72.1126 114.979C72.1008 115.026 72.0995 115.075 72.1088 115.123C72.1182 115.171 72.138 115.217 72.1671 115.257C72.1962 115.298 72.234 115.333 72.2783 115.36C72.3226 115.387 72.3726 115.406 72.4252 115.415C72.4779 115.425 72.5323 115.425 72.5851 115.415C72.638 115.405 72.6884 115.386 72.7332 115.359L73.3432 115C73.3953 115.139 73.4242 115.284 73.4291 115.432C73.4323 115.529 73.4781 115.62 73.5563 115.686C73.6346 115.752 73.739 115.787 73.8466 115.783L73.8542 115.783C73.9605 115.777 74.0606 115.734 74.133 115.663C74.2053 115.592 74.2442 115.498 74.2411 115.402C74.2321 115.121 74.1643 114.845 74.0412 114.588L75.6216 113.656L75.7103 115.349C75.4057 115.411 75.1162 115.524 74.8572 115.683C74.7677 115.738 74.7056 115.822 74.6846 115.918C74.6637 116.013 74.6855 116.112 74.7454 116.193C74.8053 116.273 74.8984 116.328 75.0041 116.346C75.1097 116.364 75.2194 116.343 75.309 116.288C75.4447 116.205 75.5932 116.14 75.7494 116.096L75.7785 116.65C75.7836 116.747 75.8312 116.838 75.9109 116.903C75.9906 116.967 76.0958 117 76.2034 116.995C76.311 116.989 76.4122 116.945 76.4847 116.873C76.5572 116.8 76.5951 116.705 76.59 116.607L76.561 116.054C76.721 116.081 76.8754 116.13 77.0191 116.198C77.1139 116.244 77.2251 116.253 77.3284 116.224C77.4316 116.195 77.5184 116.131 77.5695 116.045C77.6207 115.958 77.6322 115.858 77.6013 115.765C77.5705 115.672 77.4999 115.594 77.4051 115.549C77.1309 115.418 76.8312 115.336 76.5218 115.306L76.4331 113.613L78.1022 114.375C78.0065 114.644 77.9678 114.926 77.9882 115.206C77.9952 115.302 78.0436 115.391 78.123 115.454C78.2024 115.518 78.3064 115.55 78.4127 115.544L78.4207 115.544C78.4739 115.54 78.5259 115.527 78.5738 115.505C78.6216 115.483 78.6644 115.453 78.6995 115.417C78.7347 115.38 78.7616 115.338 78.7787 115.292C78.7959 115.246 78.8029 115.198 78.7993 115.15C78.7886 115.003 78.8021 114.855 78.8394 114.711L79.4836 115.005C79.5312 115.029 79.5838 115.044 79.6384 115.05C79.6929 115.055 79.7482 115.05 79.8009 115.036C79.8537 115.021 79.9027 114.997 79.9451 114.965C79.9875 114.934 80.0223 114.894 80.0476 114.85C80.0728 114.806 80.0878 114.757 80.0918 114.708C80.0958 114.658 80.0886 114.609 80.0707 114.562C80.0529 114.515 80.0246 114.472 79.9877 114.436C79.9508 114.399 79.9061 114.37 79.8562 114.35Z" fill="#C4EDFF"/>
</g>
<g filter="url(#filter3_d_1589_263)">
<path d="M74.7805 94.55L74.1525 94.2227C74.2661 94.117 74.3965 94.0272 74.5393 93.956C74.6326 93.9085 74.7014 93.8297 74.7306 93.7366C74.7598 93.6436 74.7472 93.5439 74.6953 93.4593C74.6435 93.3746 74.5567 93.3119 74.4539 93.2847C74.351 93.2575 74.2405 93.2681 74.1462 93.3142C73.8736 93.4503 73.632 93.6319 73.4343 93.8492L71.8069 93L73.4339 92.1523C73.6316 92.3697 73.8732 92.5512 74.1459 92.6873C74.1926 92.7111 74.2441 92.7263 74.2974 92.732C74.3506 92.7378 74.4046 92.7339 74.4563 92.7207C74.5079 92.7075 74.5561 92.6852 74.5981 92.6551C74.6401 92.625 74.6751 92.5876 74.7011 92.5453C74.727 92.5029 74.7434 92.4563 74.7493 92.4082C74.7552 92.3601 74.7504 92.3114 74.7354 92.2649C74.7203 92.2184 74.6952 92.1751 74.6614 92.1375C74.6277 92.0998 74.5861 92.0686 74.5389 92.0455C74.3961 91.9743 74.2658 91.8844 74.1521 91.7788L74.7801 91.4515C74.8281 91.4283 74.8705 91.3967 74.9047 91.3584C74.9389 91.3202 74.9643 91.2761 74.9792 91.2289C74.9942 91.1816 74.9984 91.1321 74.9918 91.0833C74.9851 91.0345 74.9677 90.9875 74.9404 90.9449C74.9132 90.9023 74.8768 90.8651 74.8333 90.8355C74.7899 90.8059 74.7402 90.7845 74.6874 90.7725C74.6346 90.7605 74.5796 90.7583 74.5258 90.7659C74.472 90.7735 74.4204 90.7907 74.3741 90.8167L73.7462 91.1438C73.7015 91.0022 73.6802 90.8553 73.683 90.708C73.6842 90.6598 73.6748 90.6118 73.6554 90.5668C73.636 90.5219 73.607 90.4808 73.5699 90.446C73.5329 90.4112 73.4886 90.3833 73.4396 90.364C73.3907 90.3447 73.3379 90.3342 73.2845 90.3333H73.2769C73.1704 90.3333 73.0682 90.371 72.9922 90.4383C72.9162 90.5056 72.8726 90.5971 72.8706 90.6932C72.8649 90.9741 72.9181 91.2536 73.0276 91.5167L71.4006 92.3648V90.6697C71.708 90.6238 72.003 90.5258 72.27 90.3808C72.3623 90.3306 72.4287 90.2494 72.4546 90.155C72.4806 90.0606 72.4639 89.9608 72.4083 89.8775C72.3527 89.7942 72.2627 89.7343 72.1581 89.7108C72.0535 89.6874 71.9428 89.7025 71.8505 89.7527C71.7106 89.8286 71.559 89.8853 71.4006 89.9212V89.3667C71.4006 89.2694 71.3578 89.1762 71.2816 89.1074C71.2054 89.0386 71.1021 89 70.9943 89C70.8865 89 70.7832 89.0386 70.707 89.1074C70.6308 89.1762 70.588 89.2694 70.588 89.3667V89.9212C70.4296 89.8853 70.278 89.8286 70.1381 89.7527C70.0458 89.7025 69.9352 89.6874 69.8306 89.7108C69.7259 89.7343 69.6359 89.7942 69.5803 89.8775C69.5247 89.9608 69.508 90.0606 69.534 90.155C69.5599 90.2494 69.6263 90.3306 69.7187 90.3808C69.9856 90.5258 70.2806 90.6238 70.588 90.6697V92.3648L68.9611 91.5167C69.0707 91.2535 69.1241 90.9739 69.1184 90.6928C69.1164 90.5968 69.0727 90.5053 68.9968 90.438C68.9208 90.3707 68.8186 90.333 68.7121 90.333H68.7041C68.6508 90.3339 68.5981 90.3443 68.5492 90.3635C68.5003 90.3828 68.4561 90.4105 68.419 90.4452C68.382 90.4799 68.3529 90.5208 68.3334 90.5657C68.3139 90.6105 68.3044 90.6583 68.3054 90.7065C68.3084 90.854 68.2872 91.0011 68.2424 91.143L67.6145 90.8167C67.5682 90.7918 67.517 90.7754 67.4637 90.7686C67.4104 90.7617 67.3561 90.7645 67.304 90.7767C67.2519 90.789 67.203 90.8104 67.1601 90.8399C67.1173 90.8693 67.0814 90.9061 67.0544 90.9482C67.0275 90.9903 67.0101 91.0368 67.0033 91.085C66.9965 91.1332 67.0003 91.1821 67.0146 91.229C67.0289 91.2758 67.0534 91.3196 67.0866 91.3578C67.1198 91.3961 67.1611 91.428 67.2082 91.4517L67.8361 91.779C67.7224 91.8846 67.5921 91.9744 67.4494 92.0457C67.4022 92.0687 67.3605 92.1 67.3268 92.1376C67.2931 92.1753 67.268 92.2186 67.2529 92.2651C67.2378 92.3115 67.2331 92.3602 67.239 92.4083C67.2449 92.4565 67.2612 92.5031 67.2872 92.5454C67.3131 92.5878 67.3481 92.6251 67.3901 92.6552C67.4322 92.6854 67.4804 92.7077 67.532 92.7209C67.5836 92.7341 67.6376 92.7379 67.6909 92.7322C67.7442 92.7265 67.7956 92.7113 67.8424 92.6875C68.115 92.5513 68.3566 92.3698 68.5544 92.1525L70.1817 93L68.5547 93.8477C68.357 93.6304 68.1154 93.4488 67.8427 93.3127C67.796 93.2889 67.7445 93.2737 67.6913 93.268C67.638 93.2622 67.584 93.2661 67.5324 93.2793C67.4807 93.2925 67.4325 93.3148 67.3905 93.3449C67.3485 93.375 67.3135 93.4124 67.2876 93.4547C67.2616 93.4971 67.2452 93.5437 67.2393 93.5918C67.2334 93.6399 67.2382 93.6886 67.2533 93.7351C67.2683 93.7816 67.2935 93.8249 67.3272 93.8625C67.3609 93.9002 67.4026 93.9314 67.4497 93.9545C67.5925 94.0257 67.7228 94.1156 67.8365 94.2212L67.2082 94.55C67.1611 94.5737 67.1198 94.6056 67.0866 94.6438C67.0534 94.6821 67.0289 94.7259 67.0146 94.7727C67.0003 94.8196 66.9965 94.8685 67.0033 94.9167C67.0101 94.9649 67.0275 95.0114 67.0544 95.0535C67.0814 95.0955 67.1173 95.1324 67.1601 95.1618C67.203 95.1912 67.2519 95.2127 67.304 95.2249C67.3561 95.2372 67.4104 95.24 67.4637 95.2331C67.517 95.2262 67.5682 95.2099 67.6145 95.185L68.2424 94.8578C68.2871 94.9995 68.3084 95.1464 68.3056 95.2937C68.3037 95.3908 68.3446 95.4846 68.4194 95.5546C68.4941 95.6245 68.5965 95.6648 68.7041 95.6667H68.7117C68.8182 95.6667 68.9204 95.629 68.9964 95.5617C69.0724 95.4944 69.1161 95.4029 69.118 95.3068C69.1238 95.0259 69.0705 94.7464 68.9611 94.4833L70.588 93.6352V95.3303C70.2806 95.3762 69.9856 95.4742 69.7187 95.6192C69.6263 95.6694 69.5599 95.7506 69.534 95.845C69.508 95.9394 69.5247 96.0392 69.5803 96.1225C69.6359 96.2058 69.7259 96.2658 69.8306 96.2892C69.9352 96.3126 70.0458 96.2975 70.1381 96.2473C70.278 96.1714 70.4296 96.1147 70.588 96.0788V96.6333C70.588 96.7306 70.6308 96.8238 70.707 96.8926C70.7832 96.9614 70.8865 97 70.9943 97C71.1021 97 71.2054 96.9614 71.2816 96.8926C71.3578 96.8238 71.4006 96.7306 71.4006 96.6333V96.0788C71.559 96.1147 71.7106 96.1714 71.8505 96.2473C71.9428 96.2975 72.0535 96.3126 72.1581 96.2892C72.2627 96.2657 72.3527 96.2058 72.4083 96.1225C72.4639 96.0392 72.4806 95.9394 72.4546 95.845C72.4287 95.7506 72.3623 95.6694 72.27 95.6192C72.003 95.4742 71.708 95.3762 71.4006 95.3303V93.6352L73.0276 94.4833C72.9179 94.7465 72.8646 95.0261 72.8702 95.3072C72.8722 95.4032 72.9159 95.4947 72.9919 95.562C73.0678 95.6293 73.1701 95.667 73.2765 95.667H73.2845C73.3378 95.6661 73.3905 95.6557 73.4394 95.6365C73.4883 95.6172 73.5326 95.5895 73.5696 95.5548C73.6066 95.5201 73.6357 95.4792 73.6552 95.4343C73.6747 95.3895 73.6842 95.3417 73.6832 95.2935C73.6802 95.146 73.7015 94.9989 73.7462 94.857L74.3741 95.1842C74.4204 95.211 74.4722 95.229 74.5264 95.2372C74.5805 95.2454 74.636 95.2437 74.6894 95.232C74.7428 95.2203 74.7931 95.1989 74.8371 95.1692C74.8811 95.1395 74.9179 95.1021 74.9454 95.0592C74.9729 95.0162 74.9905 94.9687 74.9971 94.9195C75.0037 94.8702 74.9991 94.8203 74.9837 94.7727C74.9682 94.7251 74.9423 94.6809 74.9074 94.6426C74.8724 94.6043 74.8293 94.5728 74.7805 94.55Z" fill="#C4EDFF"/>
</g>
<g filter="url(#filter4_d_1589_263)">
<path d="M48.9011 103.215L48.247 102.943C48.351 102.828 48.473 102.727 48.609 102.644C48.6979 102.588 48.7595 102.504 48.7805 102.409C48.8015 102.313 48.7802 102.215 48.7212 102.135C48.6622 102.056 48.5703 102.001 48.4655 101.983C48.3606 101.964 48.2514 101.985 48.1615 102.039C47.9018 102.198 47.677 102.4 47.4989 102.634L45.8038 101.93L47.3506 100.943C47.5666 101.143 47.8231 101.302 48.1065 101.414C48.1552 101.434 48.2078 101.445 48.2614 101.446C48.3149 101.447 48.3684 101.438 48.4187 101.42C48.4689 101.403 48.515 101.376 48.5542 101.343C48.5935 101.309 48.6251 101.269 48.6472 101.224C48.6694 101.18 48.6817 101.132 48.6833 101.084C48.685 101.035 48.6761 100.987 48.657 100.942C48.6379 100.897 48.6091 100.856 48.5722 100.822C48.5354 100.787 48.4911 100.759 48.4421 100.741C48.2937 100.682 48.1561 100.604 48.0336 100.509L48.6307 100.128C48.6765 100.101 48.7159 100.065 48.7467 100.024C48.7774 99.9832 48.7988 99.9371 48.8096 99.8887C48.8204 99.8403 48.8203 99.7906 48.8095 99.7426C48.7986 99.6946 48.7771 99.6492 48.7462 99.6092C48.7154 99.5692 48.6759 99.5353 48.63 99.5096C48.5841 99.4839 48.5328 99.4668 48.4791 99.4595C48.4255 99.4522 48.3705 99.4548 48.3176 99.467C48.2646 99.4793 48.2148 99.501 48.1709 99.5308L47.5739 99.9115C47.517 99.7742 47.483 99.6298 47.473 99.4828C47.4699 99.4347 47.4564 99.3877 47.4332 99.3446C47.4099 99.3015 47.3774 99.2631 47.3375 99.2317C47.2975 99.2002 47.251 99.1763 47.2005 99.1613C47.15 99.1463 47.0966 99.1405 47.0433 99.1443L47.0357 99.145C46.9297 99.1542 46.8311 99.2007 46.7613 99.2743C46.6915 99.348 46.6559 99.443 46.6623 99.5388C46.6811 99.8192 46.7585 100.093 46.8905 100.346L45.3436 101.332L45.1959 99.6435C45.4981 99.5711 45.7835 99.4477 46.0368 99.28C46.1243 99.222 46.1834 99.1353 46.2011 99.039C46.2187 98.9427 46.1934 98.8447 46.1307 98.7666C46.068 98.6884 45.9731 98.6366 45.8669 98.6223C45.7607 98.6081 45.6518 98.6328 45.5642 98.6908C45.4314 98.7786 45.2853 98.8484 45.1307 98.8979L45.0823 98.3455C45.0739 98.2486 45.0231 98.1594 44.9412 98.0976C44.8593 98.0357 44.753 98.0063 44.6456 98.0156C44.5383 98.025 44.4387 98.0725 44.3688 98.1477C44.2988 98.2228 44.2643 98.3195 44.2728 98.4163L44.3211 98.9687C44.1602 98.9468 44.0043 98.9035 43.8582 98.8401C43.7619 98.7981 43.6504 98.7928 43.5482 98.8252C43.4461 98.8576 43.3616 98.9252 43.3135 99.013C43.2653 99.1009 43.2574 99.2018 43.2915 99.2935C43.3256 99.3853 43.3988 99.4604 43.4952 99.5024C43.7737 99.6236 44.0761 99.6955 44.3864 99.7144L44.5341 101.403L42.8394 100.7C42.9257 100.428 42.9545 100.145 42.9244 99.8655C42.914 99.77 42.8625 99.6826 42.781 99.6222C42.6994 99.5618 42.5943 99.5332 42.4883 99.5425L42.4803 99.5432C42.4273 99.5487 42.3757 99.5636 42.3287 99.5871C42.2816 99.6105 42.24 99.642 42.2061 99.6798C42.1722 99.7176 42.1468 99.7609 42.1313 99.8073C42.1158 99.8536 42.1105 99.9021 42.1157 99.95C42.1315 100.097 42.1232 100.245 42.091 100.39L41.437 100.12C41.3887 100.099 41.3362 100.087 41.2825 100.085C41.2288 100.083 41.175 100.091 41.1242 100.107C41.0733 100.124 41.0265 100.15 40.9864 100.183C40.9463 100.216 40.9137 100.256 40.8905 100.3C40.8674 100.344 40.8541 100.392 40.8515 100.441C40.8489 100.489 40.857 100.538 40.8753 100.583C40.8936 100.628 40.9218 100.67 40.9583 100.705C40.9947 100.74 41.0386 100.768 41.0875 100.788L41.7416 101.059C41.6376 101.174 41.5156 101.275 41.3796 101.359C41.3346 101.386 41.2958 101.421 41.2655 101.461C41.2352 101.501 41.214 101.547 41.203 101.594C41.192 101.642 41.1916 101.691 41.2016 101.738C41.2117 101.786 41.2321 101.831 41.2616 101.871C41.2912 101.911 41.3293 101.945 41.3737 101.971C41.4182 101.997 41.4682 102.015 41.5208 102.024C41.5733 102.033 41.6275 102.032 41.68 102.022C41.7326 102.011 41.7826 101.992 41.8271 101.964C42.0868 101.804 42.3116 101.603 42.4897 101.369L44.1847 102.071L42.6378 103.057C42.4219 102.858 42.1654 102.698 41.8819 102.587C41.8333 102.567 41.7807 102.556 41.7271 102.555C41.6735 102.554 41.6201 102.563 41.5698 102.58C41.5195 102.598 41.4735 102.624 41.4342 102.658C41.395 102.692 41.3634 102.732 41.3412 102.776C41.3191 102.821 41.3068 102.869 41.3051 102.917C41.3035 102.966 41.3124 103.014 41.3315 103.059C41.3506 103.104 41.3794 103.145 41.4162 103.179C41.4531 103.214 41.4973 103.241 41.5463 103.26C41.6948 103.319 41.8324 103.397 41.9548 103.492L41.3576 103.875C41.3128 103.902 41.2744 103.938 41.2447 103.979C41.2149 104.02 41.1943 104.065 41.1842 104.113C41.174 104.161 41.1744 104.21 41.1855 104.258C41.1965 104.305 41.2178 104.35 41.2483 104.389C41.2788 104.429 41.3178 104.463 41.3631 104.488C41.4083 104.514 41.4589 104.531 41.5119 104.539C41.5648 104.546 41.6191 104.544 41.6717 104.533C41.7242 104.521 41.7738 104.501 41.8177 104.472L42.4147 104.091C42.4716 104.228 42.5056 104.373 42.5156 104.52C42.5222 104.617 42.5712 104.707 42.6517 104.77C42.7323 104.833 42.8378 104.864 42.9452 104.857L42.9527 104.856C43.0588 104.847 43.1574 104.8 43.2272 104.727C43.297 104.653 43.3326 104.558 43.3262 104.462C43.3074 104.182 43.23 103.908 43.098 103.655L44.6448 102.669L44.7926 104.357C44.4903 104.43 44.205 104.553 43.9517 104.721C43.8641 104.779 43.805 104.866 43.7874 104.962C43.7698 105.058 43.7951 105.156 43.8578 105.234C43.9204 105.312 44.0153 105.364 44.1216 105.378C44.2278 105.393 44.3367 105.368 44.4243 105.31C44.5571 105.222 44.7032 105.152 44.8578 105.103L44.9061 105.655C44.9146 105.752 44.9654 105.841 45.0473 105.903C45.1292 105.965 45.2355 105.995 45.3429 105.985C45.4502 105.976 45.5498 105.928 45.6197 105.853C45.6896 105.778 45.7241 105.681 45.7157 105.585L45.6673 105.032C45.8282 105.054 45.9842 105.097 46.1302 105.161C46.2266 105.203 46.3381 105.208 46.4402 105.176C46.5424 105.143 46.6268 105.076 46.675 104.988C46.7231 104.9 46.731 104.799 46.697 104.707C46.6629 104.616 46.5896 104.54 46.4933 104.498C46.2147 104.377 45.9123 104.305 45.6021 104.286L45.4544 102.598L47.149 103.301C47.0628 103.573 47.034 103.856 47.0641 104.135C47.0744 104.231 47.1259 104.318 47.2075 104.379C47.289 104.439 47.3942 104.468 47.5002 104.458L47.5081 104.458C47.5612 104.452 47.6127 104.437 47.6598 104.414C47.7069 104.39 47.7485 104.359 47.7824 104.321C47.8162 104.283 47.8417 104.24 47.8572 104.194C47.8727 104.147 47.878 104.099 47.8728 104.051C47.857 103.904 47.8653 103.756 47.8975 103.611L48.5516 103.882C48.6 103.904 48.6531 103.918 48.7078 103.921C48.7625 103.925 48.8176 103.918 48.8698 103.902C48.922 103.886 48.9702 103.86 49.0114 103.826C49.0527 103.793 49.0861 103.753 49.1098 103.707C49.1335 103.662 49.1468 103.613 49.1491 103.564C49.1513 103.514 49.1424 103.465 49.1229 103.419C49.1034 103.373 49.0737 103.331 49.0356 103.296C48.9974 103.261 48.9517 103.233 48.9011 103.215Z" fill="#C4EDFF"/>
</g>
<g filter="url(#filter5_d_1589_263)">
<path d="M53.6629 122.81L53.0594 122.439C53.1801 122.342 53.3163 122.261 53.4638 122.2C53.5602 122.159 53.6343 122.086 53.6699 121.995C53.7056 121.904 53.6999 121.804 53.6541 121.716C53.6083 121.628 53.5261 121.559 53.4254 121.525C53.3247 121.49 53.2137 121.493 53.1165 121.533C52.835 121.649 52.5813 121.814 52.3689 122.017L50.8048 121.056L52.4869 120.324C52.669 120.555 52.8973 120.752 53.1598 120.907C53.2048 120.934 53.2551 120.953 53.3078 120.962C53.3606 120.972 53.4147 120.972 53.4671 120.962C53.5195 120.953 53.5692 120.934 53.6132 120.907C53.6572 120.88 53.6947 120.845 53.7236 120.804C53.7524 120.764 53.772 120.719 53.7812 120.671C53.7905 120.623 53.7891 120.574 53.7773 120.527C53.7655 120.48 53.7435 120.435 53.7125 120.395C53.6815 120.355 53.6421 120.321 53.5967 120.294C53.4592 120.213 53.3355 120.115 53.2295 120.001L53.8787 119.719C53.9282 119.699 53.9727 119.67 54.0095 119.635C54.0463 119.599 54.0747 119.557 54.0929 119.51C54.1111 119.464 54.1188 119.415 54.1156 119.366C54.1123 119.317 54.0982 119.269 54.074 119.225C54.0498 119.18 54.0161 119.14 53.9748 119.108C53.9335 119.075 53.8855 119.051 53.8336 119.035C53.7817 119.019 53.7271 119.013 53.6729 119.017C53.6186 119.021 53.566 119.034 53.518 119.057L52.8688 119.34C52.8341 119.195 52.8231 119.047 52.8362 118.9C52.8407 118.852 52.8347 118.804 52.8185 118.758C52.8023 118.712 52.7761 118.669 52.7416 118.631C52.7071 118.594 52.6649 118.563 52.6174 118.54C52.5699 118.518 52.518 118.504 52.4647 118.499L52.4572 118.498C52.351 118.491 52.2464 118.521 52.1659 118.583C52.0854 118.645 52.0354 118.733 52.0267 118.829C52.0014 119.109 52.0351 119.391 52.1259 119.661L50.4438 120.394L50.562 118.703C50.8719 118.679 51.173 118.602 51.4494 118.476C51.545 118.432 51.6169 118.356 51.6494 118.263C51.6818 118.171 51.6722 118.07 51.6225 117.983C51.5728 117.896 51.4872 117.83 51.3845 117.799C51.2818 117.769 51.1704 117.776 51.0748 117.82C50.9299 117.886 50.7747 117.932 50.6142 117.956L50.6529 117.403C50.6597 117.306 50.6235 117.21 50.5523 117.136C50.4811 117.062 50.3807 117.017 50.2732 117.009C50.1657 117.002 50.0599 117.033 49.979 117.096C49.8982 117.159 49.849 117.25 49.8422 117.347L49.8036 117.9C49.6481 117.853 49.5008 117.786 49.3665 117.7C49.2779 117.644 49.1686 117.621 49.0626 117.637C48.9567 117.653 48.8627 117.707 48.8014 117.786C48.7401 117.865 48.7165 117.963 48.7358 118.059C48.7551 118.155 48.8157 118.241 48.9043 118.298C49.1605 118.461 49.4479 118.579 49.7514 118.646L49.6331 120.337L48.0693 119.378C48.197 119.123 48.2698 118.848 48.2837 118.567C48.2885 118.471 48.2513 118.377 48.1802 118.304C48.1091 118.232 48.0097 118.187 47.9035 118.18L47.8956 118.179C47.8423 118.176 47.7891 118.183 47.7389 118.199C47.6888 118.215 47.6427 118.239 47.6033 118.271C47.564 118.303 47.5321 118.342 47.5095 118.385C47.4869 118.429 47.4741 118.476 47.4718 118.524C47.4644 118.671 47.433 118.816 47.3785 118.955L46.7748 118.586C46.7304 118.558 46.6804 118.538 46.6277 118.527C46.575 118.517 46.5207 118.515 46.4679 118.524C46.415 118.533 46.3648 118.551 46.32 118.577C46.2752 118.603 46.2368 118.638 46.207 118.678C46.1772 118.718 46.1566 118.763 46.1464 118.811C46.1362 118.858 46.1367 118.907 46.1476 118.955C46.1586 119.003 46.18 119.048 46.2105 119.089C46.241 119.129 46.28 119.164 46.3252 119.191L46.9288 119.561C46.808 119.658 46.6718 119.739 46.5244 119.8C46.4757 119.82 46.432 119.848 46.3957 119.883C46.3594 119.918 46.3314 119.96 46.3131 120.005C46.2948 120.051 46.2867 120.099 46.2892 120.147C46.2917 120.196 46.3048 120.243 46.3278 120.287C46.3507 120.331 46.383 120.371 46.4228 120.404C46.4626 120.437 46.5091 120.463 46.5597 120.479C46.6103 120.496 46.6639 120.504 46.7174 120.502C46.771 120.5 46.8234 120.488 46.8717 120.468C47.1531 120.351 47.4068 120.187 47.6192 119.984L49.1835 120.943L47.5014 121.675C47.3192 121.444 47.0909 121.246 46.8284 121.091C46.7835 121.064 46.7332 121.046 46.6804 121.036C46.6277 121.027 46.5735 121.027 46.5211 121.036C46.4687 121.046 46.4191 121.065 46.3751 121.092C46.331 121.119 46.2935 121.154 46.2647 121.194C46.2359 121.235 46.2162 121.28 46.207 121.328C46.1978 121.375 46.1991 121.424 46.2109 121.472C46.2227 121.519 46.2447 121.564 46.2758 121.604C46.3068 121.644 46.3461 121.678 46.3916 121.704C46.529 121.785 46.6528 121.884 46.7588 121.997L46.1091 122.281C46.0605 122.302 46.0171 122.331 45.9813 122.367C45.9455 122.402 45.918 122.444 45.9004 122.49C45.8829 122.536 45.8757 122.584 45.8791 122.633C45.8826 122.682 45.8967 122.729 45.9206 122.773C45.9445 122.817 45.9778 122.856 46.0185 122.888C46.0592 122.921 46.1064 122.946 46.1576 122.961C46.2087 122.977 46.2627 122.984 46.3163 122.981C46.37 122.978 46.4222 122.965 46.4701 122.943L47.1193 122.661C47.1541 122.805 47.1651 122.953 47.152 123.1C47.1433 123.197 47.1776 123.293 47.2472 123.368C47.3169 123.443 47.4163 123.49 47.5235 123.5L47.5311 123.5C47.6373 123.508 47.7419 123.477 47.8224 123.415C47.9029 123.354 47.9528 123.265 47.9615 123.17C47.9868 122.89 47.9532 122.607 47.8623 122.337L49.5445 121.605L49.4262 123.296C49.1164 123.32 48.8153 123.397 48.5389 123.523C48.4433 123.567 48.3714 123.643 48.3389 123.736C48.3064 123.828 48.3161 123.929 48.3658 124.016C48.4154 124.103 48.501 124.169 48.6038 124.199C48.7065 124.23 48.8179 124.223 48.9135 124.179C49.0583 124.113 49.2136 124.067 49.374 124.042L49.3353 124.595C49.3286 124.693 49.3648 124.789 49.436 124.862C49.5072 124.936 49.6076 124.982 49.7151 124.99C49.8226 124.997 49.9284 124.966 50.0092 124.903C50.09 124.839 50.1392 124.749 50.146 124.652L50.1847 124.099C50.3402 124.146 50.4874 124.213 50.6217 124.299C50.7103 124.355 50.8196 124.378 50.9256 124.362C51.0316 124.346 51.1256 124.292 51.1869 124.213C51.2482 124.134 51.2717 124.035 51.2525 123.939C51.2332 123.843 51.1726 123.758 51.084 123.701C50.8278 123.538 50.5404 123.42 50.2369 123.352L50.3551 121.661L51.919 122.621C51.7913 122.876 51.7185 123.151 51.7045 123.432C51.6998 123.528 51.737 123.622 51.8081 123.694C51.8792 123.767 51.9785 123.812 52.0847 123.819L52.0927 123.82C52.146 123.822 52.1992 123.816 52.2493 123.8C52.2995 123.784 52.3456 123.76 52.3849 123.728C52.4243 123.696 52.4562 123.657 52.4787 123.613C52.5013 123.57 52.5141 123.523 52.5165 123.475C52.5238 123.327 52.5552 123.182 52.6098 123.044L53.2134 123.414C53.2576 123.444 53.308 123.466 53.3615 123.478C53.415 123.489 53.4705 123.492 53.5246 123.484C53.5786 123.476 53.6302 123.458 53.6762 123.431C53.7222 123.405 53.7616 123.37 53.792 123.329C53.8224 123.288 53.8433 123.242 53.8533 123.193C53.8632 123.145 53.8622 123.095 53.8501 123.046C53.838 122.997 53.8152 122.952 53.7831 122.911C53.7509 122.87 53.71 122.836 53.6629 122.81Z" fill="#C4EDFF"/>
</g>
<g filter="url(#filter6_d_1589_263)">
<path d="M99.8791 122.282L99.2299 122C99.3359 121.886 99.4596 121.788 99.5971 121.707C99.6869 121.653 99.75 121.569 99.7727 121.474C99.7953 121.38 99.7757 121.281 99.7181 121.2C99.6605 121.119 99.5696 121.063 99.4651 121.043C99.3606 121.023 99.251 121.041 99.1602 121.094C98.8978 121.249 98.6694 121.447 98.4873 121.677L96.8047 120.944L98.3686 119.984C98.581 120.187 98.8346 120.352 99.1161 120.468C99.1644 120.489 99.2168 120.5 99.2704 120.502C99.3239 120.504 99.3775 120.497 99.4281 120.48C99.4787 120.463 99.5252 120.438 99.565 120.405C99.6048 120.372 99.6371 120.332 99.6601 120.288C99.683 120.244 99.6961 120.196 99.6986 120.148C99.7011 120.099 99.693 120.051 99.6747 120.006C99.6565 119.961 99.6284 119.919 99.5921 119.884C99.5558 119.849 99.5121 119.82 99.4634 119.801C99.3161 119.74 99.1798 119.659 99.059 119.562L99.6626 119.191C99.7089 119.165 99.749 119.13 99.7804 119.09C99.8119 119.049 99.8341 119.004 99.8457 118.955C99.8573 118.907 99.8582 118.858 99.8481 118.809C99.8381 118.761 99.8174 118.715 99.7872 118.675C99.7571 118.634 99.7182 118.6 99.6727 118.573C99.6273 118.547 99.5763 118.529 99.5228 118.521C99.4692 118.512 99.4143 118.514 99.3611 118.525C99.308 118.536 99.2577 118.557 99.2134 118.586L98.6098 118.957C98.5553 118.818 98.5238 118.673 98.5164 118.526C98.5142 118.478 98.5015 118.431 98.479 118.387C98.4565 118.344 98.4246 118.305 98.3853 118.273C98.3459 118.241 98.2998 118.216 98.2496 118.2C98.1994 118.184 98.146 118.177 98.0926 118.18L98.0851 118.181C97.9789 118.188 97.8795 118.233 97.8084 118.305C97.7373 118.378 97.7001 118.472 97.7049 118.568C97.7187 118.849 97.7914 119.124 97.9189 119.379L96.3551 120.338L96.2368 118.647C96.5403 118.58 96.8277 118.462 97.0839 118.298C97.1725 118.242 97.2331 118.156 97.2524 118.06C97.2717 117.964 97.2481 117.866 97.1868 117.787C97.1255 117.707 97.0315 117.654 96.9256 117.638C96.8196 117.622 96.7103 117.645 96.6217 117.701C96.4874 117.787 96.3401 117.854 96.1846 117.901L96.146 117.347C96.1392 117.25 96.09 117.16 96.0091 117.097C95.9283 117.034 95.8225 117.002 95.715 117.01C95.6075 117.017 95.5071 117.063 95.4359 117.137C95.3647 117.211 95.3285 117.307 95.3353 117.404L95.374 117.957C95.2135 117.933 95.0583 117.886 94.9134 117.821C94.8178 117.777 94.7064 117.77 94.6037 117.8C94.501 117.831 94.4154 117.897 94.3657 117.984C94.316 118.071 94.3064 118.172 94.3388 118.264C94.3713 118.356 94.4432 118.433 94.5388 118.476C94.8152 118.602 95.1163 118.68 95.4262 118.704L95.5444 120.395L93.8623 119.662C93.9533 119.392 93.987 119.11 93.9618 118.83C93.9531 118.734 93.9032 118.646 93.8227 118.584C93.7422 118.522 93.6376 118.491 93.5314 118.499L93.5234 118.499C93.4703 118.504 93.4185 118.518 93.371 118.541C93.3236 118.563 93.2814 118.594 93.2469 118.631C93.2123 118.668 93.1862 118.711 93.1698 118.757C93.1535 118.803 93.1474 118.852 93.1517 118.9C93.165 119.047 93.1541 119.195 93.1194 119.34L92.4702 119.058C92.4223 119.036 92.37 119.024 92.3164 119.02C92.2627 119.017 92.2088 119.024 92.1576 119.04C92.1065 119.056 92.0592 119.08 92.0186 119.113C91.9779 119.145 91.9446 119.184 91.9207 119.228C91.8968 119.272 91.8827 119.32 91.8792 119.368C91.8757 119.417 91.883 119.465 91.9005 119.511C91.918 119.557 91.9455 119.599 91.9813 119.635C92.0171 119.67 92.0606 119.699 92.1091 119.72L92.7584 120.002C92.6524 120.116 92.5286 120.214 92.3912 120.295C92.3457 120.322 92.3064 120.356 92.2753 120.396C92.2443 120.436 92.2223 120.481 92.2105 120.528C92.1987 120.575 92.1974 120.624 92.2066 120.672C92.2158 120.72 92.2354 120.765 92.2643 120.805C92.2931 120.846 92.3306 120.881 92.3746 120.908C92.4187 120.935 92.4683 120.954 92.5207 120.963C92.5731 120.973 92.6273 120.973 92.68 120.963C92.7328 120.954 92.7831 120.935 92.828 120.908C93.0905 120.753 93.3188 120.556 93.501 120.325L95.1834 121.057L93.6196 122.016C93.4071 121.813 93.1535 121.649 92.872 121.532C92.8237 121.511 92.7713 121.5 92.7178 121.498C92.6642 121.496 92.6106 121.504 92.56 121.52C92.5095 121.537 92.4629 121.563 92.4231 121.596C92.3833 121.629 92.351 121.668 92.3281 121.712C92.3051 121.756 92.292 121.804 92.2895 121.853C92.287 121.901 92.2951 121.949 92.3134 121.994C92.3317 122.04 92.3598 122.081 92.396 122.116C92.4323 122.152 92.476 122.18 92.5247 122.2C92.6721 122.261 92.8084 122.341 92.9291 122.439L92.3253 122.811C92.28 122.837 92.241 122.872 92.2106 122.913C92.1801 122.953 92.1587 122.998 92.1477 123.046C92.1367 123.094 92.1363 123.143 92.1465 123.191C92.1567 123.238 92.1773 123.283 92.2071 123.323C92.2368 123.364 92.2753 123.398 92.32 123.424C92.3648 123.451 92.4151 123.469 92.4679 123.477C92.5208 123.486 92.5751 123.485 92.6278 123.474C92.6805 123.464 92.7305 123.444 92.7749 123.416L93.3785 123.045C93.433 123.184 93.4645 123.329 93.4719 123.476C93.4768 123.573 93.5242 123.664 93.6036 123.728C93.683 123.793 93.788 123.826 93.8955 123.82L93.9031 123.82C94.0093 123.812 94.1086 123.767 94.1797 123.695C94.2508 123.623 94.288 123.528 94.2833 123.432C94.2694 123.152 94.1968 122.877 94.0692 122.622L95.633 121.662L95.7513 123.353C95.4478 123.42 95.1604 123.539 94.9042 123.702C94.8156 123.758 94.755 123.844 94.7357 123.94C94.7165 124.036 94.74 124.135 94.8013 124.214C94.8626 124.293 94.9566 124.346 95.0626 124.363C95.1686 124.379 95.2779 124.356 95.3665 124.299C95.5008 124.214 95.648 124.147 95.8035 124.1L95.8422 124.653C95.849 124.75 95.8982 124.84 95.979 124.903C96.0598 124.967 96.1656 124.998 96.2731 124.99C96.3806 124.983 96.481 124.937 96.5522 124.863C96.6234 124.789 96.6596 124.693 96.6528 124.596L96.6142 124.043C96.7746 124.068 96.9298 124.114 97.0747 124.18C97.1703 124.224 97.2817 124.231 97.3844 124.2C97.4871 124.17 97.5728 124.103 97.6224 124.016C97.6721 123.929 97.6818 123.829 97.6493 123.736C97.6168 123.644 97.5449 123.568 97.4493 123.524C97.1729 123.398 96.8718 123.321 96.562 123.297L96.4437 121.605L98.1258 122.338C98.0349 122.608 98.0011 122.891 98.0263 123.171C98.035 123.267 98.085 123.355 98.1655 123.417C98.246 123.478 98.3506 123.509 98.4568 123.502L98.4647 123.501C98.5179 123.496 98.5697 123.482 98.6171 123.46C98.6646 123.437 98.7068 123.406 98.7413 123.369C98.7758 123.332 98.802 123.289 98.8183 123.243C98.8346 123.197 98.8408 123.149 98.8364 123.101C98.8232 122.954 98.8341 122.805 98.8688 122.661L99.518 122.943C99.566 122.967 99.6189 122.981 99.6736 122.986C99.7282 122.99 99.7834 122.984 99.8359 122.969C99.8883 122.954 99.937 122.929 99.9788 122.896C100.021 122.863 100.055 122.823 100.079 122.779C100.104 122.734 100.118 122.685 100.121 122.636C100.124 122.586 100.116 122.537 100.097 122.49C100.079 122.444 100.05 122.402 100.012 122.366C99.9747 122.33 99.9294 122.302 99.8791 122.282Z" fill="#C4EDFF"/>
</g>
<g filter="url(#filter7_d_1589_263)">
<path fill-rule="evenodd" clip-rule="evenodd" d="M143 50.9118C143 74.059 124.235 92.8235 101.088 92.8235C100.902 92.8235 100.715 92.8223 100.529 92.8199V92.8235H42.4118H39.0588V92.6522C22.7337 90.9744 10 77.1801 10 60.4118C10 42.5112 24.5112 28 42.4118 28C49.9346 28 56.8588 30.5629 62.3589 34.8632C68.6578 19.6794 83.6259 9 101.088 9C124.235 9 143 27.7645 143 50.9118Z" fill="url(#paint0_linear_1589_263)"/>
</g>
<defs>
<filter id="filter0_d_1589_263" x="110.851" y="101.014" width="10.2983" height="9.97266" filterUnits="userSpaceOnUse" color-interpolation-filters="sRGB">
<feFlood flood-opacity="0" result="BackgroundImageFix"/>
<feColorMatrix in="SourceAlpha" type="matrix" values="0 0 0 0 0 0 0 0 0 0 0 0 0 0 0 0 0 0 127 0" result="hardAlpha"/>
<feOffset/>
<feGaussianBlur stdDeviation="0.5"/>
<feComposite in2="hardAlpha" operator="out"/>
<feColorMatrix type="matrix" values="0 0 0 0 0 0 0 0 0 0 0 0 0 0 0 0 0 0 0.1 0"/>
<feBlend mode="normal" in2="BackgroundImageFix" result="effect1_dropShadow_1589_263"/>
<feBlend mode="normal" in="SourceGraphic" in2="effect1_dropShadow_1589_263" result="shape"/>
</filter>
<filter id="filter1_d_1589_263" x="91.8511" y="95.0127" width="10.293" height="9.97314" filterUnits="userSpaceOnUse" color-interpolation-filters="sRGB">
<feFlood flood-opacity="0" result="BackgroundImageFix"/>
<feColorMatrix in="SourceAlpha" type="matrix" values="0 0 0 0 0 0 0 0 0 0 0 0 0 0 0 0 0 0 127 0" result="hardAlpha"/>
<feOffset/>
<feGaussianBlur stdDeviation="0.5"/>
<feComposite in2="hardAlpha" operator="out"/>
<feColorMatrix type="matrix" values="0 0 0 0 0 0 0 0 0 0 0 0 0 0 0 0 0 0 0.1 0"/>
<feBlend mode="normal" in2="BackgroundImageFix" result="effect1_dropShadow_1589_263"/>
<feBlend mode="normal" in="SourceGraphic" in2="effect1_dropShadow_1589_263" result="shape"/>
</filter>
<filter id="filter2_d_1589_263" x="70.9072" y="108.005" width="10.1855" height="9.99023" filterUnits="userSpaceOnUse" color-interpolation-filters="sRGB">
<feFlood flood-opacity="0" result="BackgroundImageFix"/>
<feColorMatrix in="SourceAlpha" type="matrix" values="0 0 0 0 0 0 0 0 0 0 0 0 0 0 0 0 0 0 127 0" result="hardAlpha"/>
<feOffset/>
<feGaussianBlur stdDeviation="0.5"/>
<feComposite in2="hardAlpha" operator="out"/>
<feColorMatrix type="matrix" values="0 0 0 0 0 0 0 0 0 0 0 0 0 0 0 0 0 0 0.1 0"/>
<feBlend mode="normal" in2="BackgroundImageFix" result="effect1_dropShadow_1589_263"/>
<feBlend mode="normal" in="SourceGraphic" in2="effect1_dropShadow_1589_263" result="shape"/>
</filter>
<filter id="filter3_d_1589_263" x="66" y="88" width="10" height="10" filterUnits="userSpaceOnUse" color-interpolation-filters="sRGB">
<feFlood flood-opacity="0" result="BackgroundImageFix"/>
<feColorMatrix in="SourceAlpha" type="matrix" values="0 0 0 0 0 0 0 0 0 0 0 0 0 0 0 0 0 0 127 0" result="hardAlpha"/>
<feOffset/>
<feGaussianBlur stdDeviation="0.5"/>
<feComposite in2="hardAlpha" operator="out"/>
<feColorMatrix type="matrix" values="0 0 0 0 0 0 0 0 0 0 0 0 0 0 0 0 0 0 0.1 0"/>
<feBlend mode="normal" in2="BackgroundImageFix" result="effect1_dropShadow_1589_263"/>
<feBlend mode="normal" in="SourceGraphic" in2="effect1_dropShadow_1589_263" result="shape"/>
</filter>
<filter id="filter4_d_1589_263" x="39.8511" y="97.0142" width="10.2983" height="9.97266" filterUnits="userSpaceOnUse" color-interpolation-filters="sRGB">
<feFlood flood-opacity="0" result="BackgroundImageFix"/>
<feColorMatrix in="SourceAlpha" type="matrix" values="0 0 0 0 0 0 0 0 0 0 0 0 0 0 0 0 0 0 127 0" result="hardAlpha"/>
<feOffset/>
<feGaussianBlur stdDeviation="0.5"/>
<feComposite in2="hardAlpha" operator="out"/>
<feColorMatrix type="matrix" values="0 0 0 0 0 0 0 0 0 0 0 0 0 0 0 0 0 0 0.1 0"/>
<feBlend mode="normal" in2="BackgroundImageFix" result="effect1_dropShadow_1589_263"/>
<feBlend mode="normal" in="SourceGraphic" in2="effect1_dropShadow_1589_263" result="shape"/>
</filter>
<filter id="filter5_d_1589_263" x="44.8784" y="116.008" width="10.2378" height="9.98291" filterUnits="userSpaceOnUse" color-interpolation-filters="sRGB">
<feFlood flood-opacity="0" result="BackgroundImageFix"/>
<feColorMatrix in="SourceAlpha" type="matrix" values="0 0 0 0 0 0 0 0 0 0 0 0 0 0 0 0 0 0 127 0" result="hardAlpha"/>
<feOffset/>
<feGaussianBlur stdDeviation="0.5"/>
<feComposite in2="hardAlpha" operator="out"/>
<feColorMatrix type="matrix" values="0 0 0 0 0 0 0 0 0 0 0 0 0 0 0 0 0 0 0.1 0"/>
<feBlend mode="normal" in2="BackgroundImageFix" result="effect1_dropShadow_1589_263"/>
<feBlend mode="normal" in="SourceGraphic" in2="effect1_dropShadow_1589_263" result="shape"/>
</filter>
<filter id="filter6_d_1589_263" x="90.8784" y="116.009" width="10.2432" height="9.98291" filterUnits="userSpaceOnUse" color-interpolation-filters="sRGB">
<feFlood flood-opacity="0" result="BackgroundImageFix"/>
<feColorMatrix in="SourceAlpha" type="matrix" values="0 0 0 0 0 0 0 0 0 0 0 0 0 0 0 0 0 0 127 0" result="hardAlpha"/>
<feOffset/>
<feGaussianBlur stdDeviation="0.5"/>
<feComposite in2="hardAlpha" operator="out"/>
<feColorMatrix type="matrix" values="0 0 0 0 0 0 0 0 0 0 0 0 0 0 0 0 0 0 0.1 0"/>
<feBlend mode="normal" in2="BackgroundImageFix" result="effect1_dropShadow_1589_263"/>
<feBlend mode="normal" in="SourceGraphic" in2="effect1_dropShadow_1589_263" result="shape"/>
</filter>
<filter id="filter7_d_1589_263" x="0" y="0" width="153" height="103.824" filterUnits="userSpaceOnUse" color-interpolation-filters="sRGB">
<feFlood flood-opacity="0" result="BackgroundImageFix"/>
<feColorMatrix in="SourceAlpha" type="matrix" values="0 0 0 0 0 0 0 0 0 0 0 0 0 0 0 0 0 0 127 0" result="hardAlpha"/>
<feOffset dy="1"/>
<feGaussianBlur stdDeviation="5"/>
<feComposite in2="hardAlpha" operator="out"/>
<feColorMatrix type="matrix" values="0 0 0 0 0 0 0 0 0 0 0 0 0 0 0 0 0 0 0.05 0"/>
<feBlend mode="normal" in2="BackgroundImageFix" result="effect1_dropShadow_1589_263"/>
<feBlend mode="normal" in="SourceGraphic" in2="effect1_dropShadow_1589_263" result="shape"/>
</filter>
<linearGradient id="paint0_linear_1589_263" x1="75.3824" y1="7.88235" x2="104.441" y2="92.8235" gradientUnits="userSpaceOnUse">
<stop stop-color="#F7FDFF"/>
<stop offset="1" stop-color="#D0D0D0"/>
</linearGradient>
</defs>
</svg>
