<svg width="153" height="107" viewBox="0 0 153 107" fill="none" xmlns="http://www.w3.org/2000/svg">
<g filter="url(#filter0_d_1589_266)">
<ellipse cx="48" cy="37.5" rx="29" ry="28.5" fill="url(#paint0_linear_1589_266)"/>
</g>
<g filter="url(#filter1_d_1589_266)">
<path fill-rule="evenodd" clip-rule="evenodd" d="M143 53.9118C143 77.059 124.235 95.8235 101.088 95.8235C100.902 95.8235 100.715 95.8223 100.529 95.8199V95.8235H42.4118H39.0588V95.6522C22.7337 93.9744 10 80.1801 10 63.4118C10 45.5112 24.5112 31 42.4118 31C49.9346 31 56.8588 33.5629 62.3589 37.8632C68.6578 22.6794 83.6259 12 101.088 12C124.235 12 143 30.7645 143 53.9118Z" fill="url(#paint1_linear_1589_266)"/>
</g>
<defs>
<filter id="filter0_d_1589_266" x="9" y="0" width="78" height="77" filterUnits="userSpaceOnUse" color-interpolation-filters="sRGB">
<feFlood flood-opacity="0" result="BackgroundImageFix"/>
<feColorMatrix in="SourceAlpha" type="matrix" values="0 0 0 0 0 0 0 0 0 0 0 0 0 0 0 0 0 0 127 0" result="hardAlpha"/>
<feOffset dy="1"/>
<feGaussianBlur stdDeviation="5"/>
<feComposite in2="hardAlpha" operator="out"/>
<feColorMatrix type="matrix" values="0 0 0 0 0 0 0 0 0 0 0 0 0 0 0 0 0 0 0.05 0"/>
<feBlend mode="normal" in2="BackgroundImageFix" result="effect1_dropShadow_1589_266"/>
<feBlend mode="normal" in="SourceGraphic" in2="effect1_dropShadow_1589_266" result="shape"/>
</filter>
<filter id="filter1_d_1589_266" x="0" y="3" width="153" height="103.823" filterUnits="userSpaceOnUse" color-interpolation-filters="sRGB">
<feFlood flood-opacity="0" result="BackgroundImageFix"/>
<feColorMatrix in="SourceAlpha" type="matrix" values="0 0 0 0 0 0 0 0 0 0 0 0 0 0 0 0 0 0 127 0" result="hardAlpha"/>
<feOffset dy="1"/>
<feGaussianBlur stdDeviation="5"/>
<feComposite in2="hardAlpha" operator="out"/>
<feColorMatrix type="matrix" values="0 0 0 0 0 0 0 0 0 0 0 0 0 0 0 0 0 0 0.05 0"/>
<feBlend mode="normal" in2="BackgroundImageFix" result="effect1_dropShadow_1589_266"/>
<feBlend mode="normal" in="SourceGraphic" in2="effect1_dropShadow_1589_266" result="shape"/>
</filter>
<linearGradient id="paint0_linear_1589_266" x1="48" y1="9" x2="48" y2="66" gradientUnits="userSpaceOnUse">
<stop stop-color="#FFC700"/>
<stop offset="1" stop-color="#FFA800"/>
</linearGradient>
<linearGradient id="paint1_linear_1589_266" x1="75.3824" y1="10.8824" x2="104.441" y2="95.8235" gradientUnits="userSpaceOnUse">
<stop stop-color="#F8F8F8"/>
<stop offset="1" stop-color="#F0F0F0"/>
</linearGradient>
</defs>
</svg>
