<svg width="58" height="78" viewBox="0 0 58 78" fill="none" xmlns="http://www.w3.org/2000/svg">
<g filter="url(#filter0_d_1587_234)">
<path fill-rule="evenodd" clip-rule="evenodd" d="M41.3822 9.42559C42.3909 9.47428 42.585 10.839 41.6992 11.3241C31.836 16.7263 25.6598 27.5422 26.8912 39.2582C28.1226 50.974 36.4124 60.2695 47.1832 63.503C48.1505 63.7934 48.2444 65.1686 47.2679 65.4259C45.8238 65.8064 44.3317 66.082 42.7993 66.2431C26.8707 67.9172 12.6244 56.5844 10.9791 40.9305C9.33377 25.2767 20.9126 11.2295 36.8411 9.55534C38.3736 9.39427 39.8906 9.3536 41.3822 9.42559Z" fill="url(#paint0_linear_1587_234)"/>
</g>
<defs>
<filter id="filter0_d_1587_234" x="0.823242" y="0.391357" width="57.1328" height="77.0156" filterUnits="userSpaceOnUse" color-interpolation-filters="sRGB">
<feFlood flood-opacity="0" result="BackgroundImageFix"/>
<feColorMatrix in="SourceAlpha" type="matrix" values="0 0 0 0 0 0 0 0 0 0 0 0 0 0 0 0 0 0 127 0" result="hardAlpha"/>
<feOffset dy="1"/>
<feGaussianBlur stdDeviation="5"/>
<feComposite in2="hardAlpha" operator="out"/>
<feColorMatrix type="matrix" values="0 0 0 0 0 0 0 0 0 0 0 0 0 0 0 0 0 0 0.05 0"/>
<feBlend mode="normal" in2="BackgroundImageFix" result="effect1_dropShadow_1587_234"/>
<feBlend mode="normal" in="SourceGraphic" in2="effect1_dropShadow_1587_234" result="shape"/>
</filter>
<linearGradient id="paint0_linear_1587_234" x1="34.7468" y1="9.77546" x2="40.705" y2="66.4632" gradientUnits="userSpaceOnUse">
<stop stop-color="#DBDBDB"/>
<stop offset="1" stop-color="#B7B7B7"/>
</linearGradient>
</defs>
</svg>
