<svg width="177" height="152" viewBox="0 0 177 152" fill="none" xmlns="http://www.w3.org/2000/svg">
<rect x="1" y="1" width="175" height="150" rx="5" fill="white" stroke="#EBEBEB" stroke-width="2"/>
<path d="M17.4134 140H16.2486L18.8658 132.727H20.1335L22.7507 140H21.5859L19.5298 134.048H19.473L17.4134 140ZM17.6087 137.152H21.3871V138.075H17.6087V137.152ZM23.7157 140V134.545H24.7349V135.433H24.8024C24.916 135.133 25.1019 134.898 25.3599 134.73C25.618 134.56 25.9269 134.474 26.2868 134.474C26.6513 134.474 26.9567 134.56 27.2029 134.73C27.4515 134.901 27.635 135.135 27.7534 135.433H27.8102C27.9404 135.142 28.1475 134.91 28.4316 134.737C28.7157 134.562 29.0543 134.474 29.4473 134.474C29.9421 134.474 30.3457 134.629 30.6582 134.94C30.9731 135.25 31.1305 135.717 31.1305 136.342V140H30.0687V136.442C30.0687 136.072 29.9681 135.805 29.7669 135.639C29.5656 135.473 29.3253 135.391 29.046 135.391C28.7003 135.391 28.4316 135.497 28.2399 135.71C28.0481 135.921 27.9522 136.192 27.9522 136.523V140H26.894V136.374C26.894 136.078 26.8017 135.84 26.617 135.661C26.4324 135.481 26.1921 135.391 25.8961 135.391C25.6949 135.391 25.5091 135.444 25.3386 135.55C25.1705 135.655 25.0344 135.8 24.9302 135.987C24.8284 136.174 24.7775 136.391 24.7775 136.637V140H23.7157ZM36.641 135.877L35.6786 136.048C35.6384 135.924 35.5745 135.807 35.4869 135.696C35.4016 135.585 35.2856 135.494 35.1388 135.423C34.9921 135.352 34.8086 135.316 34.5884 135.316C34.2878 135.316 34.0368 135.384 33.8356 135.518C33.6344 135.651 33.5337 135.823 33.5337 136.033C33.5337 136.216 33.6012 136.362 33.7362 136.474C33.8711 136.585 34.0889 136.676 34.3896 136.747L35.256 136.946C35.7579 137.062 36.132 137.241 36.3782 137.482C36.6244 137.724 36.7475 138.037 36.7475 138.423C36.7475 138.75 36.6528 139.041 36.4634 139.297C36.2764 139.55 36.0148 139.749 35.6786 139.893C35.3448 140.038 34.9577 140.11 34.5174 140.11C33.9066 140.11 33.4083 139.98 33.0224 139.719C32.6365 139.457 32.3997 139.084 32.3121 138.601L33.3384 138.445C33.4023 138.712 33.5337 138.915 33.7326 139.052C33.9315 139.187 34.1907 139.254 34.5103 139.254C34.8583 139.254 35.1365 139.182 35.3448 139.038C35.5531 138.891 35.6573 138.712 35.6573 138.501C35.6573 138.331 35.5934 138.188 35.4656 138.072C35.3401 137.956 35.1471 137.868 34.8867 137.809L33.9634 137.607C33.4544 137.491 33.078 137.306 32.8342 137.053C32.5927 136.799 32.4719 136.478 32.4719 136.09C32.4719 135.768 32.5619 135.487 32.7418 135.245C32.9218 135.004 33.1703 134.815 33.4876 134.68C33.8048 134.543 34.1682 134.474 34.5778 134.474C35.1673 134.474 35.6313 134.602 35.9698 134.858C36.3084 135.111 36.5321 135.451 36.641 135.877ZM40.4611 134.545V135.398H37.4817V134.545H40.4611ZM38.2807 133.239H39.3425V138.398C39.3425 138.604 39.3733 138.759 39.4348 138.864C39.4964 138.965 39.5757 139.035 39.6728 139.073C39.7722 139.109 39.8799 139.126 39.9959 139.126C40.0811 139.126 40.1557 139.121 40.2196 139.109C40.2836 139.097 40.3333 139.087 40.3688 139.08L40.5605 139.957C40.499 139.981 40.4114 140.005 40.2978 140.028C40.1841 140.054 40.0421 140.069 39.8716 140.071C39.5923 140.076 39.3319 140.026 39.0904 139.922C38.8489 139.818 38.6536 139.657 38.5044 139.439C38.3553 139.221 38.2807 138.948 38.2807 138.619V133.239ZM43.9279 140.11C43.3905 140.11 42.9277 139.995 42.5394 139.766C42.1535 139.534 41.8552 139.208 41.6445 138.789C41.4362 138.368 41.332 137.874 41.332 137.308C41.332 136.75 41.4362 136.257 41.6445 135.831C41.8552 135.405 42.1488 135.072 42.5252 134.833C42.904 134.594 43.3467 134.474 43.8533 134.474C44.1611 134.474 44.4594 134.525 44.7482 134.627C45.0371 134.729 45.2963 134.889 45.5259 135.107C45.7556 135.324 45.9367 135.607 46.0692 135.955C46.2018 136.301 46.2681 136.721 46.2681 137.216V137.592H41.9322V136.797H45.2276C45.2276 136.518 45.1708 136.27 45.0572 136.055C44.9435 135.837 44.7837 135.665 44.5778 135.54C44.3742 135.414 44.1351 135.352 43.8604 135.352C43.5621 135.352 43.3017 135.425 43.0792 135.572C42.859 135.716 42.6886 135.906 42.5678 136.14C42.4495 136.372 42.3903 136.624 42.3903 136.896V137.518C42.3903 137.882 42.4542 138.192 42.582 138.448C42.7122 138.704 42.8933 138.899 43.1254 139.034C43.3574 139.167 43.6284 139.233 43.9386 139.233C44.1398 139.233 44.3233 139.205 44.489 139.148C44.6547 139.089 44.7979 139.001 44.9187 138.885C45.0394 138.769 45.1317 138.626 45.1957 138.455L46.2006 138.636C46.1201 138.932 45.9757 139.192 45.7674 139.414C45.5614 139.634 45.3022 139.806 44.9897 139.929C44.6796 140.05 44.3256 140.11 43.9279 140.11ZM47.4462 140V134.545H48.4725V135.412H48.5293C48.6287 135.118 48.8039 134.888 49.0549 134.719C49.3082 134.549 49.5946 134.464 49.9142 134.464C49.9805 134.464 50.0587 134.466 50.1486 134.471C50.2409 134.476 50.3132 134.482 50.3652 134.489V135.504C50.3226 135.492 50.2469 135.479 50.138 135.465C50.0291 135.449 49.9202 135.44 49.8113 135.44C49.5603 135.44 49.3366 135.494 49.1401 135.6C48.946 135.704 48.7921 135.85 48.6784 136.037C48.5648 136.222 48.508 136.432 48.508 136.669V140H47.4462ZM53.1307 140.107C52.6903 140.107 52.2973 139.994 51.9517 139.769C51.6084 139.542 51.3385 139.219 51.142 138.8C50.9479 138.378 50.8509 137.873 50.8509 137.283C50.8509 136.694 50.9491 136.19 51.1456 135.771C51.3445 135.352 51.6167 135.031 51.9624 134.808C52.308 134.586 52.6998 134.474 53.1378 134.474C53.4763 134.474 53.7486 134.531 53.9545 134.645C54.1629 134.756 54.3239 134.886 54.4375 135.036C54.5535 135.185 54.6435 135.316 54.7074 135.43H54.7713V132.727H55.8331V140H54.7962V139.151H54.7074C54.6435 139.267 54.5511 139.4 54.4304 139.549C54.312 139.698 54.1487 139.828 53.9403 139.94C53.732 140.051 53.4621 140.107 53.1307 140.107ZM53.3651 139.201C53.6705 139.201 53.9285 139.121 54.1392 138.96C54.3523 138.796 54.5133 138.57 54.6222 138.281C54.7334 137.992 54.7891 137.656 54.7891 137.273C54.7891 136.894 54.7346 136.562 54.6257 136.278C54.5168 135.994 54.357 135.773 54.1463 135.614C53.9356 135.456 53.6752 135.376 53.3651 135.376C53.0455 135.376 52.7791 135.459 52.5661 135.625C52.353 135.791 52.192 136.017 52.0831 136.303C51.9766 136.59 51.9233 136.913 51.9233 137.273C51.9233 137.637 51.9777 137.965 52.0866 138.256C52.1955 138.548 52.3565 138.778 52.5696 138.949C52.785 139.117 53.0502 139.201 53.3651 139.201ZM58.9359 140.121C58.5903 140.121 58.2778 140.057 57.9984 139.929C57.719 139.799 57.4977 139.611 57.3343 139.364C57.1734 139.118 57.0929 138.816 57.0929 138.459C57.0929 138.151 57.152 137.898 57.2704 137.699C57.3888 137.5 57.5486 137.343 57.7498 137.227C57.9511 137.111 58.176 137.023 58.4245 136.964C58.6731 136.905 58.9264 136.86 59.1845 136.829C59.5112 136.791 59.7763 136.76 59.9799 136.737C60.1835 136.71 60.3315 136.669 60.4238 136.612C60.5162 136.555 60.5623 136.463 60.5623 136.335V136.31C60.5623 136 60.4747 135.76 60.2995 135.589C60.1267 135.419 59.8687 135.334 59.5254 135.334C59.1679 135.334 58.8862 135.413 58.6802 135.572C58.4766 135.728 58.3358 135.902 58.2576 136.094L57.2598 135.866C57.3781 135.535 57.551 135.268 57.7782 135.064C58.0079 134.858 58.2718 134.709 58.5701 134.616C58.8684 134.522 59.1821 134.474 59.5112 134.474C59.729 134.474 59.9598 134.5 60.2037 134.553C60.4499 134.602 60.6795 134.695 60.8926 134.83C61.108 134.964 61.2844 135.157 61.4217 135.408C61.559 135.657 61.6277 135.98 61.6277 136.378V140H60.5907V139.254H60.5481C60.4795 139.392 60.3765 139.527 60.2392 139.659C60.1019 139.792 59.9255 139.902 59.71 139.989C59.4946 140.077 59.2366 140.121 58.9359 140.121ZM59.1667 139.268C59.4603 139.268 59.7112 139.21 59.9196 139.094C60.1303 138.978 60.2901 138.827 60.399 138.64C60.5102 138.451 60.5659 138.248 60.5659 138.033V137.33C60.528 137.367 60.4546 137.403 60.3457 137.436C60.2392 137.467 60.1172 137.494 59.9799 137.518C59.8426 137.539 59.7089 137.559 59.5787 137.578C59.4484 137.595 59.3395 137.609 59.252 137.621C59.046 137.647 58.8578 137.691 58.6873 137.752C58.5192 137.814 58.3843 137.902 58.2825 138.018C58.1831 138.132 58.1333 138.284 58.1333 138.473C58.1333 138.736 58.2304 138.935 58.4245 139.07C58.6187 139.202 58.8661 139.268 59.1667 139.268ZM63.0419 140V134.545H64.0611V135.433H64.1286C64.2422 135.133 64.428 134.898 64.6861 134.73C64.9441 134.56 65.2531 134.474 65.6129 134.474C65.9775 134.474 66.2829 134.56 66.5291 134.73C66.7777 134.901 66.9612 135.135 67.0795 135.433H67.1364C67.2666 135.142 67.4737 134.91 67.7578 134.737C68.0419 134.562 68.3804 134.474 68.7734 134.474C69.2682 134.474 69.6719 134.629 69.9844 134.94C70.2992 135.25 70.4567 135.717 70.4567 136.342V140H69.3949V136.442C69.3949 136.072 69.2943 135.805 69.093 135.639C68.8918 135.473 68.6515 135.391 68.3722 135.391C68.0265 135.391 67.7578 135.497 67.5661 135.71C67.3743 135.921 67.2784 136.192 67.2784 136.523V140H66.2202V136.374C66.2202 136.078 66.1278 135.84 65.9432 135.661C65.7585 135.481 65.5182 135.391 65.2223 135.391C65.0211 135.391 64.8352 135.444 64.6648 135.55C64.4967 135.655 64.3606 135.8 64.2564 135.987C64.1546 136.174 64.1037 136.391 64.1037 136.637V140H63.0419ZM77.2713 132.727V140H76.1705V133.828H76.1278L74.3878 134.964V133.913L76.2024 132.727H77.2713ZM81.7777 140.099C81.4534 140.095 81.1338 140.036 80.8189 139.922C80.5064 139.808 80.2223 139.619 79.9666 139.354C79.7109 139.089 79.5062 138.732 79.3523 138.285C79.2008 137.837 79.125 137.279 79.125 136.609C79.125 135.974 79.1877 135.411 79.3132 134.918C79.4411 134.426 79.6245 134.01 79.8636 133.672C80.1027 133.331 80.3916 133.072 80.7301 132.894C81.0687 132.717 81.4486 132.628 81.87 132.628C82.3033 132.628 82.688 132.713 83.0241 132.884C83.3603 133.054 83.6326 133.29 83.8409 133.59C84.0516 133.891 84.1854 134.233 84.2422 134.616H83.1591C83.0857 134.313 82.9401 134.066 82.7223 133.874C82.5045 133.683 82.2204 133.587 81.87 133.587C81.3374 133.587 80.9219 133.819 80.6236 134.283C80.3277 134.747 80.1785 135.392 80.1761 136.218H80.2294C80.3549 136.012 80.5088 135.837 80.6911 135.692C80.8757 135.546 81.0817 135.433 81.3089 135.355C81.5386 135.275 81.7801 135.234 82.0334 135.234C82.4548 135.234 82.8359 135.337 83.1768 135.543C83.5201 135.747 83.7936 136.029 83.9972 136.388C84.2008 136.748 84.3026 137.16 84.3026 137.624C84.3026 138.088 84.1972 138.509 83.9865 138.885C83.7782 139.261 83.4846 139.56 83.1058 139.78C82.727 139.998 82.2843 140.104 81.7777 140.099ZM81.7741 139.176C82.0535 139.176 82.3033 139.107 82.5234 138.97C82.7436 138.833 82.9176 138.648 83.0455 138.416C83.1733 138.184 83.2372 137.925 83.2372 137.638C83.2372 137.359 83.1745 137.105 83.049 136.875C82.9259 136.645 82.7554 136.463 82.5376 136.328C82.3222 136.193 82.076 136.126 81.799 136.126C81.5883 136.126 81.393 136.166 81.2131 136.246C81.0355 136.327 80.8793 136.438 80.7443 136.58C80.6094 136.722 80.5028 136.886 80.4247 137.07C80.349 137.253 80.3111 137.446 80.3111 137.649C80.3111 137.921 80.3738 138.174 80.4993 138.406C80.6271 138.638 80.8011 138.825 81.0213 138.967C81.2438 139.106 81.4948 139.176 81.7741 139.176ZM86.3098 139.098C86.1157 139.098 85.9488 139.029 85.8091 138.892C85.6694 138.752 85.5996 138.584 85.5996 138.388C85.5996 138.194 85.6694 138.028 85.8091 137.891C85.9488 137.751 86.1157 137.681 86.3098 137.681C86.504 137.681 86.6709 137.751 86.8105 137.891C86.9502 138.028 87.0201 138.194 87.0201 138.388C87.0201 138.518 86.9869 138.638 86.9206 138.746C86.8567 138.853 86.7715 138.938 86.665 139.002C86.5584 139.066 86.44 139.098 86.3098 139.098ZM86.3098 135.455C86.1157 135.455 85.9488 135.386 85.8091 135.249C85.6694 135.109 85.5996 134.941 85.5996 134.744C85.5996 134.55 85.6694 134.384 85.8091 134.247C85.9488 134.107 86.1157 134.038 86.3098 134.038C86.504 134.038 86.6709 134.107 86.8105 134.247C86.9502 134.384 87.0201 134.55 87.0201 134.744C87.0201 134.875 86.9869 134.994 86.9206 135.103C86.8567 135.21 86.7715 135.295 86.665 135.359C86.5584 135.423 86.44 135.455 86.3098 135.455ZM90.96 140.099C90.4724 140.099 90.0368 140.015 89.6532 139.847C89.2721 139.679 88.9702 139.446 88.7477 139.148C88.5275 138.847 88.4092 138.499 88.3926 138.104H89.5076C89.5218 138.319 89.594 138.506 89.7243 138.665C89.8568 138.821 90.0297 138.942 90.2427 139.027C90.4558 139.112 90.6925 139.155 90.9529 139.155C91.2394 139.155 91.4927 139.105 91.7129 139.006C91.9354 138.906 92.1094 138.768 92.2349 138.59C92.3604 138.41 92.4231 138.203 92.4231 137.969C92.4231 137.725 92.3604 137.511 92.2349 137.326C92.1118 137.139 91.9307 136.992 91.6916 136.886C91.4548 136.779 91.1684 136.726 90.8322 136.726H90.2179V135.831H90.8322C91.1021 135.831 91.3388 135.782 91.5424 135.685C91.7484 135.588 91.9094 135.453 92.0254 135.281C92.1414 135.105 92.1994 134.901 92.1994 134.666C92.1994 134.441 92.1485 134.246 92.0467 134.08C91.9473 133.912 91.8052 133.781 91.6206 133.686C91.4383 133.591 91.2228 133.544 90.9743 133.544C90.7375 133.544 90.5162 133.588 90.3102 133.675C90.1066 133.761 89.9409 133.884 89.813 134.045C89.6852 134.203 89.6165 134.394 89.6071 134.616H88.5453C88.5571 134.223 88.6731 133.878 88.8933 133.58C89.1158 133.281 89.4094 133.048 89.774 132.88C90.1386 132.712 90.5434 132.628 90.9885 132.628C91.4548 132.628 91.8573 132.719 92.1958 132.901C92.5368 133.081 92.7995 133.321 92.9842 133.622C93.1712 133.923 93.2636 134.252 93.2612 134.609C93.2636 135.017 93.1499 135.362 92.9203 135.646C92.693 135.93 92.39 136.121 92.0112 136.218V136.275C92.4941 136.348 92.8682 136.54 93.1333 136.85C93.4009 137.16 93.5334 137.545 93.5311 138.004C93.5334 138.404 93.4222 138.763 93.1973 139.08C92.9747 139.397 92.6705 139.647 92.2846 139.83C91.8987 140.009 91.4572 140.099 90.96 140.099ZM97.2917 132.628C97.6161 132.63 97.9357 132.689 98.2505 132.805C98.5654 132.921 98.8495 133.111 99.1028 133.374C99.3585 133.636 99.5621 133.991 99.7136 134.439C99.8675 134.884 99.9456 135.438 99.948 136.101C99.948 136.738 99.8841 137.305 99.7562 137.802C99.6284 138.297 99.4449 138.714 99.2058 139.055C98.969 139.396 98.6814 139.656 98.3429 139.833C98.0043 140.011 97.6232 140.099 97.1994 140.099C96.7662 140.099 96.3815 140.014 96.0453 139.844C95.7091 139.673 95.4357 139.438 95.225 139.137C95.0143 138.834 94.8829 138.486 94.8308 138.093H95.9139C95.9849 138.406 96.1293 138.659 96.3471 138.853C96.5673 139.045 96.8514 139.141 97.1994 139.141C97.7321 139.141 98.1475 138.909 98.4458 138.445C98.7441 137.978 98.8945 137.327 98.8968 136.491H98.84C98.7169 136.695 98.563 136.87 98.3784 137.017C98.1961 137.164 97.9913 137.277 97.764 137.358C97.5368 137.438 97.2941 137.479 97.036 137.479C96.617 137.479 96.2359 137.376 95.8926 137.17C95.5493 136.964 95.2759 136.681 95.0723 136.321C94.8687 135.961 94.7669 135.55 94.7669 135.089C94.7669 134.629 94.871 134.213 95.0794 133.839C95.2901 133.465 95.5836 133.169 95.96 132.951C96.3388 132.731 96.7827 132.623 97.2917 132.628ZM97.2953 133.551C97.0183 133.551 96.7685 133.62 96.546 133.757C96.3258 133.892 96.1518 134.076 96.024 134.308C95.8961 134.537 95.8322 134.793 95.8322 135.075C95.8322 135.356 95.8938 135.612 96.0169 135.842C96.1423 136.069 96.3128 136.25 96.5282 136.385C96.746 136.518 96.9946 136.584 97.274 136.584C97.4823 136.584 97.6764 136.544 97.8564 136.463C98.0363 136.383 98.1937 136.271 98.3287 136.129C98.4636 135.985 98.569 135.821 98.6447 135.639C98.7205 135.457 98.7583 135.265 98.7583 135.064C98.7583 134.796 98.6944 134.548 98.5666 134.318C98.4411 134.089 98.2683 133.904 98.0481 133.764C97.8279 133.622 97.577 133.551 97.2953 133.551Z" fill="black" fill-opacity="0.5"/>
<path d="M31.5114 55.4773C29.1705 55.4773 27.0795 55.0739 25.2386 54.267C23.4091 53.4602 21.9602 52.3409 20.892 50.9091C19.8352 49.4659 19.267 47.7955 19.1875 45.8977H24.5398C24.608 46.9318 24.9545 47.8295 25.5795 48.5909C26.2159 49.3409 27.0455 49.9205 28.0682 50.3295C29.0909 50.7386 30.2273 50.9432 31.4773 50.9432C32.8523 50.9432 34.0682 50.7045 35.125 50.2273C36.1932 49.75 37.0284 49.0852 37.6307 48.233C38.233 47.3693 38.5341 46.375 38.5341 45.25C38.5341 44.0795 38.233 43.0511 37.6307 42.1648C37.0398 41.267 36.1705 40.5625 35.0227 40.0511C33.8864 39.5398 32.5114 39.2841 30.8977 39.2841H27.9489V34.9886H30.8977C32.1932 34.9886 33.3295 34.7557 34.3068 34.2898C35.2955 33.8239 36.0682 33.1761 36.625 32.3466C37.1818 31.5057 37.4602 30.5227 37.4602 29.3977C37.4602 28.3182 37.2159 27.3807 36.7273 26.5852C36.25 25.7784 35.5682 25.1477 34.6818 24.6932C33.8068 24.2386 32.7727 24.0114 31.5795 24.0114C30.4432 24.0114 29.3807 24.2216 28.392 24.642C27.4148 25.0511 26.6193 25.642 26.0057 26.4148C25.392 27.1761 25.0625 28.0909 25.017 29.1591H19.9205C19.9773 27.2727 20.5341 25.6136 21.5909 24.1818C22.6591 22.75 24.0682 21.6307 25.8182 20.8239C27.5682 20.017 29.5114 19.6136 31.6477 19.6136C33.8864 19.6136 35.8182 20.0511 37.4432 20.9261C39.0795 21.7898 40.3409 22.9432 41.2273 24.3864C42.125 25.8295 42.5682 27.4091 42.5568 29.125C42.5682 31.0795 42.0227 32.7386 40.9205 34.1023C39.8295 35.4659 38.375 36.3807 36.5568 36.8466V37.1193C38.875 37.4716 40.6705 38.392 41.9432 39.8807C43.2273 41.3693 43.8636 43.2159 43.8523 45.4205C43.8636 47.3409 43.3295 49.0625 42.25 50.5852C41.1818 52.108 39.7216 53.3068 37.8693 54.1818C36.017 55.0455 33.8977 55.4773 31.5114 55.4773ZM63.5398 20.0909V55H58.2557V25.375H58.0511L49.6989 30.8295V25.7841L58.4091 20.0909H63.5398ZM72.4886 30.5227V28.6989C72.4886 27.0739 72.8182 25.6364 73.4773 24.3864C74.1477 23.1364 75.0966 22.1534 76.3239 21.4375C77.5625 20.7216 79.017 20.3636 80.6875 20.3636C83.233 20.3636 85.233 21.1477 86.6875 22.7159C88.1534 24.2727 88.8864 26.267 88.8864 28.6989V30.5227C88.8864 32.1364 88.5568 33.5625 87.8977 34.8011C87.2386 36.0398 86.3011 37.017 85.0852 37.733C83.8693 38.4375 82.4261 38.7898 80.7557 38.7898C78.1989 38.7898 76.1818 38.017 74.7045 36.4716C73.2273 34.9261 72.4886 32.9432 72.4886 30.5227ZM76.6136 28.6989V30.5227C76.6136 31.9205 76.9602 33.0795 77.6534 34C78.3466 34.9091 79.3807 35.3636 80.7557 35.3636C82.0966 35.3636 83.0966 34.9091 83.7557 34C84.4148 33.0795 84.7443 31.9205 84.7443 30.5227V28.6989C84.7443 27.3352 84.4091 26.1875 83.7386 25.2557C83.0795 24.3125 82.0625 23.8409 80.6875 23.8409C79.3466 23.8409 78.3295 24.3125 77.6364 25.2557C76.9545 26.1875 76.6136 27.3352 76.6136 28.6989Z" fill="black"/>
<path d="M30.4588 120.727V128H29.358V121.828H29.3153L27.5753 122.964V121.913L29.3899 120.727H30.4588ZM36.2223 126.636V126.253C36.2223 125.978 36.2791 125.727 36.3928 125.5C36.5088 125.27 36.6768 125.087 36.897 124.95C37.1196 124.81 37.3883 124.74 37.7031 124.74C38.0251 124.74 38.295 124.809 38.5128 124.946C38.7306 125.083 38.8951 125.267 39.0064 125.496C39.12 125.726 39.1768 125.978 39.1768 126.253V126.636C39.1768 126.911 39.12 127.163 39.0064 127.393C38.8928 127.62 38.7259 127.804 38.5057 127.943C38.2879 128.08 38.0204 128.149 37.7031 128.149C37.3835 128.149 37.1136 128.08 36.8935 127.943C36.6733 127.804 36.5064 127.62 36.3928 127.393C36.2791 127.163 36.2223 126.911 36.2223 126.636ZM37.0497 126.253V126.636C37.0497 126.84 37.0982 127.025 37.1953 127.19C37.2924 127.356 37.4616 127.439 37.7031 127.439C37.9422 127.439 38.1091 127.356 38.2038 127.19C38.2985 127.025 38.3459 126.84 38.3459 126.636V126.253C38.3459 126.049 38.2997 125.865 38.2074 125.699C38.1174 125.533 37.9493 125.45 37.7031 125.45C37.4664 125.45 37.2983 125.533 37.1989 125.699C37.0994 125.865 37.0497 126.049 37.0497 126.253ZM32.5646 122.474V122.091C32.5646 121.816 32.6214 121.564 32.7351 121.335C32.8511 121.105 33.0192 120.921 33.2393 120.784C33.4619 120.647 33.7306 120.578 34.0455 120.578C34.3674 120.578 34.6373 120.647 34.8551 120.784C35.0729 120.921 35.2375 121.105 35.3487 121.335C35.46 121.564 35.5156 121.816 35.5156 122.091V122.474C35.5156 122.749 35.4588 123.001 35.3452 123.231C35.2339 123.458 35.0682 123.642 34.848 123.781C34.6302 123.919 34.3627 123.987 34.0455 123.987C33.7235 123.987 33.4524 123.919 33.2322 123.781C33.0144 123.642 32.8487 123.458 32.7351 123.231C32.6214 123.001 32.5646 122.749 32.5646 122.474ZM33.3956 122.091V122.474C33.3956 122.678 33.4429 122.863 33.5376 123.028C33.6347 123.194 33.804 123.277 34.0455 123.277C34.2822 123.277 34.4479 123.194 34.5426 123.028C34.6397 122.863 34.6882 122.678 34.6882 122.474V122.091C34.6882 121.887 34.642 121.703 34.5497 121.537C34.4574 121.371 34.2893 121.288 34.0455 121.288C33.8087 121.288 33.6406 121.371 33.5412 121.537C33.4441 121.703 33.3956 121.887 33.3956 122.091ZM32.902 128L37.902 120.727H38.7507L33.7507 128H32.902Z" fill="black" fill-opacity="0.5"/>
<path d="M70.2315 127.121C69.6705 127.118 69.1911 126.97 68.7933 126.677C68.3956 126.383 68.0914 125.956 67.8807 125.395C67.67 124.834 67.5646 124.158 67.5646 123.367C67.5646 122.579 67.67 121.905 67.8807 121.347C68.0938 120.788 68.3991 120.362 68.7969 120.068C69.197 119.775 69.6752 119.628 70.2315 119.628C70.7879 119.628 71.2649 119.776 71.6626 120.072C72.0604 120.365 72.3646 120.791 72.5753 121.35C72.7884 121.906 72.8949 122.579 72.8949 123.367C72.8949 124.16 72.7895 124.837 72.5788 125.398C72.3681 125.957 72.0639 126.384 71.6662 126.68C71.2685 126.974 70.7902 127.121 70.2315 127.121ZM70.2315 126.173C70.724 126.173 71.1087 125.932 71.3857 125.452C71.665 124.971 71.8047 124.276 71.8047 123.367C71.8047 122.763 71.7408 122.253 71.6129 121.837C71.4875 121.418 71.3063 121.1 71.0696 120.885C70.8352 120.667 70.5559 120.558 70.2315 120.558C69.7415 120.558 69.3568 120.8 69.0774 121.283C68.7981 121.766 68.6572 122.46 68.6548 123.367C68.6548 123.973 68.7176 124.486 68.843 124.905C68.9709 125.321 69.152 125.638 69.3864 125.853C69.6207 126.066 69.9025 126.173 70.2315 126.173ZM77.7919 125.15L77.7848 123.854H77.9695L80.1428 121.545H81.4141L78.9354 124.173H78.7685L77.7919 125.15ZM76.8153 127V119.727H77.8771V127H76.8153ZM80.2599 127L78.3068 124.408L79.0384 123.665L81.5632 127H80.2599ZM82.3817 127V121.545H83.4009V122.433H83.4684C83.582 122.133 83.7679 121.898 84.0259 121.73C84.284 121.56 84.5929 121.474 84.9528 121.474C85.3174 121.474 85.6228 121.56 85.869 121.73C86.1175 121.901 86.301 122.135 86.4194 122.433H86.4762C86.6064 122.142 86.8136 121.91 87.0977 121.737C87.3817 121.562 87.7203 121.474 88.1133 121.474C88.6081 121.474 89.0117 121.629 89.3242 121.94C89.6391 122.25 89.7965 122.717 89.7965 123.342V127H88.7347V123.442C88.7347 123.072 88.6341 122.805 88.4329 122.639C88.2317 122.473 87.9914 122.391 87.712 122.391C87.3664 122.391 87.0977 122.497 86.9059 122.71C86.7141 122.921 86.6183 123.192 86.6183 123.523V127H85.56V123.374C85.56 123.078 85.4677 122.84 85.283 122.661C85.0984 122.481 84.8581 122.391 84.5621 122.391C84.3609 122.391 84.1751 122.444 84.0046 122.55C83.8365 122.655 83.7004 122.8 83.5962 122.987C83.4944 123.174 83.4435 123.391 83.4435 123.637V127H82.3817ZM93.9895 119.386L91.6458 128.094H90.6976L93.0414 119.386H93.9895ZM95.9533 123.761V127H94.8915V119.727H95.9391V122.433H96.0066C96.1344 122.14 96.3297 121.906 96.5925 121.734C96.8553 121.561 97.1986 121.474 97.6223 121.474C97.9964 121.474 98.3231 121.551 98.6025 121.705C98.8842 121.859 99.102 122.089 99.2559 122.394C99.4121 122.697 99.4902 123.076 99.4902 123.531V127H98.4284V123.658C98.4284 123.258 98.3255 122.948 98.1195 122.728C97.9135 122.505 97.6271 122.394 97.2601 122.394C97.0092 122.394 96.7843 122.447 96.5854 122.554C96.3889 122.661 96.2338 122.817 96.1202 123.023C96.0089 123.226 95.9533 123.473 95.9533 123.761Z" fill="black" fill-opacity="0.5"/>
<path d="M18.5 120C18.5 120 16 123.057 16 125.219C16 126.926 16.966 128 18.5 128C20.034 128 21 126.926 21 125.219C21 123.057 18.5 120 18.5 120ZM18.7778 126.996V126.532C19.0539 126.532 19.3187 126.41 19.514 126.193C19.7093 125.976 19.8191 125.681 19.8194 125.374H20.2361C20.2357 125.804 20.0819 126.216 19.8085 126.52C19.5351 126.824 19.1644 126.995 18.7778 126.996Z" fill="black" fill-opacity="0.5"/>
<path d="M23 120C23 120 22 121.146 22 121.957C22 122.597 22.3864 123 23 123C23.6136 123 24 122.597 24 121.957C24 121.146 23 120 23 120ZM23.1111 122.623V122.45C23.2216 122.45 23.3275 122.404 23.4056 122.322C23.4837 122.241 23.5276 122.13 23.5278 122.015H23.6944C23.6943 122.176 23.6328 122.331 23.5234 122.445C23.414 122.559 23.2658 122.623 23.1111 122.623Z" fill="black" fill-opacity="0.5"/>
<path fill-rule="evenodd" clip-rule="evenodd" d="M59.4001 119.9C59.2618 119.9 59.1278 119.954 59.0206 120.052C58.9135 120.15 58.8398 120.287 58.8121 120.44C58.8016 120.497 58.7811 120.552 58.7517 120.601C58.7223 120.65 58.6846 120.692 58.6408 120.725C58.597 120.758 58.5479 120.78 58.4963 120.792C58.4448 120.803 58.3917 120.803 58.3403 120.791C58.2888 120.779 58.2399 120.756 58.1963 120.723C58.1528 120.69 58.1154 120.647 58.0864 120.598C58.0574 120.549 58.0374 120.494 58.0274 120.436C58.0173 120.378 58.0176 120.318 58.0281 120.26C58.081 119.968 58.2066 119.699 58.39 119.484C58.5735 119.269 58.8075 119.117 59.0647 119.046C59.3218 118.974 59.5918 118.987 59.843 119.081C60.0943 119.175 60.3166 119.348 60.4842 119.579C60.6517 119.81 60.7576 120.089 60.7896 120.385C60.8216 120.681 60.7783 120.981 60.6648 121.25C60.5512 121.519 60.3721 121.747 60.1483 121.906C59.9244 122.065 59.665 122.15 59.4001 122.15H57.2C57.0939 122.15 56.9922 122.103 56.9172 122.018C56.8422 121.934 56.8 121.819 56.8 121.7C56.8 121.581 56.8422 121.466 56.9172 121.382C56.9922 121.297 57.0939 121.25 57.2 121.25H59.4001C59.5592 121.25 59.7118 121.179 59.8244 121.052C59.9369 120.926 60.0001 120.754 60.0001 120.575C60.0001 120.396 59.9369 120.224 59.8244 120.098C59.7118 119.971 59.5592 119.9 59.4001 119.9ZM62.6002 121.7C62.4619 121.7 62.3279 121.754 62.2207 121.852C62.1136 121.95 62.0399 122.087 62.0122 122.24C62.0017 122.297 61.9812 122.352 61.9518 122.401C61.9225 122.451 61.8848 122.493 61.841 122.525C61.7973 122.558 61.7482 122.58 61.6966 122.592C61.6451 122.603 61.592 122.603 61.5405 122.591C61.4891 122.579 61.4401 122.556 61.3966 122.523C61.353 122.49 61.3157 122.448 61.2867 122.399C61.2577 122.349 61.2376 122.294 61.2275 122.236C61.2175 122.178 61.2177 122.118 61.2281 122.06C61.281 121.768 61.4065 121.499 61.59 121.284C61.7734 121.069 62.0073 120.917 62.2645 120.846C62.5217 120.774 62.7917 120.787 63.043 120.881C63.2943 120.975 63.5166 121.148 63.6842 121.379C63.8518 121.609 63.9578 121.889 63.9898 122.185C64.0217 122.481 63.9785 122.781 63.8649 123.05C63.7514 123.319 63.5723 123.547 63.3484 123.706C63.1246 123.865 62.8651 123.95 62.6002 123.95H56.4C56.2939 123.95 56.1922 123.903 56.1172 123.818C56.0421 123.734 56 123.619 56 123.5C56 123.381 56.0421 123.266 56.1172 123.182C56.1922 123.097 56.2939 123.05 56.4 123.05H62.6002C62.7593 123.05 62.9119 122.979 63.0244 122.852C63.137 122.726 63.2002 122.554 63.2002 122.375C63.2002 122.196 63.137 122.024 63.0244 121.898C62.9119 121.771 62.7593 121.7 62.6002 121.7ZM60.4121 126.56C60.4349 126.686 60.4887 126.801 60.5674 126.893C60.6461 126.985 60.7463 127.05 60.8566 127.08C60.9668 127.111 61.0824 127.106 61.1901 127.065C61.2977 127.025 61.393 126.951 61.4648 126.852C61.5365 126.753 61.5819 126.633 61.5956 126.506C61.6092 126.38 61.5907 126.251 61.542 126.136C61.4934 126.02 61.4166 125.923 61.3207 125.855C61.2248 125.786 61.1136 125.75 61.0001 125.75H58.4001C58.294 125.75 58.1922 125.703 58.1172 125.618C58.0422 125.534 58.0001 125.419 58.0001 125.3C58.0001 125.181 58.0422 125.066 58.1172 124.982C58.1922 124.897 58.294 124.85 58.4001 124.85H61.0001C61.265 124.85 61.5245 124.935 61.7484 125.094C61.9723 125.253 62.1514 125.481 62.2649 125.75C62.3784 126.019 62.4217 126.319 62.3897 126.615C62.3577 126.911 62.2518 127.191 62.0842 127.421C61.9166 127.652 61.6942 127.825 61.4429 127.919C61.1916 128.013 60.9217 128.026 60.6645 127.954C60.4073 127.883 60.1734 127.731 59.9899 127.516C59.8065 127.301 59.681 127.032 59.6281 126.74C59.607 126.623 59.628 126.501 59.6866 126.401C59.7452 126.302 59.8365 126.233 59.9405 126.209C60.0445 126.185 60.1526 126.209 60.241 126.275C60.3295 126.341 60.391 126.443 60.4121 126.56Z" fill="black" fill-opacity="0.5"/>
<g filter="url(#filter0_d_1430_132)">
<circle cx="145" cy="32" r="15" fill="url(#paint0_linear_1430_132)"/>
</g>
<g filter="url(#filter1_d_1430_132)">
<ellipse cx="133.7" cy="47.6346" rx="1.84" ry="3.22" transform="rotate(37.512 133.7 47.6346)" fill="url(#paint1_linear_1430_132)"/>
</g>
<g filter="url(#filter2_d_1430_132)">
<ellipse cx="157.794" cy="47.52" rx="1.84" ry="3.22" transform="rotate(-46.0216 157.794 47.52)" fill="url(#paint2_linear_1430_132)"/>
</g>
<g filter="url(#filter3_d_1430_132)">
<ellipse cx="145" cy="52" rx="2" ry="3" fill="url(#paint3_linear_1430_132)"/>
</g>
<g filter="url(#filter4_d_1430_132)">
<ellipse cx="163.702" cy="39.0452" rx="1.84" ry="3.22" transform="rotate(-78.4963 163.702 39.0452)" fill="url(#paint4_linear_1430_132)"/>
</g>
<g filter="url(#filter5_d_1430_132)">
<ellipse cx="163.825" cy="26.9731" rx="1.84" ry="3.22" transform="rotate(-109.115 163.825 26.9731)" fill="url(#paint5_linear_1430_132)"/>
</g>
<g filter="url(#filter6_d_1430_132)">
<ellipse cx="155.769" cy="16.3654" rx="1.84" ry="3.22" transform="rotate(-142.488 155.769 16.3654)" fill="url(#paint6_linear_1430_132)"/>
</g>
<g filter="url(#filter7_d_1430_132)">
<ellipse cx="131.675" cy="16.48" rx="1.84" ry="3.22" transform="rotate(133.978 131.675 16.48)" fill="url(#paint7_linear_1430_132)"/>
</g>
<g filter="url(#filter8_d_1430_132)">
<ellipse cx="144.5" cy="12" rx="1.5" ry="3" transform="rotate(180 144.5 12)" fill="url(#paint8_linear_1430_132)"/>
</g>
<g filter="url(#filter9_d_1430_132)">
<ellipse cx="125.768" cy="24.9548" rx="1.84" ry="3.22" transform="rotate(101.504 125.768 24.9548)" fill="url(#paint9_linear_1430_132)"/>
</g>
<g filter="url(#filter10_d_1430_132)">
<ellipse cx="125.645" cy="37.0269" rx="1.84" ry="3.22" transform="rotate(70.8851 125.645 37.0269)" fill="url(#paint10_linear_1430_132)"/>
</g>
<defs>
<filter id="filter0_d_1430_132" x="126" y="15" width="38" height="38" filterUnits="userSpaceOnUse" color-interpolation-filters="sRGB">
<feFlood flood-opacity="0" result="BackgroundImageFix"/>
<feColorMatrix in="SourceAlpha" type="matrix" values="0 0 0 0 0 0 0 0 0 0 0 0 0 0 0 0 0 0 127 0" result="hardAlpha"/>
<feOffset dy="2"/>
<feGaussianBlur stdDeviation="2"/>
<feComposite in2="hardAlpha" operator="out"/>
<feColorMatrix type="matrix" values="0 0 0 0 0.900833 0 0 0 0 0.900833 0 0 0 0 0.900833 0 0 0 1 0"/>
<feBlend mode="normal" in2="BackgroundImageFix" result="effect1_dropShadow_1430_132"/>
<feBlend mode="normal" in="SourceGraphic" in2="effect1_dropShadow_1430_132" result="shape"/>
</filter>
<filter id="filter1_d_1430_132" x="127.256" y="42.8447" width="12.8887" height="13.5796" filterUnits="userSpaceOnUse" color-interpolation-filters="sRGB">
<feFlood flood-opacity="0" result="BackgroundImageFix"/>
<feColorMatrix in="SourceAlpha" type="matrix" values="0 0 0 0 0 0 0 0 0 0 0 0 0 0 0 0 0 0 127 0" result="hardAlpha"/>
<feOffset dy="2"/>
<feGaussianBlur stdDeviation="2"/>
<feComposite in2="hardAlpha" operator="out"/>
<feColorMatrix type="matrix" values="0 0 0 0 0.900833 0 0 0 0 0.900833 0 0 0 0 0.900833 0 0 0 1 0"/>
<feBlend mode="normal" in2="BackgroundImageFix" result="effect1_dropShadow_1430_132"/>
<feBlend mode="normal" in="SourceGraphic" in2="effect1_dropShadow_1430_132" result="shape"/>
</filter>
<filter id="filter2_d_1430_132" x="151.147" y="42.9211" width="13.293" height="13.1978" filterUnits="userSpaceOnUse" color-interpolation-filters="sRGB">
<feFlood flood-opacity="0" result="BackgroundImageFix"/>
<feColorMatrix in="SourceAlpha" type="matrix" values="0 0 0 0 0 0 0 0 0 0 0 0 0 0 0 0 0 0 127 0" result="hardAlpha"/>
<feOffset dy="2"/>
<feGaussianBlur stdDeviation="2"/>
<feComposite in2="hardAlpha" operator="out"/>
<feColorMatrix type="matrix" values="0 0 0 0 0.900833 0 0 0 0 0.900833 0 0 0 0 0.900833 0 0 0 1 0"/>
<feBlend mode="normal" in2="BackgroundImageFix" result="effect1_dropShadow_1430_132"/>
<feBlend mode="normal" in="SourceGraphic" in2="effect1_dropShadow_1430_132" result="shape"/>
</filter>
<filter id="filter3_d_1430_132" x="139" y="47" width="12" height="14" filterUnits="userSpaceOnUse" color-interpolation-filters="sRGB">
<feFlood flood-opacity="0" result="BackgroundImageFix"/>
<feColorMatrix in="SourceAlpha" type="matrix" values="0 0 0 0 0 0 0 0 0 0 0 0 0 0 0 0 0 0 127 0" result="hardAlpha"/>
<feOffset dy="2"/>
<feGaussianBlur stdDeviation="2"/>
<feComposite in2="hardAlpha" operator="out"/>
<feColorMatrix type="matrix" values="0 0 0 0 0.900833 0 0 0 0 0.900833 0 0 0 0 0.900833 0 0 0 1 0"/>
<feBlend mode="normal" in2="BackgroundImageFix" result="effect1_dropShadow_1430_132"/>
<feBlend mode="normal" in="SourceGraphic" in2="effect1_dropShadow_1430_132" result="shape"/>
</filter>
<filter id="filter4_d_1430_132" x="156.525" y="35.1306" width="14.3535" height="11.8291" filterUnits="userSpaceOnUse" color-interpolation-filters="sRGB">
<feFlood flood-opacity="0" result="BackgroundImageFix"/>
<feColorMatrix in="SourceAlpha" type="matrix" values="0 0 0 0 0 0 0 0 0 0 0 0 0 0 0 0 0 0 127 0" result="hardAlpha"/>
<feOffset dy="2"/>
<feGaussianBlur stdDeviation="2"/>
<feComposite in2="hardAlpha" operator="out"/>
<feColorMatrix type="matrix" values="0 0 0 0 0.900833 0 0 0 0 0.900833 0 0 0 0 0.900833 0 0 0 1 0"/>
<feBlend mode="normal" in2="BackgroundImageFix" result="effect1_dropShadow_1430_132"/>
<feBlend mode="normal" in="SourceGraphic" in2="effect1_dropShadow_1430_132" result="shape"/>
</filter>
<filter id="filter5_d_1430_132" x="156.723" y="22.9395" width="14.2041" height="12.0674" filterUnits="userSpaceOnUse" color-interpolation-filters="sRGB">
<feFlood flood-opacity="0" result="BackgroundImageFix"/>
<feColorMatrix in="SourceAlpha" type="matrix" values="0 0 0 0 0 0 0 0 0 0 0 0 0 0 0 0 0 0 127 0" result="hardAlpha"/>
<feOffset dy="2"/>
<feGaussianBlur stdDeviation="2"/>
<feComposite in2="hardAlpha" operator="out"/>
<feColorMatrix type="matrix" values="0 0 0 0 0.900833 0 0 0 0 0.900833 0 0 0 0 0.900833 0 0 0 1 0"/>
<feBlend mode="normal" in2="BackgroundImageFix" result="effect1_dropShadow_1430_132"/>
<feBlend mode="normal" in="SourceGraphic" in2="effect1_dropShadow_1430_132" result="shape"/>
</filter>
<filter id="filter6_d_1430_132" x="149.324" y="11.5757" width="12.8887" height="13.5796" filterUnits="userSpaceOnUse" color-interpolation-filters="sRGB">
<feFlood flood-opacity="0" result="BackgroundImageFix"/>
<feColorMatrix in="SourceAlpha" type="matrix" values="0 0 0 0 0 0 0 0 0 0 0 0 0 0 0 0 0 0 127 0" result="hardAlpha"/>
<feOffset dy="2"/>
<feGaussianBlur stdDeviation="2"/>
<feComposite in2="hardAlpha" operator="out"/>
<feColorMatrix type="matrix" values="0 0 0 0 0.900833 0 0 0 0 0.900833 0 0 0 0 0.900833 0 0 0 1 0"/>
<feBlend mode="normal" in2="BackgroundImageFix" result="effect1_dropShadow_1430_132"/>
<feBlend mode="normal" in="SourceGraphic" in2="effect1_dropShadow_1430_132" result="shape"/>
</filter>
<filter id="filter7_d_1430_132" x="125.028" y="11.8811" width="13.293" height="13.1978" filterUnits="userSpaceOnUse" color-interpolation-filters="sRGB">
<feFlood flood-opacity="0" result="BackgroundImageFix"/>
<feColorMatrix in="SourceAlpha" type="matrix" values="0 0 0 0 0 0 0 0 0 0 0 0 0 0 0 0 0 0 127 0" result="hardAlpha"/>
<feOffset dy="2"/>
<feGaussianBlur stdDeviation="2"/>
<feComposite in2="hardAlpha" operator="out"/>
<feColorMatrix type="matrix" values="0 0 0 0 0.900833 0 0 0 0 0.900833 0 0 0 0 0.900833 0 0 0 1 0"/>
<feBlend mode="normal" in2="BackgroundImageFix" result="effect1_dropShadow_1430_132"/>
<feBlend mode="normal" in="SourceGraphic" in2="effect1_dropShadow_1430_132" result="shape"/>
</filter>
<filter id="filter8_d_1430_132" x="139" y="7" width="11" height="14" filterUnits="userSpaceOnUse" color-interpolation-filters="sRGB">
<feFlood flood-opacity="0" result="BackgroundImageFix"/>
<feColorMatrix in="SourceAlpha" type="matrix" values="0 0 0 0 0 0 0 0 0 0 0 0 0 0 0 0 0 0 127 0" result="hardAlpha"/>
<feOffset dy="2"/>
<feGaussianBlur stdDeviation="2"/>
<feComposite in2="hardAlpha" operator="out"/>
<feColorMatrix type="matrix" values="0 0 0 0 0.900833 0 0 0 0 0.900833 0 0 0 0 0.900833 0 0 0 1 0"/>
<feBlend mode="normal" in2="BackgroundImageFix" result="effect1_dropShadow_1430_132"/>
<feBlend mode="normal" in="SourceGraphic" in2="effect1_dropShadow_1430_132" result="shape"/>
</filter>
<filter id="filter9_d_1430_132" x="118.591" y="21.0403" width="14.3535" height="11.8291" filterUnits="userSpaceOnUse" color-interpolation-filters="sRGB">
<feFlood flood-opacity="0" result="BackgroundImageFix"/>
<feColorMatrix in="SourceAlpha" type="matrix" values="0 0 0 0 0 0 0 0 0 0 0 0 0 0 0 0 0 0 127 0" result="hardAlpha"/>
<feOffset dy="2"/>
<feGaussianBlur stdDeviation="2"/>
<feComposite in2="hardAlpha" operator="out"/>
<feColorMatrix type="matrix" values="0 0 0 0 0.900833 0 0 0 0 0.900833 0 0 0 0 0.900833 0 0 0 1 0"/>
<feBlend mode="normal" in2="BackgroundImageFix" result="effect1_dropShadow_1430_132"/>
<feBlend mode="normal" in="SourceGraphic" in2="effect1_dropShadow_1430_132" result="shape"/>
</filter>
<filter id="filter10_d_1430_132" x="118.543" y="32.9932" width="14.2041" height="12.0674" filterUnits="userSpaceOnUse" color-interpolation-filters="sRGB">
<feFlood flood-opacity="0" result="BackgroundImageFix"/>
<feColorMatrix in="SourceAlpha" type="matrix" values="0 0 0 0 0 0 0 0 0 0 0 0 0 0 0 0 0 0 127 0" result="hardAlpha"/>
<feOffset dy="2"/>
<feGaussianBlur stdDeviation="2"/>
<feComposite in2="hardAlpha" operator="out"/>
<feColorMatrix type="matrix" values="0 0 0 0 0.900833 0 0 0 0 0.900833 0 0 0 0 0.900833 0 0 0 1 0"/>
<feBlend mode="normal" in2="BackgroundImageFix" result="effect1_dropShadow_1430_132"/>
<feBlend mode="normal" in="SourceGraphic" in2="effect1_dropShadow_1430_132" result="shape"/>
</filter>
<linearGradient id="paint0_linear_1430_132" x1="145" y1="17" x2="145" y2="47" gradientUnits="userSpaceOnUse">
<stop stop-color="#FFC700"/>
<stop offset="1" stop-color="#FFA800"/>
</linearGradient>
<linearGradient id="paint1_linear_1430_132" x1="133.7" y1="44.4146" x2="133.7" y2="50.8546" gradientUnits="userSpaceOnUse">
<stop stop-color="#FFC700"/>
<stop offset="1" stop-color="#FFA800"/>
</linearGradient>
<linearGradient id="paint2_linear_1430_132" x1="157.794" y1="44.3" x2="157.794" y2="50.74" gradientUnits="userSpaceOnUse">
<stop stop-color="#FFC700"/>
<stop offset="1" stop-color="#FFA800"/>
</linearGradient>
<linearGradient id="paint3_linear_1430_132" x1="145" y1="49" x2="145" y2="55" gradientUnits="userSpaceOnUse">
<stop stop-color="#FFC700"/>
<stop offset="1" stop-color="#FFA800"/>
</linearGradient>
<linearGradient id="paint4_linear_1430_132" x1="163.702" y1="35.8252" x2="163.702" y2="42.2652" gradientUnits="userSpaceOnUse">
<stop stop-color="#FFC700"/>
<stop offset="1" stop-color="#FFA800"/>
</linearGradient>
<linearGradient id="paint5_linear_1430_132" x1="163.825" y1="23.7531" x2="163.825" y2="30.1931" gradientUnits="userSpaceOnUse">
<stop stop-color="#FFC700"/>
<stop offset="1" stop-color="#FFA800"/>
</linearGradient>
<linearGradient id="paint6_linear_1430_132" x1="155.769" y1="13.1454" x2="155.769" y2="19.5854" gradientUnits="userSpaceOnUse">
<stop stop-color="#FFC700"/>
<stop offset="1" stop-color="#FFA800"/>
</linearGradient>
<linearGradient id="paint7_linear_1430_132" x1="131.675" y1="13.26" x2="131.675" y2="19.7" gradientUnits="userSpaceOnUse">
<stop stop-color="#FFC700"/>
<stop offset="1" stop-color="#FFA800"/>
</linearGradient>
<linearGradient id="paint8_linear_1430_132" x1="144.5" y1="9" x2="144.5" y2="15" gradientUnits="userSpaceOnUse">
<stop stop-color="#FFC700"/>
<stop offset="1" stop-color="#FFA800"/>
</linearGradient>
<linearGradient id="paint9_linear_1430_132" x1="125.768" y1="21.7348" x2="125.768" y2="28.1748" gradientUnits="userSpaceOnUse">
<stop stop-color="#FFC700"/>
<stop offset="1" stop-color="#FFA800"/>
</linearGradient>
<linearGradient id="paint10_linear_1430_132" x1="125.645" y1="33.8069" x2="125.645" y2="40.2469" gradientUnits="userSpaceOnUse">
<stop stop-color="#FFC700"/>
<stop offset="1" stop-color="#FFA800"/>
</linearGradient>
</defs>
</svg>
