<svg width="90" height="63" viewBox="0 0 90 63" fill="none" xmlns="http://www.w3.org/2000/svg">
<path d="M71.8903 50.6187C65.2989 47.3503 58.588 44.2888 52.1392 40.7636C42.8529 35.6818 33.5426 30.5919 24.6372 24.8908C17.2373 20.156 10.5159 14.4161 7.15441 5.81602C6.64412 4.51014 6.75304 2.84893 5.96543 1.81408C5.38404 1.05913 3.50606 0.498581 2.74399 0.892212C1.78878 1.38131 0.719563 3.023 0.842172 4.02475C1.48593 9.33852 4.32638 13.7358 7.84207 17.5515C16.6531 27.1175 27.5863 33.8564 38.9551 39.881C47.6303 44.4781 56.4513 48.803 65.2243 53.2208C67.3981 54.3141 69.6381 55.2731 72.041 56.3779C68.4034 57.032 65.0688 57.6195 61.7328 58.2292C61.3155 58.3046 60.7786 58.3683 60.5253 58.6475C59.7505 59.5108 59.092 60.4814 58.3849 61.4067C59.3516 61.9127 60.301 62.8168 61.2872 62.8513C63.3311 62.9156 65.3935 62.3412 67.4469 62.3592C73.4398 62.4146 79.4389 62.7379 85.4304 62.7063C86.6464 62.701 88.2318 61.8973 88.9829 60.9456C90.0452 59.6045 89.9399 57.7967 88.492 56.5016C85.9395 54.2129 83.2529 52.0767 80.7811 49.7081C79.5052 48.4835 78.6122 46.8649 77.4686 45.481C76.4418 44.2334 75.4641 42.3533 74.1783 42.0713C73.0314 41.8176 70.9117 43.0486 70.2461 44.2105C69.1921 46.0448 69.9993 48.0507 71.7784 49.4392C71.9618 49.5795 72.0247 49.8686 72.1428 50.092C72.0587 50.2675 71.9727 50.4363 71.8885 50.6119L71.8903 50.6187Z" fill="#efefef"/>
</svg>
