<svg width="69" height="48" viewBox="0 0 69 48" fill="none" xmlns="http://www.w3.org/2000/svg">
<path d="M14.1424 38.344C19.2048 35.8338 24.3589 33.4825 29.3118 30.7751C36.4439 26.8721 43.5944 22.9629 50.434 18.5843C56.1173 14.9479 61.2795 10.5395 63.8612 3.93443C64.2532 2.93148 64.1695 1.65562 64.7744 0.860835C65.2209 0.281011 66.6633 -0.149502 67.2486 0.152817C67.9822 0.528454 68.8034 1.78932 68.7092 2.55868C68.2148 6.6398 66.0333 10.017 63.3331 12.9475C56.566 20.2945 48.169 25.4702 39.4375 30.0973C32.7747 33.6279 26 36.9495 19.2621 40.3426C17.5925 41.1822 15.8722 41.9188 14.0267 42.7672C16.8204 43.2696 19.3815 43.7208 21.9437 44.1891C22.2641 44.247 22.6765 44.2959 22.871 44.5103C23.466 45.1734 23.9718 45.9189 24.5149 46.6295C23.7724 47.0182 23.0433 47.7125 22.2859 47.739C20.7161 47.7884 19.1321 47.3472 17.555 47.3611C12.9523 47.4036 8.34488 47.6519 3.74328 47.6276C2.8093 47.6236 1.59168 47.0063 1.01485 46.2754C0.198993 45.2454 0.279865 43.8569 1.39186 42.8623C3.35223 41.1045 5.41561 39.4639 7.31404 37.6447C8.29395 36.7042 8.97979 35.461 9.8581 34.3982C10.6468 33.44 11.3976 31.996 12.3851 31.7794C13.266 31.5846 14.894 32.53 15.4052 33.4224C16.2147 34.8312 15.5947 36.3718 14.2284 37.4382C14.0875 37.5459 14.0392 37.768 13.9485 37.9395C14.0131 38.0743 14.0791 38.204 14.1438 38.3388L14.1424 38.344Z" fill="#C0C0C0"/>
</svg>
