<svg width="8" height="13" viewBox="0 0 8 13" fill="none" xmlns="http://www.w3.org/2000/svg">
<path d="M6.8583 6.15732L1.76669 1.13072C1.68173 1.04681 1.56886 1 1.45149 1C1.33412 1 1.22125 1.04681 1.13629 1.13072L1.13081 1.1364C1.08948 1.17708 1.05657 1.22605 1.03408 1.28032C1.0116 1.3346 1 1.39304 1 1.45211C1 1.51117 1.0116 1.56961 1.03408 1.62389C1.05657 1.67816 1.08948 1.72713 1.13081 1.76781L5.92549 6.50095L1.13081 11.2322C1.08948 11.2729 1.05657 11.3218 1.03408 11.3761C1.0116 11.4304 1 11.4888 1 11.5479C1 11.607 1.0116 11.6654 1.03408 11.7197C1.05657 11.7739 1.08948 11.8229 1.13081 11.8636L1.13629 11.8693C1.22125 11.9532 1.33412 12 1.45149 12C1.56886 12 1.68173 11.9532 1.76669 11.8693L6.8583 6.84268C6.90308 6.79847 6.93872 6.74531 6.96308 6.6864C6.98744 6.6275 7 6.56408 7 6.5C7 6.43592 6.98744 6.3725 6.96308 6.3136C6.93872 6.25469 6.90308 6.20152 6.8583 6.15732Z" fill="#202020" stroke="#202020" stroke-width="0.6"/>
</svg>
