<svg width="10" height="16" viewBox="0 0 10 16" fill="none" xmlns="http://www.w3.org/2000/svg">
<g clip-path="url(#clip0_2318_372)">
<path d="M1 14C1 14 0 14 0 13C0 12 1 9 5 9C9 9 10 12 10 13C10 14 9 14 9 14H1ZM5 8C5.79565 8 6.55871 7.68393 7.12132 7.12132C7.68393 6.55871 8 5.79565 8 5C8 4.20435 7.68393 3.44129 7.12132 2.87868C6.55871 2.31607 5.79565 2 5 2C4.20435 2 3.44129 2.31607 2.87868 2.87868C2.31607 3.44129 2 4.20435 2 5C2 5.79565 2.31607 6.55871 2.87868 7.12132C3.44129 7.68393 4.20435 8 5 8ZM-0.784 14C-0.932176 13.6878 -1.0061 13.3455 -1 13C-1 11.645 -0.32 10.25 0.936 9.28C0.309181 9.08644 -0.344025 8.99197 -1 9C-5 9 -6 12 -6 13C-6 14 -5 14 -5 14H-0.784ZM-1.5 8C-0.836959 8 -0.201074 7.73661 0.267767 7.26777C0.736608 6.79893 1 6.16304 1 5.5C1 4.83696 0.736608 4.20107 0.267767 3.73223C-0.201074 3.26339 -0.836959 3 -1.5 3C-2.16304 3 -2.79893 3.26339 -3.26777 3.73223C-3.73661 4.20107 -4 4.83696 -4 5.5C-4 6.16304 -3.73661 6.79893 -3.26777 7.26777C-2.79893 7.73661 -2.16304 8 -1.5 8Z" fill="black"/>
<path d="M-6.41984 14.0207L0.47478 15.5905L-0.358105 13.5154L-0.69267 11.4811L1.46437 9.65162L1 1.5L-5 3L-6.63159 10.4916L-6.41984 14.0207Z" fill="white"/>
</g>
<defs>
<clipPath id="clip0_2318_372">
<rect width="10" height="16" fill="white"/>
</clipPath>
</defs>
</svg>
