<svg width="15" height="18" viewBox="0 0 15 18" fill="none" xmlns="http://www.w3.org/2000/svg">
<path d="M3.17871 1H11.818" stroke="#9E00FF" stroke-width="2" stroke-linecap="round"/>
<path d="M2.73926 11.4001L5.34617 5.41565V1H9.66942V5.41565L12.267 11.4001" stroke="#9E00FF" stroke-width="2" stroke-linecap="round" stroke-linejoin="round"/>
<path d="M1.66486 16.8689C1.3836 16.7176 1.16795 16.4484 1.06534 16.1204C0.962727 15.7924 0.981563 15.4326 1.1177 15.1201L2.73865 11.3996C2.73865 11.3996 5.33872 13.3997 7.49855 11.3996C9.65837 9.39962 12.2667 11.3996 12.2667 11.3996L13.883 15.1217C13.9696 15.3213 14.0093 15.5421 13.9982 15.7634C13.9871 15.9847 13.9256 16.1992 13.8195 16.3869C13.7134 16.5745 13.5662 16.7292 13.3916 16.8364C13.2171 16.9436 13.0209 16.9998 12.8214 16.9997H2.17818C2.00035 16.9997 1.82504 16.9549 1.66486 16.8689Z" fill="#9E00FF" stroke="#9E00FF" stroke-width="2" stroke-linejoin="round"/>
</svg>
