<svg width="133" height="124" viewBox="0 0 133 124" fill="none" xmlns="http://www.w3.org/2000/svg">
<path fill-rule="evenodd" clip-rule="evenodd" d="M127.481 1.6297C132.105 4.6537 133.401 10.8457 130.377 15.4697L62.3773 119.47C61.585 120.681 60.539 121.707 59.3117 122.475C58.0843 123.243 56.7049 123.735 55.2687 123.917C53.8324 124.1 52.3737 123.968 50.9932 123.532C49.6128 123.096 48.3436 122.365 47.2733 121.39L3.27331 81.3897C1.31071 79.6053 0.13733 77.1144 0.0113058 74.4649C-0.114719 71.8154 0.816933 69.2243 2.60131 67.2617C4.38569 65.2991 6.87662 64.1257 9.52613 63.9997C12.1756 63.8737 14.7667 64.8053 16.7293 66.5897L52.0573 98.7017L113.641 4.5257C115.093 2.30673 117.366 0.755105 119.962 0.212027C122.557 -0.33105 125.262 0.178884 127.481 1.6297Z" fill="#009F66"/>
</svg>
