<svg width="47" height="47" viewBox="0 0 47 47" fill="none" xmlns="http://www.w3.org/2000/svg">
<path d="M24.4451 13.3462C24.4451 12.9267 24.2784 12.5243 23.9818 12.2276C23.6851 11.9309 23.2827 11.7643 22.8632 11.7643C22.4436 11.7643 22.0413 11.9309 21.7446 12.2276C21.4479 12.5243 21.2813 12.9267 21.2812 13.3462V24.947C21.2812 25.5165 21.585 26.0396 22.0785 26.3201L29.4609 30.5386C29.8243 30.735 30.2501 30.7815 30.6473 30.6681C31.0445 30.5547 31.3816 30.2904 31.5865 29.9318C31.7914 29.5731 31.848 29.1485 31.744 28.7488C31.64 28.349 31.3838 28.0057 31.0301 27.7924L24.4451 24.0295V13.3462Z" fill="#009F66"/>
<path d="M23.3911 0.16272C36.2047 0.16272 46.5927 10.5507 46.5927 23.3643C46.5927 36.178 36.2047 46.5659 23.3911 46.5659C10.5774 46.5659 0.189453 36.178 0.189453 23.3643C0.189453 10.5507 10.5774 0.16272 23.3911 0.16272ZM3.35331 23.3643C3.35331 28.6787 5.46442 33.7754 9.22223 37.5332C12.98 41.291 18.0767 43.4021 23.3911 43.4021C28.7054 43.4021 33.8021 41.291 37.5599 37.5332C41.3177 33.7754 43.4288 28.6787 43.4288 23.3643C43.4288 18.05 41.3177 12.9533 37.5599 9.1955C33.8021 5.43769 28.7054 3.32658 23.3911 3.32658C18.0767 3.32658 12.98 5.43769 9.22223 9.1955C5.46442 12.9533 3.35331 18.05 3.35331 23.3643Z" fill="#009F66"/>
</svg>
