<svg width="14" height="14" viewBox="0 0 19 19" fill="none" xmlns="http://www.w3.org/2000/svg">
<path d="M18.5165 0.838839C18.7119 1.03419 18.8216 1.29914 18.8216 1.57541C18.8216 1.85168 18.7119 2.11663 18.5165 2.31198L11.1508 9.67767L18.5165 17.0434C18.7119 17.2387 18.8216 17.5037 18.8216 17.7799C18.8216 18.0562 18.7119 18.3212 18.5165 18.5165C18.3212 18.7119 18.0562 18.8216 17.7799 18.8216C17.5037 18.8216 17.2387 18.7119 17.0434 18.5165L9.67767 11.1508L2.31197 18.5165C2.11662 18.7119 1.85167 18.8216 1.5754 18.8216C1.29914 18.8216 1.03418 18.7119 0.838835 18.5165C0.643484 18.3212 0.533737 18.0562 0.533738 17.7799C0.533738 17.5037 0.643484 17.2387 0.838834 17.0434L8.20453 9.67767L0.838834 2.31198C0.643484 2.11663 0.533738 1.85168 0.533738 1.57541C0.533737 1.29914 0.643484 1.03419 0.838835 0.838839C1.03418 0.643488 1.29914 0.533741 1.5754 0.533742C1.85167 0.533742 2.11662 0.643489 2.31197 0.838839L9.67767 8.20453L17.0434 0.838839C17.2387 0.643488 17.5037 0.533742 17.7799 0.533742C18.0562 0.533741 18.3212 0.643488 18.5165 0.838839Z" fill="#202020"/>
</svg>
