<svg width="25" height="25" viewBox="0 0 25 25" fill="none" xmlns="http://www.w3.org/2000/svg">
<path d="M9.0796 25L8.58209 21C8.31261 20.8958 8.05887 20.7708 7.8209 20.625C7.58292 20.4792 7.3495 20.3229 7.12065 20.1562L3.4204 21.7188L0 15.7812L3.20274 13.3438C3.18201 13.1979 3.17164 13.0575 3.17164 12.9225V12.0788C3.17164 11.9429 3.18201 11.8021 3.20274 11.6562L0 9.21875L3.4204 3.28125L7.12065 4.84375C7.34867 4.67708 7.58707 4.52083 7.83582 4.375C8.08458 4.22917 8.33333 4.10417 8.58209 4L9.0796 0H15.9204L16.4179 4C16.6874 4.10417 16.9415 4.22917 17.1803 4.375C17.4192 4.52083 17.6522 4.67708 17.8794 4.84375L21.5796 3.28125L25 9.21875L21.7973 11.6562C21.818 11.8021 21.8284 11.9429 21.8284 12.0788V12.9212C21.8284 13.0571 21.8076 13.1979 21.7662 13.3438L24.9689 15.7812L21.5485 21.7188L17.8794 20.1562C17.6513 20.3229 17.4129 20.4792 17.1642 20.625C16.9154 20.7708 16.6667 20.8958 16.4179 21L15.9204 25H9.0796ZM12.5622 16.875C13.7645 16.875 14.7906 16.4479 15.6405 15.5938C16.4905 14.7396 16.9154 13.7083 16.9154 12.5C16.9154 11.2917 16.4905 10.2604 15.6405 9.40625C14.7906 8.55208 13.7645 8.125 12.5622 8.125C11.3391 8.125 10.3076 8.55208 9.46766 9.40625C8.6277 10.2604 8.20813 11.2917 8.20896 12.5C8.20896 13.7083 8.62894 14.7396 9.46891 15.5938C10.3089 16.4479 11.34 16.875 12.5622 16.875Z" fill="#00AE4A" />
</svg>
