<svg width="16" height="16" viewBox="0 0 16 16" fill="none" xmlns="http://www.w3.org/2000/svg">
<path d="M14 0H2C1.46957 0 0.960859 0.210714 0.585786 0.585786C0.210714 0.960859 0 1.46957 0 2V14C0 14.5304 0.210714 15.0391 0.585786 15.4142C0.960859 15.7893 1.46957 16 2 16H14C14.5304 16 15.0391 15.7893 15.4142 15.4142C15.7893 15.0391 16 14.5304 16 14V2C16 1.46957 15.7893 0.960859 15.4142 0.585786C15.0391 0.210714 14.5304 0 14 0ZM10.136 2.936C10.1349 2.86531 10.148 2.79513 10.1746 2.72961C10.2012 2.66409 10.2406 2.60457 10.2906 2.55459C10.3406 2.5046 10.4001 2.46516 10.4656 2.4386C10.5311 2.41205 10.6013 2.39892 10.672 2.4C10.8108 2.40402 10.9427 2.46095 11.0409 2.55911C11.1391 2.65727 11.196 2.78924 11.2 2.928V10.048C11.184 10.1779 11.1211 10.2974 11.0232 10.3841C10.9252 10.4708 10.7988 10.5186 10.668 10.5186C10.5372 10.5186 10.4108 10.4708 10.3128 10.3841C10.2149 10.2974 10.152 10.1779 10.136 10.048V2.936ZM7.464 2.664C7.464 2.52184 7.52047 2.38551 7.62099 2.28499C7.72151 2.18447 7.85784 2.128 8 2.128C8.14216 2.128 8.27849 2.18447 8.37901 2.28499C8.47953 2.38551 8.536 2.52184 8.536 2.664V10.4C8.536 10.5422 8.47953 10.6785 8.37901 10.779C8.27849 10.8795 8.14216 10.936 8 10.936C7.85784 10.936 7.72151 10.8795 7.62099 10.779C7.52047 10.6785 7.464 10.5422 7.464 10.4V2.664ZM4.8 2.936C4.81595 2.80614 4.87886 2.6866 4.97685 2.59991C5.07484 2.51322 5.20116 2.46536 5.332 2.46536C5.46284 2.46536 5.58916 2.51322 5.68715 2.59991C5.78514 2.6866 5.84805 2.80614 5.864 2.936V10.056C5.86401 10.126 5.85009 10.1953 5.82306 10.2599C5.79602 10.3245 5.75641 10.3831 5.70653 10.4322C5.65665 10.4813 5.5975 10.5201 5.53251 10.5461C5.46753 10.5722 5.39801 10.5851 5.328 10.584C5.18924 10.58 5.05727 10.5231 4.95911 10.4249C4.86094 10.3267 4.80402 10.1948 4.8 10.056V2.936ZM2.136 4C2.15195 3.87014 2.21486 3.7506 2.31285 3.66391C2.41084 3.57722 2.53716 3.52936 2.668 3.52936C2.79884 3.52936 2.92516 3.57722 3.02315 3.66391C3.12114 3.7506 3.18405 3.87014 3.2 4V8.8C3.1979 8.94077 3.1405 9.07505 3.04021 9.17385C2.93992 9.27264 2.80478 9.32802 2.664 9.328C2.52461 9.32593 2.39151 9.26964 2.29293 9.17107C2.19436 9.07249 2.13807 8.93939 2.136 8.8V4ZM13.68 12.136C12.0352 13.335 10.0339 13.9439 8 13.864C5.96612 13.9439 3.9648 13.335 2.32 12.136C2.23647 12.0383 2.19082 11.9139 2.19137 11.7854C2.19192 11.6568 2.23863 11.5328 2.32299 11.4358C2.40734 11.3389 2.52373 11.2755 2.65094 11.2571C2.77815 11.2388 2.9077 11.2668 3.016 11.336C4.4735 12.3539 6.22355 12.8679 8 12.8C9.77773 12.8686 11.5288 12.3514 12.984 11.328C13.0923 11.2588 13.2219 11.2308 13.3491 11.2491C13.4763 11.2675 13.5927 11.3309 13.677 11.4278C13.7614 11.5248 13.8081 11.6488 13.8086 11.7774C13.8092 11.9059 13.7635 12.0303 13.68 12.128V12.136ZM13.864 8.8C13.848 8.92986 13.7851 9.0494 13.6871 9.13609C13.5892 9.22278 13.4628 9.27064 13.332 9.27064C13.2012 9.27064 13.0748 9.22278 12.9769 9.13609C12.8789 9.0494 12.816 8.92986 12.8 8.8V4C12.8021 3.85924 12.8595 3.72495 12.9598 3.62615C13.0601 3.52736 13.1952 3.47198 13.336 3.472C13.476 3.472 13.6103 3.52763 13.7094 3.62665C13.8084 3.72567 13.864 3.85997 13.864 4V8.8Z" fill="black"/>
</svg>
