<svg width="171" height="172" viewBox="0 0 171 172" fill="none" xmlns="http://www.w3.org/2000/svg">
<g clip-path="url(#clip0_473_15)">
<path d="M21.375 21.5H42.75V43H21.375V21.5Z" fill="black"/>
<path d="M64.125 0V64.5H0V0H64.125ZM53.4375 10.75H10.6875V53.75H53.4375V10.75ZM42.75 129H21.375V150.5H42.75V129Z" fill="black"/>
<path d="M64.125 107.5V172H0V107.5H64.125ZM10.6875 118.25V161.25H53.4375V118.25H10.6875ZM128.25 21.5H149.625V43H128.25V21.5Z" fill="black"/>
<path d="M106.875 0V64.5H171V0H106.875ZM160.312 10.75V53.75H117.562V10.75H160.312ZM85.5 10.75V0H96.1875V21.5H85.5V43H74.8125V10.75H85.5ZM85.5 64.5V43H96.1875V64.5H85.5ZM64.125 86V75.25H74.8125V64.5H85.5V86H96.1875V75.25H149.625V86H106.875V96.75H74.8125V86H64.125ZM64.125 86V96.75H21.375V86H10.6875V96.75H0V75.25H32.0625V86H64.125ZM171 96.75H160.312V75.25H171V96.75ZM160.312 96.75H149.625V118.25H171V107.5H160.312V96.75ZM117.562 96.75H138.938V107.5H128.25V118.25H117.562V96.75ZM138.938 129V118.25H128.25V129H117.562V139.75H96.1875V150.5H128.25V129H138.938ZM138.938 129H171V139.75H149.625V150.5H138.938V129ZM96.1875 118.25V129H106.875V107.5H74.8125V118.25H96.1875Z" fill="black"/>
<path d="M74.8125 129H85.5V161.25H128.25V172H74.8125V129ZM171 150.5V172H138.938V161.25H160.312V150.5H171Z" fill="black"/>
</g>
<defs>
<clipPath id="clip0_473_15">
<rect width="171" height="172" fill="white"/>
</clipPath>
</defs>
</svg>
