<svg width="25" height="25" viewBox="0 0 25 25" fill="none" xmlns="http://www.w3.org/2000/svg">
<path d="M25 12.5C25 12.7763 24.8903 13.0412 24.6949 13.2366C24.4996 13.4319 24.2346 13.5417 23.9583 13.5417H13.5417V23.9583C13.5417 24.2346 13.4319 24.4996 13.2366 24.6949C13.0412 24.8903 12.7763 25 12.5 25C12.2237 25 11.9588 24.8903 11.7634 24.6949C11.5681 24.4996 11.4583 24.2346 11.4583 23.9583V13.5417H1.04167C0.765399 13.5417 0.500448 13.4319 0.305097 13.2366C0.109747 13.0412 0 12.7763 0 12.5C0 12.2237 0.109747 11.9588 0.305097 11.7634C0.500448 11.5681 0.765399 11.4583 1.04167 11.4583H11.4583V1.04167C11.4583 0.765399 11.5681 0.500448 11.7634 0.305097C11.9588 0.109747 12.2237 0 12.5 0C12.7763 0 13.0412 0.109747 13.2366 0.305097C13.4319 0.500448 13.5417 0.765399 13.5417 1.04167V11.4583H23.9583C24.2346 11.4583 24.4996 11.5681 24.6949 11.7634C24.8903 11.9588 25 12.2237 25 12.5Z" fill="#00AE4A"/>
</svg>
