<svg width="8" height="8" viewBox="0 0 8 8" fill="none" xmlns="http://www.w3.org/2000/svg">
<path d="M2.5 0C2.5 0 0 3.05672 0 5.21941C0 6.92561 0.965972 8 2.5 8C4.03403 8 5 6.92561 5 5.21941C5 3.05672 2.5 0 2.5 0ZM2.77778 6.9959V6.53246C3.05395 6.53211 3.31871 6.40993 3.51399 6.19273C3.70927 5.97553 3.81912 5.68105 3.81944 5.37388H4.23611C4.2357 5.80393 4.08192 6.21623 3.80852 6.52031C3.53512 6.8244 3.16442 6.99544 2.77778 6.9959Z" fill="white"/>
<path d="M7 0C7 0 6 1.14627 6 1.95728C6 2.5971 6.38639 3 7 3C7.61361 3 8 2.5971 8 1.95728C8 1.14627 7 0 7 0ZM7.11111 2.62346V2.44967C7.22158 2.44954 7.32748 2.40372 7.4056 2.32227C7.48371 2.24082 7.52765 2.13039 7.52778 2.01521H7.69444C7.69428 2.17647 7.63277 2.33108 7.52341 2.44512C7.41405 2.55915 7.26577 2.62329 7.11111 2.62346Z" fill="white"/>
</svg>
