<svg width="16" height="18" viewBox="0 0 16 18" fill="none" xmlns="http://www.w3.org/2000/svg">
<g clip-path="url(#clip0_2379_375)">
<path d="M4 16C4 16 3 16 3 15C3 14 4 11 8 11C12 11 13 14 13 15C13 16 12 16 12 16H4ZM8 10C8.79565 10 9.55871 9.68393 10.1213 9.12132C10.6839 8.55871 11 7.79565 11 7C11 6.20435 10.6839 5.44129 10.1213 4.87868C9.55871 4.31607 8.79565 4 8 4C7.20435 4 6.44129 4.31607 5.87868 4.87868C5.31607 5.44129 5 6.20435 5 7C5 7.79565 5.31607 8.55871 5.87868 9.12132C6.44129 9.68393 7.20435 10 8 10ZM2.216 16C2.06782 15.6878 1.9939 15.3455 2 15C2 13.645 2.68 12.25 3.936 11.28C3.30918 11.0864 2.65598 10.992 2 11C-2 11 -3 14 -3 15C-3 16 -2 16 -2 16H2.216ZM1.5 10C2.16304 10 2.79893 9.73661 3.26777 9.26777C3.73661 8.79893 4 8.16304 4 7.5C4 6.83696 3.73661 6.20107 3.26777 5.73223C2.79893 5.26339 2.16304 5 1.5 5C0.836959 5 0.201074 5.26339 -0.267767 5.73223C-0.736608 6.20107 -1 6.83696 -1 7.5C-1 8.16304 -0.736608 8.79893 -0.267767 9.26777C0.201074 9.73661 0.836959 10 1.5 10Z" fill="black"/>
<path d="M-0.5 16.5L3.35205 17.1832L2.49995 15.4999L2.99996 13.4999L4.87712 11.1487L4.87712 2.59279L-0.499771 2.50033L-1.49977 10.0003L-0.5 16.5Z" fill="white"/>
</g>
<circle cx="8" cy="8" r="7.5" stroke="black" stroke-dasharray="2 2"/>
<defs>
<clipPath id="clip0_2379_375">
<rect width="10" height="16" fill="white" transform="translate(3 2)"/>
</clipPath>
</defs>
</svg>
