<svg width="307" height="15" viewBox="0 0 307 15" fill="none" xmlns="http://www.w3.org/2000/svg">
<path d="M249.268 0.354609C250.635 1.67456 251.558 2.55961 252.727 3.68466C256.178 1.16317 259.379 -1.51031 263.507 3.56466C264.375 4.63922 269.861 2.85075 272.947 2.43319C275.639 3.12172 278.555 4.35774 281.527 4.52435C289.755 4.98005 298.011 4.96703 306.262 5.14458C306.28 5.89288 306.297 6.6558 306.315 7.4041C302.646 7.57447 298.991 7.8771 295.308 7.88586C258.94 7.98322 222.547 7.62546 186.185 8.22156C147.989 8.83688 109.811 10.2152 71.6337 11.5348C50.8036 12.2598 29.9944 13.5719 9.17639 14.5171C7.20734 14.6067 4.94156 14.426 3.29456 13.6133C1.81371 12.8922 0.0695572 11.1241 0.0966822 9.8635C0.120653 8.74947 2.34699 6.86158 3.76179 6.74538C19.0721 5.47631 34.3843 4.11932 49.7471 3.54064C65.7154 2.94567 81.7158 3.20198 97.7087 3.03282C112.541 2.88269 127.389 2.76222 142.209 2.42117C154.27 2.15274 166.309 1.31187 178.366 1.23399C183.04 1.20259 187.694 2.91591 192.413 3.19342C194.73 3.33127 198.863 5.83996 199.455 0.98387C199.476 0.793673 200.677 0.438203 201.026 0.621697C205.301 2.78146 209.939 -0.242363 213.829 1.04388C218.152 2.4861 221.828 1.97861 225.932 1.14301C227.283 0.86411 228.97 2.14689 230.499 2.17979C232.348 2.21957 234.179 1.51108 236.047 1.41929C237.629 1.33602 239.685 1.1456 240.728 1.88664C244.14 4.26249 246.641 3.70038 249.235 0.353885L249.268 0.354609Z" fill="#FFC700"/>
</svg>
