<svg width="177" height="30" viewBox="0 0 177 30" fill="none" xmlns="http://www.w3.org/2000/svg">
<path d="M173.119 22.6025H176.999V1.01435H173.119V22.6025Z" fill="white"/>
<path d="M167.935 8.09547C166.676 6.93101 164.932 6.34945 162.7 6.34945C160.153 6.34945 157.706 6.93485 155.355 8.10322V15.6212C155.933 15.4167 156.56 15.3016 157.223 15.3016C157.935 15.3016 158.601 15.4314 159.209 15.6609V10.0287C160.252 9.84088 161.243 9.74699 162.184 9.74699C163.017 9.74699 163.7 9.82544 164.232 9.98186C164.767 10.1384 165.149 10.3732 165.386 10.6863C165.618 10.9994 165.776 11.2994 165.854 11.5871C165.932 11.8736 165.97 12.2315 165.97 12.6594V22.6025H169.823V12.988C169.823 10.8894 169.194 9.25849 167.935 8.09547Z" fill="white"/>
<path d="M14.8597 6.74855L18.3262 18.655L21.952 6.74855H26.2853L20.7649 22.668H16.2078L14.5707 17.981L13.1588 12.6856L11.7467 17.981L10.1105 22.668H5.55218L0 6.74855H4.36536L7.99132 18.655L11.4256 6.74855H14.8597Z" fill="white"/>
<path d="M48.5695 6.77964L48.8586 8.60846C50.079 6.65188 51.7147 6.36274 53.3199 6.36274C54.9569 6.36274 56.5289 7.00453 57.3961 7.87079L55.6313 11.273C54.8279 10.5987 54.0895 10.2463 52.807 10.2463C50.7525 10.2463 48.8586 11.3371 48.8586 14.2571V22.6025H44.9434V6.77964H48.5695Z" fill="white"/>
<path d="M88.7672 6.7157V22.6025H92.6835V6.7157H88.7672ZM93.0364 2.31833C93.0364 5.36781 88.4141 5.36781 88.4141 2.31833C88.4141 -0.729534 93.0364 -0.729534 93.0364 2.31833Z" fill="white"/>
<path d="M95.8283 2.28684C95.8283 5.33679 100.45 5.33679 100.45 2.28684C100.45 -0.762306 95.8283 -0.762306 95.8283 2.28684ZM100.064 6.71623V22.6093C100.064 26.5254 98.3632 29.0605 94.8011 29.0605C93.645 29.0605 92.4263 28.7407 91.3027 28.0016L92.7151 24.952C93.3892 25.2744 94.0312 25.4333 94.6077 25.4025C95.8921 25.3387 96.1812 24.3433 96.1812 22.6093V6.71623H100.064Z" fill="white"/>
<path d="M137.646 22.6025V8.10322C139.996 6.93485 142.444 6.34945 144.991 6.34945C147.223 6.34945 148.967 6.93101 150.226 8.09547C151.485 9.25849 152.114 10.8894 152.114 12.988V22.6025H148.261V12.6594C148.261 12.2315 148.223 11.8736 148.145 11.5871C148.066 11.2994 147.909 10.9994 147.676 10.6863C147.44 10.3732 147.058 10.1384 146.522 9.98186C145.992 9.82544 145.308 9.74699 144.474 9.74699C143.534 9.74699 142.543 9.84088 141.499 10.0287V22.6025H137.646Z" fill="white"/>
<path d="M59.3359 22.6025H63.2512V15.4507L69.4456 22.6025H74.1624V22.3138L66.8133 14.2313L73.4287 6.85105V6.62736H68.7423L63.2512 13.1409V1.01435H59.3359V22.6025Z" fill="white"/>
<path d="M112.707 17.6246C112.707 18.7621 111.745 19.3307 109.827 19.3307C108.619 19.3307 107.773 18.9174 107.29 18.0906C106.803 17.2623 106.562 15.918 106.562 14.0551C106.562 12.276 106.872 11.0328 107.491 10.3234C108.11 9.61523 109.013 9.26085 110.199 9.26085C111.126 9.27094 111.964 9.35867 112.707 9.52366V17.6246ZM112.707 6.53887C111.796 6.37429 110.921 6.28998 110.075 6.28998C107.711 6.28998 105.902 6.97521 104.643 8.34427C103.384 9.71284 102.754 11.684 102.754 14.257C102.754 15.673 102.934 16.9207 103.296 17.9997C103.658 19.0796 104.097 19.8981 104.611 20.4583C105.127 21.0156 105.736 21.4698 106.431 21.821C107.127 22.173 107.735 22.3893 108.257 22.4708C108.778 22.5544 109.3 22.5952 109.827 22.5952C112.088 22.5952 113.767 22.0726 114.866 21.0221C115.963 19.9746 116.514 18.7233 116.514 17.2668V1.01439H112.707V6.53887Z" fill="white"/>
<path d="M77.9178 6.6395H75.2559V9.90525H77.9178V17.3636C77.9178 18.9942 78.3667 20.2738 79.2651 21.2031C80.1622 22.1306 81.3955 22.5952 82.9646 22.5952C82.9844 22.5952 83.01 22.5952 83.0418 22.5952C83.9182 22.5952 84.7288 22.4412 85.4708 22.1306V18.9885C84.9452 19.2157 84.3411 19.3292 83.6603 19.3292C82.9385 19.3292 82.4351 19.2105 82.1514 18.9739C81.8676 18.736 81.7251 18.2769 81.7251 17.5957V9.90525H85.4708V6.6395H81.7251V1.01439H77.9178V6.6395Z" fill="white"/>
<path d="M159.535 20.5794C159.535 23.6285 154.912 23.6285 154.912 20.5794C154.912 17.5315 159.535 17.5315 159.535 20.5794Z" fill="white"/>
<path d="M130.482 14.8718H127.86C127.697 14.4029 127.254 14.0674 126.729 14.0674C126.689 14.0674 126.65 14.07 126.611 14.0732L125.403 12.0794C125.241 11.8139 124.896 11.7282 124.631 11.8897C124.365 12.0502 124.279 12.3964 124.441 12.6619L125.673 14.7003C125.583 14.8679 125.532 15.0605 125.532 15.2642C125.532 15.9257 126.069 16.4614 126.729 16.4614C127.233 16.4614 127.662 16.1511 127.839 15.7111H130.482C130.713 15.7111 130.901 15.5231 130.901 15.2909C130.901 15.0591 130.713 14.8718 130.482 14.8718Z" fill="white"/>
<path d="M135.435 14.7078C135.435 14.6966 135.437 14.6854 135.437 14.6751C135.437 10.0559 131.679 6.29864 127.059 6.29864C122.441 6.29864 118.684 10.0559 118.684 14.6751C118.684 19.2925 122.441 23.0498 127.059 23.0498C129.7 23.0498 132.052 21.8215 133.588 19.908L131.028 17.3476C130.168 18.6217 128.709 19.4618 127.059 19.4618C124.42 19.4618 122.274 17.3133 122.274 14.6751C122.274 12.0352 124.42 9.88771 127.059 9.88771C129.7 9.88771 131.846 12.0352 131.846 14.6751C131.846 14.6854 131.845 14.6966 131.845 14.7078H135.435Z" fill="white"/>
<path d="M37.5168 15.2431H35.2026C35.0589 14.843 34.668 14.557 34.2062 14.557C34.1702 14.557 34.1353 14.5588 34.1011 14.562L33.035 12.8616C32.8933 12.6349 32.588 12.562 32.3522 12.6996C32.118 12.8366 32.0433 13.1318 32.185 13.3582L33.2742 15.0964C33.1951 15.2397 33.1496 15.4043 33.1496 15.578C33.1496 16.1423 33.623 16.5991 34.2062 16.5991C34.6493 16.5991 35.0295 16.3343 35.1858 15.9592H37.5168C37.7218 15.9592 37.8865 15.7988 37.8865 15.6008C37.8865 15.4031 37.7218 15.2431 37.5168 15.2431Z" fill="white"/>
<path d="M42.2135 14.8261C42.2135 14.8154 42.2162 14.8048 42.2162 14.7948C42.2162 10.4168 38.6554 6.85603 34.278 6.85603C29.9006 6.85603 26.3398 10.4168 26.3398 14.7948C26.3398 19.1714 29.9006 22.7324 34.278 22.7324C36.7778 22.7324 39.0097 21.5683 40.4658 19.7547L38.0385 17.328C37.2233 18.5353 35.8418 19.3318 34.278 19.3318C31.7766 19.3318 29.7414 17.2955 29.7414 14.7948C29.7414 12.2928 31.7766 10.2575 34.278 10.2575C36.7778 10.2575 38.8137 12.2928 38.8137 14.7948C38.8137 14.8048 38.8128 14.8154 38.8128 14.8261H42.2135Z" fill="white"/>
</svg>
