<svg width="20" height="20" viewBox="0 0 20 20" fill="none" xmlns="http://www.w3.org/2000/svg">
<path d="M13.8449 9.75109L10.2696 6.16684C10.1696 6.0665 10.0991 5.96231 10.0583 5.85426C10.0175 5.74621 9.99711 5.63121 9.99711 5.50926C9.99711 5.38654 10.0175 5.2727 10.0583 5.16774C10.0991 5.062 10.1696 4.95858 10.2696 4.85747L13.8449 1.27322C13.9458 1.17288 14.0497 1.10188 14.1567 1.0602C14.2645 1.02007 14.3792 1 14.5009 1C14.624 1 14.738 1.02007 14.8427 1.0602C14.9474 1.10111 15.0502 1.17211 15.151 1.27322L18.7263 4.85747C18.8272 4.95858 18.898 5.06277 18.9388 5.17005C18.9796 5.27734 19 5.39233 19 5.51505C19 5.63854 18.9796 5.75277 18.9388 5.85773C18.898 5.9627 18.8272 6.06573 18.7263 6.16684L15.151 9.75109C15.0509 9.85143 14.947 9.92243 14.8392 9.96411C14.7322 10.005 14.6175 10.0255 14.4951 10.0255C14.3727 10.0255 14.2591 10.005 14.1544 9.96411C14.049 9.92321 13.9458 9.8522 13.8449 9.75109ZM1 7.91266V2.83612C1 2.57139 1.08969 2.3495 1.26907 2.17044C1.44768 1.99061 1.66902 1.90069 1.93309 1.90069H6.99692C7.26099 1.90069 7.48233 1.99061 7.66094 2.17044C7.83955 2.3495 7.92885 2.57139 7.92885 2.83612V7.91266C7.92885 8.17739 7.83955 8.39928 7.66094 8.57834C7.48233 8.7574 7.26099 8.84693 6.99692 8.84693H1.93309C1.66902 8.84693 1.44768 8.7574 1.26907 8.57834C1.08969 8.39928 1 8.17739 1 7.91266ZM11.1277 18.0646V12.988C11.1277 12.7233 11.217 12.5014 11.3956 12.3224C11.5742 12.1433 11.7955 12.0538 12.0596 12.0538H17.1234C17.3875 12.0538 17.6088 12.1433 17.7875 12.3224C17.9668 12.5014 18.0565 12.7233 18.0565 12.988V18.0646C18.0565 18.3293 17.9668 18.5512 17.7875 18.7303C17.6088 18.9101 17.3875 19 17.1234 19H12.0596C11.7955 19 11.5742 18.9101 11.3956 18.7303C11.217 18.5512 11.1277 18.3293 11.1277 18.0646ZM1 18.0646V12.988C1 12.7233 1.08969 12.5014 1.26907 12.3224C1.44768 12.1433 1.66902 12.0538 1.93309 12.0538H6.99692C7.26099 12.0538 7.48233 12.1433 7.66094 12.3224C7.83955 12.5014 7.92885 12.7233 7.92885 12.988V18.0646C7.92885 18.3293 7.83955 18.5512 7.66094 18.7303C7.48233 18.9101 7.26099 19 6.99692 19H1.93309C1.66902 19 1.44768 18.9101 1.26907 18.7303C1.08969 18.5512 1 18.3293 1 18.0646ZM2.15481 7.68922H6.77404V3.0584H2.15481V7.68922ZM14.5274 8.81219L17.7898 5.54168L14.5274 2.27116L11.2651 5.54168L14.5274 8.81219ZM12.2825 17.8423H16.9017V13.2115H12.2825V17.8423ZM2.15481 17.8423H6.77404V13.2115H2.15481V17.8423Z" fill="#00AE4A" stroke="#00AE4A" stroke-width="0.9"/>
</svg>
