<svg width="51" height="51" viewBox="0 0 51 51" fill="none" xmlns="http://www.w3.org/2000/svg">
<path d="M17.7331 1.93839H5.51085C3.33239 1.93839 1.56641 3.70437 1.56641 5.88283V18.1051C1.56641 20.2835 3.33239 22.0495 5.51085 22.0495H17.7331C19.9115 22.0495 21.6775 20.2835 21.6775 18.1051V5.88283C21.6775 3.70437 19.9115 1.93839 17.7331 1.93839Z" stroke="#009F66" stroke-width="3" stroke-linecap="round"/>
<path d="M17.7331 28.8275H5.51085C3.33239 28.8275 1.56641 30.5935 1.56641 32.7719V44.9942C1.56641 47.1726 3.33239 48.9386 5.51085 48.9386H17.7331C19.9115 48.9386 21.6775 47.1726 21.6775 44.9942V32.7719C21.6775 30.5935 19.9115 28.8275 17.7331 28.8275Z" stroke="#009F66" stroke-width="3" stroke-linecap="round"/>
<path d="M44.6217 1.93839H32.3995C30.2211 1.93839 28.4551 3.70437 28.4551 5.88283V18.1051C28.4551 20.2835 30.2211 22.0495 32.3995 22.0495H44.6217C46.8002 22.0495 48.5662 20.2835 48.5662 18.1051V5.88283C48.5662 3.70437 46.8002 1.93839 44.6217 1.93839Z" stroke="#009F66" stroke-width="3" stroke-linecap="round"/>
<path d="M44.6217 28.8275H32.3995C30.2211 28.8275 28.4551 30.5935 28.4551 32.7719V44.9942C28.4551 47.1726 30.2211 48.9386 32.3995 48.9386H44.6217C46.8002 48.9386 48.5662 47.1726 48.5662 44.9942V32.7719C48.5662 30.5935 46.8002 28.8275 44.6217 28.8275Z" stroke="#009F66" stroke-width="3" stroke-linecap="round"/>
</svg>
