<svg width="8" height="9" viewBox="0 0 8 9" fill="none" xmlns="http://www.w3.org/2000/svg">
<path fill-rule="evenodd" clip-rule="evenodd" d="M3.40009 0.9C3.26182 0.899947 3.12778 0.953616 3.02064 1.05193C2.91349 1.15024 2.83982 1.28717 2.81207 1.43955C2.80159 1.49746 2.78108 1.55249 2.75169 1.60148C2.72231 1.65047 2.68464 1.69248 2.64083 1.72509C2.59701 1.7577 2.54792 1.78029 2.49635 1.79156C2.44478 1.80283 2.39174 1.80256 2.34026 1.79077C2.28878 1.77899 2.23987 1.7559 2.19632 1.72285C2.15277 1.6898 2.11543 1.64742 2.08644 1.59813C2.05745 1.54884 2.03737 1.49361 2.02735 1.4356C2.01733 1.37758 2.01757 1.31791 2.02805 1.26C2.08103 0.968022 2.20655 0.698942 2.39004 0.484014C2.57353 0.269086 2.80746 0.11713 3.06465 0.0457934C3.32185 -0.025543 3.59175 -0.0133317 3.84302 0.0810089C4.09429 0.17535 4.31662 0.347948 4.48417 0.578758C4.65173 0.809568 4.75764 1.08912 4.78961 1.38494C4.82157 1.68076 4.77828 1.98072 4.66476 2.24996C4.55124 2.51921 4.37215 2.7467 4.14829 2.90602C3.92443 3.06534 3.66498 3.14994 3.40009 3.15H1.20003C1.09394 3.15 0.992197 3.10259 0.917181 3.0182C0.842164 2.93381 0.80002 2.81935 0.80002 2.7C0.80002 2.58065 0.842164 2.46619 0.917181 2.3818C0.992197 2.29741 1.09394 2.25 1.20003 2.25H3.40009C3.55922 2.25 3.71184 2.17888 3.82436 2.0523C3.93689 1.92571 4.0001 1.75402 4.0001 1.575C4.0001 1.39598 3.93689 1.22429 3.82436 1.0977C3.71184 0.971116 3.55922 0.9 3.40009 0.9ZM6.60017 2.7C6.4619 2.69995 6.32786 2.75362 6.22072 2.85193C6.11357 2.95024 6.0399 3.08717 6.01215 3.23955C6.0017 3.29746 5.98121 3.35249 5.95185 3.4015C5.92249 3.4505 5.88484 3.49252 5.84105 3.52516C5.79726 3.55779 5.74818 3.5804 5.69662 3.5917C5.64505 3.603 5.59202 3.60276 5.54054 3.591C5.48906 3.57924 5.44014 3.55619 5.39658 3.52316C5.35302 3.49013 5.31567 3.44778 5.28666 3.39851C5.25765 3.34925 5.23755 3.29403 5.22751 3.23603C5.21747 3.17802 5.21768 3.11836 5.22813 3.06045C5.28104 2.76843 5.40651 2.49929 5.58997 2.2843C5.77342 2.0693 6.00734 1.91727 6.26454 1.84587C6.52174 1.77447 6.79167 1.78663 7.04297 1.88093C7.29428 1.97523 7.51664 2.14781 7.68423 2.37862C7.85182 2.60942 7.95777 2.88898 7.98976 3.18483C8.02174 3.48067 7.97846 3.78065 7.86494 4.04992C7.75142 4.31919 7.57231 4.54671 7.34843 4.70603C7.12455 4.86536 6.86508 4.94996 6.60017 4.95H0.40001C0.293921 4.95 0.192177 4.90259 0.11716 4.8182C0.0421438 4.73381 0 4.61935 0 4.5C0 4.38065 0.0421438 4.26619 0.11716 4.1818C0.192177 4.09741 0.293921 4.05 0.40001 4.05H6.60017C6.7593 4.05 6.91192 3.97888 7.02444 3.8523C7.13697 3.72571 7.20018 3.55402 7.20018 3.375C7.20018 3.19598 7.13697 3.02429 7.02444 2.8977C6.91192 2.77112 6.7593 2.7 6.60017 2.7ZM4.41211 7.56045C4.43489 7.68554 4.48874 7.8008 4.56741 7.89285C4.64608 7.98489 4.74635 8.04994 4.85657 8.08045C4.96678 8.11096 5.08243 8.10567 5.19009 8.0652C5.29774 8.02473 5.39298 7.95074 5.46476 7.85182C5.53653 7.7529 5.58189 7.6331 5.59557 7.50634C5.60924 7.37958 5.59068 7.25106 5.54203 7.13569C5.49338 7.02032 5.41664 6.92284 5.32072 6.85457C5.2248 6.7863 5.11363 6.75004 5.00013 6.75H2.40006C2.29397 6.75 2.19223 6.70259 2.11721 6.6182C2.04219 6.53381 2.00005 6.41935 2.00005 6.3C2.00005 6.18065 2.04219 6.06619 2.11721 5.9818C2.19223 5.89741 2.29397 5.85 2.40006 5.85H5.00013C5.26504 5.85004 5.52451 5.93464 5.74839 6.09397C5.97227 6.25329 6.15138 6.4808 6.2649 6.75008C6.37842 7.01935 6.4217 7.31933 6.38972 7.61517C6.35773 7.91102 6.25178 8.19058 6.08419 8.42138C5.9166 8.65219 5.69424 8.82477 5.44293 8.91907C5.19163 9.01337 4.9217 9.02553 4.6645 8.95413C4.4073 8.88273 4.17338 8.7307 3.98993 8.5157C3.80647 8.30071 3.681 8.03157 3.62809 7.73955C3.60698 7.62259 3.62803 7.50098 3.68662 7.40149C3.74521 7.30199 3.83653 7.23275 3.9405 7.209C4.04447 7.18525 4.15256 7.20893 4.24101 7.27484C4.32945 7.34075 4.391 7.44349 4.41211 7.56045Z" fill="white"/>
</svg>
