<svg width="47" height="47" viewBox="0 0 47 47" fill="none" xmlns="http://www.w3.org/2000/svg">
<path d="M0.390625 10.8436C0.390625 8.22932 1.42914 5.72211 3.27772 3.87354C5.12629 2.02497 7.63349 0.98645 10.2478 0.98645H36.5335C39.1478 0.98645 41.655 2.02497 43.5035 3.87354C45.3521 5.72211 46.3906 8.22932 46.3906 10.8436V37.1293C46.3906 39.7436 45.3521 42.2508 43.5035 44.0994C41.655 45.9479 39.1478 46.9865 36.5335 46.9865H10.2478C7.63349 46.9865 5.12629 45.9479 3.27772 44.0994C1.42914 42.2508 0.390625 39.7436 0.390625 37.1293V10.8436ZM10.2478 4.27216C8.50492 4.27216 6.83345 4.96451 5.60107 6.19689C4.36868 7.42927 3.67634 9.10074 3.67634 10.8436V14.3199L21.7478 14.1457V4.27216H10.2478ZM25.0335 4.27216V30.5579H43.1049V10.8436C43.1049 9.10074 42.4126 7.42927 41.1802 6.19689C39.9478 4.96451 38.2763 4.27216 36.5335 4.27216H25.0335ZM43.1049 33.8436H25.0335V43.7007H36.5335C38.2763 43.7007 39.9478 43.0084 41.1802 41.776C42.4126 40.5436 43.1049 38.8722 43.1049 37.1293V33.8436ZM21.7478 43.7007V17.4315L3.67634 17.6056V37.1293C3.67634 38.8722 4.36868 40.5436 5.60107 41.776C6.83345 43.0084 8.50492 43.7007 10.2478 43.7007H21.7478Z" fill="#009F66"/>
</svg>
