<svg width="103" height="102" viewBox="0 0 103 102" fill="none" xmlns="http://www.w3.org/2000/svg">
<rect x="0.140137" width="102" height="102" rx="5" fill="url(#paint0_linear_941_148)"/>
<g filter="url(#filter0_d_941_148)">
<path d="M64.1996 52.0522H54.4336C53.8591 50.331 52.2315 49.0878 50.2208 49.0878C50.0293 49.0878 49.9336 49.0878 49.7421 49.0878L45.2421 41.7247C44.6676 40.7685 43.3272 40.386 42.3698 41.0553C41.4123 41.6291 41.0294 42.9678 41.6996 43.9241L46.2953 51.4785C46.0081 52.1478 45.8166 52.8172 45.8166 53.5822C45.8166 56.0685 47.8272 57.981 50.2208 57.981C52.04 57.981 53.6676 56.8335 54.3379 55.2078H64.1038C64.9655 55.2078 65.6357 54.5385 65.6357 53.6778C65.7315 52.8172 65.0613 52.0522 64.1996 52.0522Z" fill="white"/>
<path d="M82.5826 51.478V51.3824C82.5826 34.2655 68.6039 20.3999 51.5613 20.3999C34.423 20.3999 20.54 34.3612 20.54 51.3824C20.54 68.4993 34.5188 82.3649 51.5613 82.3649C61.3273 82.3649 70.04 77.7749 75.7847 70.6987L66.306 61.2318C63.1464 65.9174 57.689 69.073 51.5613 69.073C41.7954 69.073 33.8485 61.1362 33.8485 51.3824C33.8485 41.6287 41.7954 33.6918 51.5613 33.6918C61.3273 33.6918 69.2741 41.6287 69.2741 51.3824V51.478H82.5826Z" fill="white"/>
<path d="M82.5826 51.478V51.3824C82.5826 34.2655 68.6039 20.3999 51.5613 20.3999C34.423 20.3999 20.54 34.3612 20.54 51.3824C20.54 68.4993 34.5188 82.3649 51.5613 82.3649C61.3273 82.3649 70.04 77.7749 75.7847 70.6987L66.306 61.2318C63.1464 65.9174 57.689 69.073 51.5613 69.073C41.7954 69.073 33.8485 61.1362 33.8485 51.3824C33.8485 41.6287 41.7954 33.6918 51.5613 33.6918C61.3273 33.6918 69.2741 41.6287 69.2741 51.3824V51.478H82.5826Z" fill="white"/>
</g>
<defs>
<filter id="filter0_d_941_148" x="16.54" y="18.3999" width="70.0425" height="69.9651" filterUnits="userSpaceOnUse" color-interpolation-filters="sRGB">
<feFlood flood-opacity="0" result="BackgroundImageFix"/>
<feColorMatrix in="SourceAlpha" type="matrix" values="0 0 0 0 0 0 0 0 0 0 0 0 0 0 0 0 0 0 127 0" result="hardAlpha"/>
<feOffset dy="2"/>
<feGaussianBlur stdDeviation="2"/>
<feComposite in2="hardAlpha" operator="out"/>
<feColorMatrix type="matrix" values="0 0 0 0 0 0 0 0 0 0.219167 0 0 0 0 0.146111 0 0 0 0.2 0"/>
<feBlend mode="normal" in2="BackgroundImageFix" result="effect1_dropShadow_941_148"/>
<feBlend mode="normal" in="SourceGraphic" in2="effect1_dropShadow_941_148" result="shape"/>
</filter>
<linearGradient id="paint0_linear_941_148" x1="51.1401" y1="0" x2="51.1401" y2="102" gradientUnits="userSpaceOnUse">
<stop stop-color="#13C589"/>
<stop offset="1" stop-color="#00774F"/>
</linearGradient>
</defs>
</svg>
