<svg width="51" height="51" viewBox="0 0 51 51" fill="none" xmlns="http://www.w3.org/2000/svg">
<path d="M18.0573 2.35803H5.83507C3.65661 2.35803 1.89062 4.12402 1.89062 6.30248V18.5247C1.89062 20.7032 3.65661 22.4691 5.83507 22.4691H18.0573C20.2357 22.4691 22.0017 20.7032 22.0017 18.5247V6.30248C22.0017 4.12402 20.2357 2.35803 18.0573 2.35803Z" stroke="#009F66" stroke-width="3" stroke-linecap="round"/>
<path d="M18.0573 29.2471H5.83507C3.65661 29.2471 1.89062 31.0131 1.89062 33.1916V45.4138C1.89062 47.5923 3.65661 49.3582 5.83507 49.3582H18.0573C20.2357 49.3582 22.0017 47.5923 22.0017 45.4138V33.1916C22.0017 31.0131 20.2357 29.2471 18.0573 29.2471Z" stroke="#009F66" stroke-width="3" stroke-linecap="round"/>
<path d="M44.946 2.35803H32.7237C30.5453 2.35803 28.7793 4.12402 28.7793 6.30248V18.5247C28.7793 20.7032 30.5453 22.4691 32.7237 22.4691H44.946C47.1244 22.4691 48.8904 20.7032 48.8904 18.5247V6.30248C48.8904 4.12402 47.1244 2.35803 44.946 2.35803Z" stroke="#009F66" stroke-width="3" stroke-linecap="round"/>
<path d="M44.946 29.2471H32.7237C30.5453 29.2471 28.7793 31.0131 28.7793 33.1916V45.4138C28.7793 47.5923 30.5453 49.3582 32.7237 49.3582H44.946C47.1244 49.3582 48.8904 47.5923 48.8904 45.4138V33.1916C48.8904 31.0131 47.1244 29.2471 44.946 29.2471Z" stroke="#009F66" stroke-width="3" stroke-linecap="round"/>
</svg>
